<svg width="126" height="66" viewBox="0 0 126 66" fill="none" xmlns="http://www.w3.org/2000/svg">
<path d="M44.3403 60.6115L37.4002 38.9748C37.2493 38.5683 36.983 38.216 36.6341 37.961C36.2852 37.7061 35.8687 37.5597 35.436 37.5397L15.2031 37.5064L14.9863 36.9954L14.3671 35.5393C14.2223 35.2411 14.0008 34.9876 13.7252 34.8047C13.4497 34.6218 13.13 34.5162 12.799 34.4986L10.1072 34.4942L4.16183 34.4841C3.33216 34.4843 2.89669 35.1111 3.18888 35.8883L4.66633 39.8216L11.3169 60.5563C11.4866 61.0254 11.814 61.4194 12.243 61.6706C12.5531 61.8697 12.9118 61.9804 13.2812 61.991L43.0912 62.0399C43.4637 62.0309 43.827 61.9165 44.1392 61.7097C44.2711 61.5626 44.3597 61.3819 44.3952 61.1879C44.4308 60.9939 44.4117 60.7943 44.3403 60.6115Z" fill="url(#paint0_linear_217_1445)"/>
<path d="M40.4759 42.0976C40.4759 36.6869 44.8899 32.3145 50.3522 32.2599C52.2833 32.2599 54.1592 32.8064 55.7593 33.8995C56.0903 33.1344 56.5317 32.4238 57.0835 31.7133C60.725 26.8491 67.677 25.8107 72.5875 29.4179C73.4703 30.0737 74.2427 30.8389 74.9048 31.7133C76.3945 33.6809 77.2222 36.0857 77.2222 38.5998C77.2222 38.8184 77.2222 39.0917 77.167 39.3103C77.3877 39.3103 77.6084 39.2556 77.8291 39.2556C83.0707 39.3649 87.2087 43.6279 87.0984 48.8201C86.988 53.8483 82.9051 57.9473 77.8291 58.002L42.3519 58.002C37.8276 57.9473 34.186 54.2855 34.2964 49.8039C34.3516 46.142 36.8896 42.9721 40.4759 42.0976Z" fill="#797673"/>
<path d="M77.0076 60.2331C77.1425 60.6435 77.5257 60.9209 77.9576 60.9209L108.566 60.9209L101.099 38.2017L71.8384 38.2017C70.8172 38.2017 70.0946 39.1999 70.4134 40.17L77.0076 60.2331Z" fill="#064A8B"/>
<path d="M117.301 30.5779C117.182 30.5133 117.08 30.4204 117.002 30.3068C116.925 30.1932 116.874 30.062 116.855 29.9242C116.835 29.7863 116.847 29.6456 116.89 29.5135C116.933 29.3814 117.005 29.2617 117.101 29.1643L119.934 26.2689C120.015 26.1873 120.11 26.123 120.214 26.0796C120.319 26.0363 120.431 26.0149 120.543 26.0164C120.655 26.018 120.766 26.0426 120.87 26.0889C120.973 26.1351 121.067 26.2021 121.145 26.2859C121.223 26.3698 121.285 26.4689 121.327 26.5776C121.368 26.6863 121.389 26.8025 121.388 26.9195C121.386 27.0365 121.362 27.1521 121.318 27.2596C121.274 27.3671 121.209 27.4644 121.129 27.546L118.295 30.4414C118.164 30.5701 117.998 30.6526 117.819 30.677C117.641 30.7015 117.459 30.6668 117.301 30.5779Z" fill="#DBA54E"/>
<path d="M84.8865 36.3985C85.0382 35.7206 85.6438 35.2383 86.3433 35.2383L98.5304 35.2383L99.6621 32.0353C99.7729 31.5956 100.171 31.2871 100.627 31.2871L112.21 31.2871C112.619 31.2871 112.894 31.5069 112.947 31.8932C112.959 31.9868 112.943 32.0814 112.916 32.1721L112.459 33.7457L111.961 35.2383L116.225 35.2383C117.18 35.2383 117.889 36.1161 117.682 37.0414L110.059 60.7484C109.907 61.4263 109.302 61.9087 108.602 61.9087L78.8288 61.9087C77.8742 61.9087 77.165 61.0309 77.3721 60.1056L84.8865 36.3985Z" fill="url(#paint1_linear_217_1445)"/>
<path d="M110.229 26.5152C110.093 26.4398 109.979 26.3273 109.899 26.1899C109.82 26.0524 109.778 25.895 109.777 25.7345L109.777 22.3237C109.791 22.0991 109.887 21.8884 110.045 21.7345C110.203 21.5805 110.411 21.4949 110.628 21.4949C110.844 21.4949 111.052 21.5805 111.21 21.7345C111.368 21.8884 111.464 22.0991 111.478 22.3237L111.496 25.7345C111.496 25.9694 111.407 26.1948 111.248 26.3616C111.089 26.5284 110.873 26.6231 110.648 26.6251C110.501 26.6257 110.357 26.5879 110.229 26.5152Z" fill="#DBA54E"/>
<path d="M121.362 38.3128C121.19 38.2191 121.054 38.0674 120.977 37.8826C120.899 37.6979 120.884 37.4911 120.935 37.2964C120.985 37.1017 121.098 36.9307 121.254 36.8117C121.411 36.6926 121.601 36.6326 121.795 36.6415L125.167 36.7211C125.393 36.7266 125.608 36.8253 125.764 36.9956C125.92 37.1658 126.005 37.3935 126 37.6287C125.994 37.8639 125.899 38.0873 125.736 38.2497C125.572 38.4121 125.353 38.5002 125.127 38.4947L121.759 38.4113C121.62 38.4137 121.484 38.3798 121.362 38.3128Z" fill="#DBA54E"/>
<path d="M33.2633 39.9275C28.0412 43.584 22.8545 47.2081 17.6518 50.8148C12.5934 45.9136 8.59247 39.7557 5.98428 32.7082C10.8884 29.3427 15.7925 25.9773 20.7479 22.5969C23.6706 29.4208 27.9701 35.3375 33.2633 39.9275Z" fill="#439C9D"/>
<path d="M17.7325 32.9321C15.5689 34.3989 13.3877 35.8818 11.2241 37.3486C11.0997 37.1414 10.9931 36.918 10.8865 36.6946C13.0501 35.2278 15.2154 33.7274 17.379 32.2607C17.4856 32.484 17.6099 32.6913 17.7325 32.9321Z" fill="#00777B"/>
<path d="M19.6061 35.8373C17.4072 37.3364 15.1906 38.8517 12.9916 40.3508C12.8673 40.1435 12.743 39.9363 12.601 39.7453C14.8 38.2462 16.9989 36.7471 19.2155 35.2318C19.3238 35.4216 19.4658 35.6126 19.6061 35.8373Z" fill="#00777B"/>
<path d="M22.6642 33.6794C22.088 34.0784 21.5118 34.4774 20.9356 34.8764C20.7936 34.6854 20.6853 34.4957 20.5433 34.3047C21.1195 33.9057 21.6957 33.5067 22.2542 33.1239C22.3962 33.3149 22.5222 33.4884 22.6642 33.6794Z" fill="#00777B"/>
<path d="M20.8067 30.7918C20.2305 31.1908 19.6719 31.5736 19.0958 31.9726C18.9715 31.7654 18.8631 31.5757 18.7388 31.3686C19.315 30.9696 19.8735 30.5867 20.4497 30.1877C20.5917 30.3787 20.6983 30.6021 20.8067 30.7918Z" fill="#00777B"/>
<path d="M21.6055 38.5951C19.3712 40.1265 17.1369 41.658 14.9203 43.1733C14.7784 42.9822 14.6364 42.7912 14.4944 42.6002C16.711 41.0849 18.9453 39.5535 21.1619 38.0382C21.3215 38.213 21.4635 38.4041 21.6055 38.5951Z" fill="#00777B"/>
<path d="M27.0794 38.943C23.7439 41.2577 20.3925 43.5549 17.0746 45.8534C16.915 45.6786 16.773 45.4875 16.6134 45.3127C19.9312 43.0142 23.265 40.7331 26.6005 38.4185C26.7601 38.5933 26.9197 38.7682 27.0794 38.943Z" fill="#00777B"/>
<path d="M24.6809 36.4213C24.1047 36.8203 23.5285 37.2193 22.9346 37.6345C22.7927 37.4435 22.649 37.2861 22.507 37.0951C23.0832 36.6961 23.6594 36.2971 24.2356 35.8981C24.3952 36.073 24.5372 36.264 24.6809 36.4213Z" fill="#00777B"/>
<path d="M43.4967 28.9672C39.0631 25.3457 34.5878 21.7205 30.1382 18.0893C29.8874 17.8914 29.8702 17.53 30.0855 17.2895C34.1985 12.8644 37.6089 7.94215 40.2402 2.71689C40.376 2.42755 40.7013 2.36414 40.968 2.57179C45.6343 6.31422 50.3006 10.0566 54.935 13.7795C55.2018 13.9872 55.2827 14.3877 55.131 14.6673C52.289 19.807 48.6716 24.6022 44.3677 28.91C44.1364 29.1407 43.7475 29.1651 43.4967 28.9672Z" fill="#E1DFDD"/>
<path d="M43.2965 28.0634C38.8629 24.4419 34.3876 20.8167 29.938 17.1855C29.6872 16.9876 29.67 16.6262 29.8854 16.3857C33.9983 11.9606 37.4087 7.03834 40.04 1.81309C40.1758 1.52374 40.5011 1.46033 40.7678 1.66798C45.4341 5.41041 50.1004 9.15284 54.7348 12.8757C55.0016 13.0834 55.0825 13.4839 54.9308 13.7635C52.0888 18.9032 48.4714 23.6984 44.1675 28.0062C43.9362 28.2369 43.5473 28.2612 43.2965 28.0634Z" fill="#EFEFEF"/>
<path d="M43.8492 27.9995C39.7413 24.3834 35.6237 20.7844 31.5 17.1578C35.149 12.7968 38.2378 8.0411 40.6819 2.99951C44.9579 6.70347 49.2338 10.4074 53.5 14.1284C50.8938 19.1097 47.6466 23.7605 43.8492 27.9995Z" fill="#7AAED4"/>
<path d="M43.8492 27.9995C39.7413 24.3834 35.6237 20.7844 31.5 17.1578C35.149 12.7968 38.2378 8.0411 40.6819 2.99951C44.9579 6.70347 49.2338 10.4074 53.5 14.1284C50.8938 19.1097 47.6466 23.7605 43.8492 27.9995Z" fill="url(#paint2_radial_217_1445)"/>
<path d="M36.9169 21.9129L37.2944 21.5625L40.7688 23.8801C41.2839 24.2238 41.4524 24.9555 41.1253 25.5196L36.9169 21.9129Z" fill="#E0BB95"/>
<path d="M40.5338 17.1551C41.9321 18.0878 43.7705 17.6283 44.6399 16.1289C45.5093 14.6294 45.0805 12.6579 43.6823 11.7251C42.284 10.7924 40.4457 11.2518 39.5763 12.7512C38.7069 14.2506 39.1356 16.2223 40.5338 17.1551Z" fill="#E0BB95"/>
<path d="M45.1801 17.9237C45.1392 17.9942 45.1052 18.0529 45.0601 18.1044C44.9878 18.2028 44.9087 18.3131 44.8213 18.3852C44.5292 18.6793 44.1631 18.8913 43.7898 18.9846C43.2388 19.1223 42.6202 19.0358 42.0941 18.6848L40.6035 17.6905L42.0074 15.2693L42.6097 16.0298L43.971 16.9378L44.2018 16.7177L45.0434 17.2945C45.2078 17.4041 45.2711 17.6095 45.2263 17.7915C45.21 17.8459 45.2005 17.8884 45.1801 17.9237Z" fill="#E0BB95"/>
<path d="M45.1801 17.9237C45.1392 17.9942 45.1052 18.0529 45.0601 18.1044C44.9878 18.2028 44.9087 18.3131 44.8213 18.3852L44.7283 18.2576C44.4567 17.9135 44.4242 17.4191 44.6491 17.0312L45.0546 17.3017C45.219 17.4114 45.2823 17.6168 45.2376 17.7988C45.2103 17.8458 45.2005 17.8884 45.1801 17.9237Z" fill="#767677"/>
<path d="M33.1641 18.6202L36.3943 13.0492C37.8118 10.6046 40.8157 9.85386 43.0954 11.3745L44.7394 12.4712L38.3414 23.1622L33.1641 18.6202Z" fill="#E0BB95"/>
<path d="M44.8494 15.5844L44.1699 15.1311C43.9617 14.9922 43.8995 14.7062 44.029 14.4829C44.1585 14.2596 44.4251 14.1929 44.6334 14.3318L45.3129 14.7851C45.5211 14.924 45.5833 15.21 45.4538 15.4333C45.3243 15.6566 45.0467 15.716 44.8494 15.5844Z" fill="#FADCBD"/>
<path d="M42.0184 12.6035L40.3306 11.4776L40.8826 10.5256C41.4619 9.52658 42.6883 9.22015 43.6199 9.84158L42.0184 12.6035Z" fill="#E0BB95"/>
<path d="M44.6049 14.329L42.9171 13.2031L43.4691 12.251C44.0484 11.252 45.2748 10.9456 46.2064 11.567L44.6049 14.329Z" fill="#E0BB95"/>
<path d="M41.2928 18.9654L39.1556 17.5397C38.4432 17.0645 38.2345 16.0614 38.6706 15.3092C39.1136 14.5453 40.0489 14.3216 40.7503 14.7895L45.2549 17.7943L45.1254 18.0177C44.3213 19.4045 42.5971 19.8354 41.2928 18.9654Z" fill="#FADCBD"/>
<path d="M42.5375 14.0417L41.8579 13.5884C41.6497 13.4495 41.5875 13.1635 41.717 12.9402C41.8465 12.7169 42.1131 12.6502 42.3214 12.7891L43.0009 13.2424C43.2092 13.3813 43.2713 13.6673 43.1418 13.8906C43.0124 14.1139 42.7457 14.1806 42.5375 14.0417Z" fill="#FADCBD"/>
<path d="M40.7298 16.5035C40.9516 16.6189 41.0725 16.8299 41.1782 17.0145C41.2771 17.2109 41.3609 17.3809 41.4448 17.5509C41.5354 17.7092 41.6328 17.8556 41.7507 17.9669C41.8686 18.0781 42.0111 18.1731 42.1782 18.252L42.1891 18.2593C42.2727 18.2987 42.3153 18.4087 42.2717 18.51C42.2418 18.5879 42.1749 18.6246 42.0997 18.6233C41.8807 18.6077 41.6494 18.5348 41.4521 18.4032C41.2548 18.2717 41.0848 18.093 40.9503 17.9055C40.8159 17.7181 40.7169 17.5217 40.6154 17.3561C40.5206 17.1788 40.4477 17.0162 40.3953 16.8182L40.387 16.7801C40.358 16.6466 40.4329 16.5173 40.5574 16.4862C40.6285 16.4685 40.6859 16.4742 40.7298 16.5035Z" fill="#BF8F68"/>
<path d="M42.3252 14.7479C42.2994 14.8448 42.2475 14.9081 42.1847 14.964C42.1287 15.0081 42.0618 15.045 41.9907 15.0628C41.8485 15.0983 41.687 15.0884 41.5377 15.0051C41.3884 14.9218 41.2869 14.7562 41.2537 14.6037C41.2206 14.4511 41.2448 14.3045 41.2842 14.1841C41.3005 14.1297 41.3607 14.1046 41.4113 14.1221C41.4333 14.1367 41.4552 14.1513 41.4703 14.1777L41.4744 14.1968C41.5171 14.3067 41.5487 14.4094 41.6009 14.4768C41.653 14.5441 41.6791 14.5777 41.7298 14.5952C41.7736 14.6245 41.842 14.6375 41.9173 14.6388C41.957 14.649 41.9925 14.6401 42.039 14.6385L42.1498 14.6309L42.2319 14.6205C42.2784 14.619 42.3154 14.66 42.3169 14.7099C42.321 14.7289 42.3142 14.7406 42.3252 14.7479Z" fill="#594539"/>
<path d="M44.3423 16.0931C44.3165 16.1899 44.2646 16.2532 44.2018 16.3091C44.1458 16.3532 44.0788 16.3901 44.0077 16.4079C43.8655 16.4434 43.7041 16.4335 43.5548 16.3502C43.4055 16.267 43.304 16.1013 43.2708 15.9488C43.2376 15.7963 43.2619 15.6496 43.3013 15.5292C43.3176 15.4749 43.3778 15.4497 43.4284 15.4672C43.4503 15.4819 43.4723 15.4964 43.4874 15.5228L43.4915 15.5419C43.5341 15.6519 43.5658 15.7545 43.618 15.8219C43.6701 15.8893 43.6962 15.9229 43.7469 15.9404C43.7907 15.9696 43.8591 15.9827 43.9344 15.984C43.9741 15.9941 44.0096 15.9852 44.0561 15.9837L44.1669 15.9761L44.2489 15.9657C44.2955 15.9641 44.3325 16.0051 44.3339 16.055C44.349 16.0814 44.3423 16.0931 44.3423 16.0931Z" fill="#594539"/>
<path d="M39.1301 49.4897C33.5136 48.4855 27.8589 47.4982 22.2238 46.4931C21.9094 46.4424 21.721 46.1362 21.7942 45.8225C23.272 39.9784 23.8967 34.0419 23.6942 28.2191C23.6744 27.9014 23.9286 27.6887 24.2616 27.7402C30.1397 28.737 36.0178 29.7339 41.8586 30.7291C42.1916 30.7806 42.4545 31.09 42.4557 31.4069C42.4328 37.2573 41.5661 43.1835 39.8649 49.018C39.7731 49.3309 39.4444 49.5405 39.1301 49.4897Z" fill="#E1DFDD"/>
<path d="M38.7541 48.8381C33.1376 47.8338 27.4829 46.8466 21.8478 45.8415C21.5334 45.7908 21.345 45.4846 21.4182 45.1709C22.896 39.3268 23.5207 33.3903 23.3183 27.5675C23.2984 27.2498 23.5526 27.0371 23.8856 27.0886C29.7637 28.0854 35.6418 29.0822 41.4826 30.0775C41.8156 30.129 42.0785 30.4384 42.0797 30.7553C42.0568 36.6057 41.1901 42.5318 39.489 48.3664C39.3971 48.6793 39.0685 48.8888 38.7541 48.8381Z" fill="#EFEFEF"/>
<path d="M38.3174 47.2733C33.0887 46.3415 27.859 45.4283 22.6118 44.4957C23.8738 39.1828 24.4668 33.8226 24.365 28.5445C29.7809 29.4657 35.1967 30.3868 40.6115 31.3266C40.5437 36.6347 39.7646 41.9869 38.3174 47.2733Z" fill="#FFD590"/>
<path d="M37.0044 34.3377C36.816 33.1961 35.9246 32.2274 34.8034 32.0324C33.9768 31.8902 33.1941 32.2268 32.7322 32.8412C31.6682 32.6625 30.7578 33.429 30.6516 34.5177C30.6182 34.9433 30.6792 35.3648 30.8802 35.7328C31.1731 36.3136 31.6973 36.7426 32.3724 36.8727C33.7882 37.1206 35.2041 37.3684 36.62 37.6162C37.2092 37.7219 37.7862 37.4511 38.1026 37.0128C38.2565 36.8079 38.3331 36.55 38.3525 36.2758C38.4077 35.359 37.814 34.5372 37.0044 34.3377Z" fill="white"/>
<path d="M29.6974 37.4162C29.8129 36.6099 29.2594 35.8616 28.49 35.7358C27.9865 35.6546 27.4923 35.8557 27.193 36.2367C26.927 36.192 26.6896 36.1555 26.4236 36.1108C26.2148 36.0824 25.9804 36.14 25.8234 36.2507C25.6664 36.3614 25.5411 36.5744 25.5101 36.7831C25.4396 37.2293 25.7465 37.6586 26.1641 37.7154C26.4587 37.7682 26.7533 37.821 27.0193 37.8657C27.6086 37.9714 28.1692 38.0689 28.7584 38.1745C28.9672 38.2029 29.2015 38.1453 29.3585 38.0346C29.4784 37.9444 29.5697 37.8461 29.6208 37.6741C29.6378 37.6168 29.6549 37.5595 29.6719 37.5022C29.6719 37.5022 29.6719 37.5022 29.6804 37.4735C29.6804 37.4735 29.6889 37.4449 29.6974 37.4162Z" fill="white"/>
<path d="M40.0213 40.168C40.1367 39.3616 39.5832 38.6134 38.8138 38.4875C38.3104 38.4063 37.8162 38.6075 37.5169 38.9885C37.2508 38.9438 37.0135 38.9073 36.7474 38.8626C36.5387 38.8342 36.3043 38.8918 36.1473 39.0025C35.9903 39.1132 35.865 39.3262 35.834 39.5349C35.7635 39.9811 36.0704 40.4104 36.488 40.4672C36.7826 40.52 37.0772 40.5728 37.3432 40.6175C37.9324 40.7232 38.4931 40.8207 39.0823 40.9263C39.2911 40.9547 39.5254 40.8971 39.6824 40.7864C39.8023 40.6962 39.8936 40.5979 39.9447 40.4259C39.9617 40.3686 39.9787 40.3113 39.9958 40.254C39.9958 40.254 39.9958 40.254 40.0043 40.2253C40.0043 40.2253 40.0128 40.1967 40.0213 40.168Z" fill="#FDB032"/>
<path d="M50.1887 39.4476L37.783 39.4269L20.176 39.3978C19.7463 39.4149 19.3306 39.5621 18.9837 39.82C18.6367 40.0779 18.3746 40.4345 18.2318 40.8429L12.2524 60.5407C12.1818 60.7327 12.1659 60.9404 12.2065 61.14C12.2471 61.3397 12.3426 61.5235 12.4823 61.6707C12.7923 61.8697 13.1509 61.9804 13.5201 61.991L43.3302 62.0399C43.7027 62.031 44.066 61.9166 44.3782 61.7097C44.7983 61.4554 45.1159 61.0602 45.2744 60.5948L51.2541 40.897C51.3208 40.7284 51.3439 40.5459 51.3211 40.3666C51.2984 40.1874 51.2306 40.0173 51.124 39.8724C51.0175 39.7275 50.8758 39.6124 50.7122 39.5381C50.5486 39.4638 50.3684 39.4327 50.1887 39.4476Z" fill="#E7C380"/>
<path d="M91.1797 17.0752C85.8209 8.36908 70.9239 3.25916 60.788 8.01711" stroke="#797673" stroke-width="1.03802" stroke-linecap="round" stroke-linejoin="round" stroke-dasharray="3.46 3.46"/>
<path d="M92.7426 21.7782C92.6282 22.1263 92.1893 22.2358 91.9228 21.9827L88.7654 18.9841C88.4793 18.7124 88.6048 18.2333 88.9871 18.1379L93.4994 17.0123C93.8817 16.9169 94.2204 17.2803 94.0976 17.654L92.7426 21.7782Z" fill="#797673"/>
<defs>
<linearGradient id="paint0_linear_217_1445" x1="21.9356" y1="62.9984" x2="25.0623" y2="35.9052" gradientUnits="userSpaceOnUse">
<stop offset="0.002" stop-color="#C68D1C" stop-opacity="0.35"/>
<stop offset="0.031" stop-color="#C88F20"/>
<stop offset="0.2" stop-color="#D09935"/>
<stop offset="0.391" stop-color="#D6A043"/>
<stop offset="0.546875" stop-color="#DAA44B"/>
<stop offset="1" stop-color="#DBA54E"/>
</linearGradient>
<linearGradient id="paint1_linear_217_1445" x1="103.333" y1="31.2871" x2="96.4629" y2="62.9169" gradientUnits="userSpaceOnUse">
<stop stop-color="#0078D3"/>
<stop offset="1" stop-color="#0078D3"/>
</linearGradient>
<radialGradient id="paint2_radial_217_1445" cx="0" cy="0" r="1" gradientUnits="userSpaceOnUse" gradientTransform="translate(42.5 15.4995) rotate(18.1318) scale(10.3995 10.5464)">
<stop stop-color="white"/>
<stop offset="1" stop-color="white" stop-opacity="0"/>
</radialGradient>
</defs>
</svg>
