<svg width="512" height="512" viewBox="0 0 512 512" fill="none" xmlns="http://www.w3.org/2000/svg">
<path d="M42.8091 259.375C42.8091 236.248 61.5573 217.5 84.6844 217.5H427.316C450.443 217.5 469.191 236.248 469.191 259.375C469.191 282.502 450.443 301.251 427.316 301.251H84.6844C61.5573 301.251 42.8091 282.502 42.8091 259.375Z" fill="url(#paint0_linear_7780_8332)"/>
<path d="M42.8091 259.375C42.8091 236.248 61.5573 217.5 84.6844 217.5H427.316C450.443 217.5 469.191 236.248 469.191 259.375C469.191 282.502 450.443 301.251 427.316 301.251H84.6844C61.5573 301.251 42.8091 282.502 42.8091 259.375Z" fill="url(#paint1_radial_7780_8332)"/>
<path d="M42.8091 259.375C42.8091 236.248 61.5573 217.5 84.6844 217.5H427.316C450.443 217.5 469.191 236.248 469.191 259.375C469.191 282.502 450.443 301.251 427.316 301.251H84.6844C61.5573 301.251 42.8091 282.502 42.8091 259.375Z" fill="url(#paint2_radial_7780_8332)"/>
<rect x="155.691" y="97" width="198.455" height="318" rx="30" fill="url(#paint3_linear_7780_8332)"/>
<rect x="155.691" y="97" width="198.455" height="318" rx="30" fill="url(#paint4_radial_7780_8332)"/>
<rect x="155.691" y="97" width="198.455" height="318" rx="30" fill="url(#paint5_radial_7780_8332)" fill-opacity="0.9"/>
<rect x="155.691" y="97" width="198.455" height="318" rx="30" fill="url(#paint6_radial_7780_8332)"/>
<rect x="155.691" y="97" width="198.455" height="318" rx="30" fill="url(#paint7_radial_7780_8332)" fill-opacity="0.9"/>
<rect x="155.691" y="97" width="198.455" height="318" rx="30" fill="url(#paint8_radial_7780_8332)"/>
<rect x="155.691" y="97" width="198.455" height="318" rx="30" fill="url(#paint9_radial_7780_8332)"/>
<path d="M291.271 376.654L218.566 376.627C215.725 376.627 213.422 378.934 213.422 381.781C213.423 384.627 215.726 386.936 218.567 386.936L291.272 386.963C294.113 386.963 296.415 384.656 296.415 381.81C296.415 378.963 294.112 376.655 291.271 376.654Z" fill="url(#paint10_linear_7780_8332)"/>
<path d="M291.271 376.654L218.566 376.627C215.725 376.627 213.422 378.934 213.422 381.781C213.423 384.627 215.726 386.936 218.567 386.936L291.272 386.963C294.113 386.963 296.415 384.656 296.415 381.81C296.415 378.963 294.112 376.655 291.271 376.654Z" fill="url(#paint11_radial_7780_8332)"/>
<path d="M354.146 217.5H155.691V301.251H354.146V217.5Z" fill="url(#paint12_linear_7780_8332)"/>
<path d="M354.146 217.5H155.691V301.251H354.146V217.5Z" fill="url(#paint13_radial_7780_8332)" fill-opacity="0.8"/>
<path d="M354.146 217.5H155.691V301.251H354.146V217.5Z" fill="url(#paint14_radial_7780_8332)"/>
<path d="M354.146 217.5H155.691V301.251H354.146V217.5Z" fill="url(#paint15_radial_7780_8332)" fill-opacity="0.5"/>
<path d="M283.968 293.8C298.436 295.753 311.366 288.446 312.846 277.479C314.326 266.511 303.797 256.038 289.328 254.085C274.859 252.132 261.93 259.44 260.45 270.407C258.969 281.374 269.499 291.848 283.968 293.8Z" fill="url(#paint16_radial_7780_8332)"/>
<rect x="178.613" y="248.553" width="50.813" height="46.3026" rx="5.45814" fill="url(#paint17_linear_7780_8332)"/>
<rect x="178.613" y="248.553" width="50.813" height="46.3026" rx="5.45814" fill="url(#paint18_linear_7780_8332)"/>
<rect x="178.613" y="248.553" width="50.813" height="46.3026" rx="5.45814" fill="url(#paint19_linear_7780_8332)"/>
<rect x="82.3643" y="238.069" width="48.6611" height="22.7372" rx="5.43815" fill="url(#paint20_linear_7780_8332)"/>
<rect x="82.3643" y="238.069" width="48.6611" height="22.7372" rx="5.43815" fill="url(#paint21_linear_7780_8332)"/>
<rect x="82.3643" y="238.069" width="48.6611" height="22.7372" rx="5.43815" fill="url(#paint22_linear_7780_8332)"/>
<g opacity="0.75">
<path d="M81.5128 267.124C81.4362 264.068 83.8924 261.55 86.9492 261.55H129.156C132.159 261.55 134.594 263.985 134.594 266.988V288.667C134.594 291.67 132.159 294.105 129.156 294.105H87.4925C84.5422 294.105 82.13 291.752 82.0561 288.803L81.5128 267.124Z" fill="url(#paint23_linear_7780_8332)"/>
<path d="M81.5128 267.124C81.4362 264.068 83.8924 261.55 86.9492 261.55H129.156C132.159 261.55 134.594 263.985 134.594 266.988V288.667C134.594 291.67 132.159 294.105 129.156 294.105H87.4925C84.5422 294.105 82.13 291.752 82.0561 288.803L81.5128 267.124Z" fill="url(#paint24_radial_7780_8332)"/>
<path d="M81.5128 267.124C81.4362 264.068 83.8924 261.55 86.9492 261.55H129.156C132.159 261.55 134.594 263.985 134.594 266.988V288.667C134.594 291.67 132.159 294.105 129.156 294.105H87.4925C84.5422 294.105 82.13 291.752 82.0561 288.803L81.5128 267.124Z" fill="url(#paint25_linear_7780_8332)"/>
<path d="M81.5128 267.124C81.4362 264.068 83.8924 261.55 86.9492 261.55H129.156C132.159 261.55 134.594 263.985 134.594 266.988V288.667C134.594 291.67 132.159 294.105 129.156 294.105H87.4925C84.5422 294.105 82.13 291.752 82.0561 288.803L81.5128 267.124Z" fill="url(#paint26_linear_7780_8332)"/>
</g>
<circle cx="250.74" cy="285.42" r="1" transform="rotate(-90 250.74 285.42)" fill="#A97DEE"/>
<circle cx="306.49" cy="230.056" r="1" transform="rotate(-90 306.49 230.056)" fill="#A97DEE"/>
<circle cx="182.626" cy="225.056" r="1" transform="rotate(-90 182.626 225.056)" fill="#A97DEE"/>
<circle cx="167.02" cy="274.363" r="1" transform="rotate(-90 167.02 274.363)" fill="#A97DEE"/>
<circle cx="241.02" cy="270.918" r="1" transform="rotate(-90 241.02 270.918)" fill="#A97DEE"/>
<circle cx="159.11" cy="284.42" r="1" transform="rotate(-90 159.11 284.42)" fill="#A97DEE"/>
<circle cx="260.27" cy="291.265" r="1" transform="rotate(-90 260.27 291.265)" fill="#A97DEE"/>
<circle cx="267.275" cy="241.015" r="1" transform="rotate(-90 267.275 241.015)" fill="#A97DEE"/>
<circle cx="341.52" cy="294.765" r="1" transform="rotate(-90 341.52 294.765)" fill="#A97DEE"/>
<circle cx="165.02" cy="288.765" r="1" transform="rotate(-90 165.02 288.765)" fill="#A97DEE"/>
<circle cx="257.77" cy="255.076" r="1.5" transform="rotate(-90 257.77 255.076)" fill="#A97DEE"/>
<circle cx="281.473" cy="234.818" r="1.5" transform="rotate(-90 281.473 234.818)" fill="#A97DEE"/>
<circle cx="330.532" cy="288.765" r="1.5" transform="rotate(-90 330.532 288.765)" fill="#A97DEE"/>
<circle cx="327.532" cy="229.556" r="1.5" transform="rotate(-90 327.532 229.556)" fill="#A97DEE"/>
<circle cx="334.691" cy="253.603" r="1.5" transform="rotate(-90 334.691 253.603)" fill="#A97DEE"/>
<circle cx="255.191" cy="141.569" r="18.9347" fill="url(#paint27_radial_7780_8332)"/>
<circle cx="255.191" cy="141.569" r="18.9347" fill="url(#paint28_radial_7780_8332)" fill-opacity="0.8"/>
<path d="M385.332 283.25C375.738 283.247 367.956 275.469 367.956 265.874C367.956 256.278 375.735 248.498 385.332 248.498C385.629 248.498 385.924 248.505 386.218 248.52C389.912 242.385 396.637 238.282 404.321 238.282C414.324 238.282 422.702 245.237 424.885 254.574C432.705 254.689 439.009 261.064 439.009 268.912C439.009 276.573 433 282.831 425.439 283.23V283.25H385.332Z" fill="url(#paint29_linear_7780_8332)"/>
<path d="M385.332 283.25C375.738 283.247 367.956 275.469 367.956 265.874C367.956 256.278 375.735 248.498 385.332 248.498C385.629 248.498 385.924 248.505 386.218 248.52C389.912 242.385 396.637 238.282 404.321 238.282C414.324 238.282 422.702 245.237 424.885 254.574C432.705 254.689 439.009 261.064 439.009 268.912C439.009 276.573 433 282.831 425.439 283.23V283.25H385.332Z" fill="url(#paint30_radial_7780_8332)"/>
<path d="M385.332 283.25C375.738 283.247 367.956 275.469 367.956 265.874C367.956 256.278 375.735 248.498 385.332 248.498C385.629 248.498 385.924 248.505 386.218 248.52C389.912 242.385 396.637 238.282 404.321 238.282C414.324 238.282 422.702 245.237 424.885 254.574C432.705 254.689 439.009 261.064 439.009 268.912C439.009 276.573 433 282.831 425.439 283.23V283.25H385.332Z" fill="url(#paint31_radial_7780_8332)"/>
<path d="M385.332 283.25C375.738 283.247 367.956 275.469 367.956 265.874C367.956 256.278 375.735 248.498 385.332 248.498C385.629 248.498 385.924 248.505 386.218 248.52C389.912 242.385 396.637 238.282 404.321 238.282C414.324 238.282 422.702 245.237 424.885 254.574C432.705 254.689 439.009 261.064 439.009 268.912C439.009 276.573 433 282.831 425.439 283.23V283.25H385.332Z" fill="url(#paint32_radial_7780_8332)"/>
<path d="M385.332 283.25C375.738 283.247 367.956 275.469 367.956 265.874C367.956 256.278 375.735 248.498 385.332 248.498C385.629 248.498 385.924 248.505 386.218 248.52C389.912 242.385 396.637 238.282 404.321 238.282C414.324 238.282 422.702 245.237 424.885 254.574C432.705 254.689 439.009 261.064 439.009 268.912C439.009 276.573 433 282.831 425.439 283.23V283.25H385.332Z" fill="url(#paint33_radial_7780_8332)"/>
<path d="M385.332 283.25C375.738 283.247 367.956 275.469 367.956 265.874C367.956 256.278 375.735 248.498 385.332 248.498C385.629 248.498 385.924 248.505 386.218 248.52C389.912 242.385 396.637 238.282 404.321 238.282C414.324 238.282 422.702 245.237 424.885 254.574C432.705 254.689 439.009 261.064 439.009 268.912C439.009 276.573 433 282.831 425.439 283.23V283.25H385.332Z" fill="url(#paint34_radial_7780_8332)"/>
<path d="M385.332 283.25C375.738 283.247 367.956 275.469 367.956 265.874C367.956 256.278 375.735 248.498 385.332 248.498C385.629 248.498 385.924 248.505 386.218 248.52C389.912 242.385 396.637 238.282 404.321 238.282C414.324 238.282 422.702 245.237 424.885 254.574C432.705 254.689 439.009 261.064 439.009 268.912C439.009 276.573 433 282.831 425.439 283.23V283.25H385.332Z" fill="url(#paint35_radial_7780_8332)"/>
<path d="M385.332 283.25C375.738 283.247 367.956 275.469 367.956 265.874C367.956 256.278 375.735 248.498 385.332 248.498C385.629 248.498 385.924 248.505 386.218 248.52C389.912 242.385 396.637 238.282 404.321 238.282C414.324 238.282 422.702 245.237 424.885 254.574C432.705 254.689 439.009 261.064 439.009 268.912C439.009 276.573 433 282.831 425.439 283.23V283.25H385.332Z" fill="url(#paint36_radial_7780_8332)"/>
<path d="M385.332 283.25C375.738 283.247 367.956 275.469 367.956 265.874C367.956 256.278 375.735 248.498 385.332 248.498C385.629 248.498 385.924 248.505 386.218 248.52C389.912 242.385 396.637 238.282 404.321 238.282C414.324 238.282 422.702 245.237 424.885 254.574C432.705 254.689 439.009 261.064 439.009 268.912C439.009 276.573 433 282.831 425.439 283.23V283.25H385.332Z" fill="url(#paint37_radial_7780_8332)" fill-opacity="0.6"/>
<path d="M385.332 283.25C375.738 283.247 367.956 275.469 367.956 265.874C367.956 256.278 375.735 248.498 385.332 248.498C385.629 248.498 385.924 248.505 386.218 248.52C389.912 242.385 396.637 238.282 404.321 238.282C414.324 238.282 422.702 245.237 424.885 254.574C432.705 254.689 439.009 261.064 439.009 268.912C439.009 276.573 433 282.831 425.439 283.23V283.25H385.332Z" fill="url(#paint38_linear_7780_8332)"/>
<circle cx="409.884" cy="270.62" r="1.5" fill="#FFE261"/>
<path d="M93.3636 259.44C90.5303 259.44 88.2334 261.737 88.2334 264.571L88.2334 278.309C88.2334 281.142 90.5303 283.439 93.3636 283.439L131.1 283.439C133.933 283.439 136.23 281.142 136.23 278.309V264.571C136.23 261.737 133.933 259.44 131.1 259.44L93.3636 259.44Z" fill="#159DFF"/>
<path d="M93.3636 259.44C90.5303 259.44 88.2334 261.737 88.2334 264.571L88.2334 278.309C88.2334 281.142 90.5303 283.439 93.3636 283.439L131.1 283.439C133.933 283.439 136.23 281.142 136.23 278.309V264.571C136.23 261.737 133.933 259.44 131.1 259.44L93.3636 259.44Z" fill="url(#paint39_radial_7780_8332)" fill-opacity="0.7"/>
<path d="M93.3636 259.44C90.5303 259.44 88.2334 261.737 88.2334 264.571L88.2334 278.309C88.2334 281.142 90.5303 283.439 93.3636 283.439L131.1 283.439C133.933 283.439 136.23 281.142 136.23 278.309V264.571C136.23 261.737 133.933 259.44 131.1 259.44L93.3636 259.44Z" fill="url(#paint40_radial_7780_8332)" fill-opacity="0.5"/>
<path d="M93.3636 259.44C90.5303 259.44 88.2334 261.737 88.2334 264.571L88.2334 278.309C88.2334 281.142 90.5303 283.439 93.3636 283.439L131.1 283.439C133.933 283.439 136.23 281.142 136.23 278.309V264.571C136.23 261.737 133.933 259.44 131.1 259.44L93.3636 259.44Z" fill="url(#paint41_radial_7780_8332)" fill-opacity="0.5"/>
<path d="M93.3636 259.44C90.5303 259.44 88.2334 261.737 88.2334 264.571L88.2334 278.309C88.2334 281.142 90.5303 283.439 93.3636 283.439L131.1 283.439C133.933 283.439 136.23 281.142 136.23 278.309V264.571C136.23 261.737 133.933 259.44 131.1 259.44L93.3636 259.44Z" fill="url(#paint42_radial_7780_8332)" fill-opacity="0.5"/>
<path d="M93.3636 235.443C90.5303 235.443 88.2334 237.74 88.2334 240.574L88.2334 254.311C88.2334 257.145 90.5303 259.442 93.3636 259.442H131.1C133.933 259.442 136.23 257.145 136.23 254.311V240.574C136.23 237.74 133.933 235.443 131.1 235.443L93.3636 235.443Z" fill="#159DFF"/>
<path d="M93.3636 235.443C90.5303 235.443 88.2334 237.74 88.2334 240.574L88.2334 254.311C88.2334 257.145 90.5303 259.442 93.3636 259.442H131.1C133.933 259.442 136.23 257.145 136.23 254.311V240.574C136.23 237.74 133.933 235.443 131.1 235.443L93.3636 235.443Z" fill="url(#paint43_radial_7780_8332)" fill-opacity="0.7"/>
<path d="M93.3636 235.443C90.5303 235.443 88.2334 237.74 88.2334 240.574L88.2334 254.311C88.2334 257.145 90.5303 259.442 93.3636 259.442H131.1C133.933 259.442 136.23 257.145 136.23 254.311V240.574C136.23 237.74 133.933 235.443 131.1 235.443L93.3636 235.443Z" fill="url(#paint44_radial_7780_8332)" fill-opacity="0.8"/>
<path d="M93.3636 235.443C90.5303 235.443 88.2334 237.74 88.2334 240.574L88.2334 254.311C88.2334 257.145 90.5303 259.442 93.3636 259.442H131.1C133.933 259.442 136.23 257.145 136.23 254.311V240.574C136.23 237.74 133.933 235.443 131.1 235.443L93.3636 235.443Z" fill="url(#paint45_radial_7780_8332)" fill-opacity="0.5"/>
<path d="M93.3636 235.443C90.5303 235.443 88.2334 237.74 88.2334 240.574L88.2334 254.311C88.2334 257.145 90.5303 259.442 93.3636 259.442H131.1C133.933 259.442 136.23 257.145 136.23 254.311V240.574C136.23 237.74 133.933 235.443 131.1 235.443L93.3636 235.443Z" fill="url(#paint46_radial_7780_8332)" fill-opacity="0.5"/>
<circle cx="130.744" cy="248.987" r="0.736555" fill="#FEE39E"/>
<circle cx="126.325" cy="240.639" r="0.736555" fill="#FEE39E"/>
<circle cx="126.325" cy="263.227" r="0.736555" fill="#FEE39E"/>
<circle cx="111.348" cy="253.16" r="0.982074" fill="#FEE39E"/>
<circle cx="114.786" cy="276.238" r="0.982074" fill="#FEE39E"/>
<circle cx="130.744" cy="270.591" r="0.736555" fill="#FEE39E"/>
<circle cx="101.282" cy="269.61" r="0.736555" fill="#FEE39E"/>
<circle cx="95.8811" cy="243.681" r="0.736555" fill="#FEE39E"/>
<path d="M195.751 235.354C191.494 235.354 188.042 238.805 188.042 243.062L188.042 275.73C188.042 279.987 191.494 283.438 195.751 283.438H228.419C232.676 283.438 236.127 279.987 236.127 275.73V243.062C236.127 238.805 232.676 235.354 228.419 235.354L195.751 235.354Z" fill="#2BBE7C"/>
<path d="M195.751 235.354C191.494 235.354 188.042 238.805 188.042 243.062L188.042 275.73C188.042 279.987 191.494 283.438 195.751 283.438H228.419C232.676 283.438 236.127 279.987 236.127 275.73V243.062C236.127 238.805 232.676 235.354 228.419 235.354L195.751 235.354Z" fill="#007D44" fill-opacity="0.5"/>
<path d="M195.751 235.354C191.494 235.354 188.042 238.805 188.042 243.062L188.042 275.73C188.042 279.987 191.494 283.438 195.751 283.438H228.419C232.676 283.438 236.127 279.987 236.127 275.73V243.062C236.127 238.805 232.676 235.354 228.419 235.354L195.751 235.354Z" fill="url(#paint47_radial_7780_8332)" fill-opacity="0.5"/>
<path d="M195.751 235.354C191.494 235.354 188.042 238.805 188.042 243.062L188.042 275.73C188.042 279.987 191.494 283.438 195.751 283.438H228.419C232.676 283.438 236.127 279.987 236.127 275.73V243.062C236.127 238.805 232.676 235.354 228.419 235.354L195.751 235.354Z" fill="url(#paint48_radial_7780_8332)" fill-opacity="0.5"/>
<path d="M195.751 235.354C191.494 235.354 188.042 238.805 188.042 243.062L188.042 275.73C188.042 279.987 191.494 283.438 195.751 283.438H228.419C232.676 283.438 236.127 279.987 236.127 275.73V243.062C236.127 238.805 232.676 235.354 228.419 235.354L195.751 235.354Z" fill="url(#paint49_radial_7780_8332)" fill-opacity="0.6"/>
<path d="M195.751 235.354C191.494 235.354 188.042 238.805 188.042 243.062L188.042 275.73C188.042 279.987 191.494 283.438 195.751 283.438H228.419C232.676 283.438 236.127 279.987 236.127 275.73V243.062C236.127 238.805 232.676 235.354 228.419 235.354L195.751 235.354Z" fill="url(#paint50_radial_7780_8332)" fill-opacity="0.5"/>
<path d="M195.751 235.354C191.494 235.354 188.042 238.805 188.042 243.062L188.042 275.73C188.042 279.987 191.494 283.438 195.751 283.438H228.419C232.676 283.438 236.127 279.987 236.127 275.73V243.062C236.127 238.805 232.676 235.354 228.419 235.354L195.751 235.354Z" fill="url(#paint51_radial_7780_8332)" fill-opacity="0.5"/>
<path d="M195.751 235.354C191.494 235.354 188.042 238.805 188.042 243.062L188.042 275.73C188.042 279.987 191.494 283.438 195.751 283.438H228.419C232.676 283.438 236.127 279.987 236.127 275.73V243.062C236.127 238.805 232.676 235.354 228.419 235.354L195.751 235.354Z" fill="url(#paint52_radial_7780_8332)" fill-opacity="0.5"/>
<path d="M195.751 235.354C191.494 235.354 188.042 238.805 188.042 243.062L188.042 275.73C188.042 279.987 191.494 283.438 195.751 283.438H228.419C232.676 283.438 236.127 279.987 236.127 275.73V243.062C236.127 238.805 232.676 235.354 228.419 235.354L195.751 235.354Z" fill="url(#paint53_radial_7780_8332)" fill-opacity="0.5"/>
<path d="M195.751 235.354C191.494 235.354 188.042 238.805 188.042 243.062L188.042 275.73C188.042 279.987 191.494 283.438 195.751 283.438H228.419C232.676 283.438 236.127 279.987 236.127 275.73V243.062C236.127 238.805 232.676 235.354 228.419 235.354L195.751 235.354Z" fill="url(#paint54_radial_7780_8332)" fill-opacity="0.7"/>
<path d="M297.171 284.065C310.77 284.065 321.795 273.041 321.795 259.442C321.795 245.843 310.77 234.818 297.171 234.818C283.572 234.818 272.547 245.843 272.547 259.442C272.547 273.041 283.572 284.065 297.171 284.065Z" fill="url(#paint55_radial_7780_8332)"/>
<path d="M297.171 284.065C310.77 284.065 321.795 273.041 321.795 259.442C321.795 245.843 310.77 234.818 297.171 234.818C283.572 234.818 272.547 245.843 272.547 259.442C272.547 273.041 283.572 284.065 297.171 284.065Z" fill="url(#paint56_radial_7780_8332)" fill-opacity="0.15"/>
<path d="M297.171 284.065C310.77 284.065 321.795 273.041 321.795 259.442C321.795 245.843 310.77 234.818 297.171 234.818C283.572 234.818 272.547 245.843 272.547 259.442C272.547 273.041 283.572 284.065 297.171 284.065Z" fill="url(#paint57_radial_7780_8332)" fill-opacity="0.5"/>
<path d="M297.171 284.065C310.77 284.065 321.795 273.041 321.795 259.442C321.795 245.843 310.77 234.818 297.171 234.818C283.572 234.818 272.547 245.843 272.547 259.442C272.547 273.041 283.572 284.065 297.171 284.065Z" fill="url(#paint58_radial_7780_8332)" fill-opacity="0.5"/>
<defs>
<linearGradient id="paint0_linear_7780_8332" x1="189" y1="148.5" x2="163" y2="396" gradientUnits="userSpaceOnUse">
<stop offset="0.467169" stop-color="#414141"/>
<stop offset="0.577404" stop-color="#415D5F"/>
<stop offset="0.704123" stop-color="#40989E"/>
<stop offset="1" stop-color="#3EF3FF"/>
</linearGradient>
<radialGradient id="paint1_radial_7780_8332" cx="0" cy="0" r="1" gradientUnits="userSpaceOnUse" gradientTransform="translate(256.191 301.5) scale(283 99.8624)">
<stop offset="0.741512" stop-color="#414141" stop-opacity="0"/>
<stop offset="0.891113" stop-color="#2D2D2D"/>
</radialGradient>
<radialGradient id="paint2_radial_7780_8332" cx="0" cy="0" r="1" gradientUnits="userSpaceOnUse" gradientTransform="translate(395.5 277) rotate(-0.507031) scale(56.5022 23.4081)">
<stop offset="0.585356" stop-color="#2D2D2D"/>
<stop offset="0.80612" stop-color="#424242" stop-opacity="0"/>
</radialGradient>
<linearGradient id="paint3_linear_7780_8332" x1="342.119" y1="76.8734" x2="193" y2="582" gradientUnits="userSpaceOnUse">
<stop offset="0.472608" stop-color="#414141"/>
<stop offset="0.577404" stop-color="#415D5F"/>
<stop offset="0.704123" stop-color="#40989E"/>
<stop offset="1" stop-color="#3EF3FF"/>
</linearGradient>
<radialGradient id="paint4_radial_7780_8332" cx="0" cy="0" r="1" gradientUnits="userSpaceOnUse" gradientTransform="translate(249.082 158.045) rotate(114.1) scale(41.9905 26.8473)">
<stop offset="0.621397" stop-color="#2D2D2D"/>
<stop offset="0.934077" stop-color="#424242" stop-opacity="0"/>
</radialGradient>
<radialGradient id="paint5_radial_7780_8332" cx="0" cy="0" r="1" gradientUnits="userSpaceOnUse" gradientTransform="translate(254.919 385.75) rotate(90) scale(10.25 64.4776)">
<stop offset="0.572033" stop-color="#314B4D"/>
<stop offset="1" stop-color="#407E82" stop-opacity="0"/>
</radialGradient>
<radialGradient id="paint6_radial_7780_8332" cx="0" cy="0" r="1" gradientUnits="userSpaceOnUse" gradientTransform="translate(254.919 9.12468) rotate(90) scale(209.103 257.553)">
<stop offset="0.562494" stop-color="#2D2D2D"/>
<stop offset="0.771005" stop-color="#424242" stop-opacity="0"/>
</radialGradient>
<radialGradient id="paint7_radial_7780_8332" cx="0" cy="0" r="1" gradientUnits="userSpaceOnUse" gradientTransform="translate(454.296 212.809) rotate(-178.716) scale(175.725 983.548)">
<stop offset="0.556658" stop-color="#2D2D2D"/>
<stop offset="0.710651" stop-color="#414141" stop-opacity="0"/>
</radialGradient>
<radialGradient id="paint8_radial_7780_8332" cx="0" cy="0" r="1" gradientUnits="userSpaceOnUse" gradientTransform="translate(255.191 300) rotate(0.319194) scale(179.503 42.2024)">
<stop offset="0.459849" stop-color="#2D2D2D"/>
<stop offset="0.80612" stop-color="#424E4F" stop-opacity="0"/>
</radialGradient>
<radialGradient id="paint9_radial_7780_8332" cx="0" cy="0" r="1" gradientUnits="userSpaceOnUse" gradientTransform="translate(254.919 221.5) rotate(179.745) scale(112.42 23.0542)">
<stop offset="0.101347" stop-color="#858585"/>
<stop offset="0.936248" stop-color="#595959" stop-opacity="0"/>
</radialGradient>
<linearGradient id="paint10_linear_7780_8332" x1="250.816" y1="369.99" x2="250.75" y2="388.25" gradientUnits="userSpaceOnUse">
<stop offset="0.396368" stop-color="#939393"/>
<stop offset="0.74" stop-color="#4E4E4E"/>
<stop offset="0.832" stop-color="#363636"/>
<stop offset="0.933" stop-color="#4E4E4E"/>
<stop offset="1" stop-color="#939393"/>
</linearGradient>
<radialGradient id="paint11_radial_7780_8332" cx="0" cy="0" r="1" gradientUnits="userSpaceOnUse" gradientTransform="translate(254.919 376.75) scale(49.5224 11.7648)">
<stop offset="0.752637" stop-color="#363636" stop-opacity="0"/>
<stop offset="1" stop-color="#363636"/>
</radialGradient>
<linearGradient id="paint12_linear_7780_8332" x1="155.598" y1="392.087" x2="258.769" y2="182.834" gradientUnits="userSpaceOnUse">
<stop offset="0.451629" stop-color="#424242"/>
<stop offset="1" stop-color="#00057E"/>
</linearGradient>
<radialGradient id="paint13_radial_7780_8332" cx="0" cy="0" r="1" gradientUnits="userSpaceOnUse" gradientTransform="translate(361.691 259.375) rotate(-89.7058) scale(97.3765 53.0215)">
<stop offset="0.404953" stop-color="#111459"/>
<stop offset="0.915344" stop-color="#1A1D68" stop-opacity="0"/>
</radialGradient>
<radialGradient id="paint14_radial_7780_8332" cx="0" cy="0" r="1" gradientUnits="userSpaceOnUse" gradientTransform="translate(254.919 217.5) rotate(-180) scale(212.631 35.4338)">
<stop offset="0.347471" stop-color="#14153B"/>
<stop offset="0.768539" stop-color="#202263" stop-opacity="0"/>
</radialGradient>
<radialGradient id="paint15_radial_7780_8332" cx="0" cy="0" r="1" gradientUnits="userSpaceOnUse" gradientTransform="translate(252 301.251) scale(97.5 15.1497)">
<stop offset="0.203704" stop-color="#858585"/>
<stop offset="0.936248" stop-color="#312D2C" stop-opacity="0"/>
</radialGradient>
<radialGradient id="paint16_radial_7780_8332" cx="0" cy="0" r="1" gradientUnits="userSpaceOnUse" gradientTransform="translate(286.648 273.943) rotate(97.6867) scale(20.0379 26.4356)">
<stop offset="0.694822" stop-color="#191A34"/>
<stop offset="1" stop-color="#2C2D57" stop-opacity="0"/>
</radialGradient>
<linearGradient id="paint17_linear_7780_8332" x1="178.613" y1="269.459" x2="229.425" y2="270.04" gradientUnits="userSpaceOnUse">
<stop stop-color="#424243" stop-opacity="0"/>
<stop offset="0.114025" stop-color="#2E2E2E"/>
<stop offset="0.892803" stop-color="#2E2E2E"/>
<stop offset="1" stop-color="#37384D" stop-opacity="0"/>
</linearGradient>
<linearGradient id="paint18_linear_7780_8332" x1="204.02" y1="248.553" x2="204.02" y2="263.1" gradientUnits="userSpaceOnUse">
<stop stop-color="#333451"/>
<stop offset="1" stop-color="#333451" stop-opacity="0"/>
</linearGradient>
<linearGradient id="paint19_linear_7780_8332" x1="204.02" y1="294.855" x2="204.02" y2="254.507" gradientUnits="userSpaceOnUse">
<stop offset="0.0347291" stop-color="#404045"/>
<stop offset="0.133348" stop-color="#404045" stop-opacity="0"/>
</linearGradient>
<linearGradient id="paint20_linear_7780_8332" x1="82.3643" y1="248.335" x2="131.006" y2="249.42" gradientUnits="userSpaceOnUse">
<stop stop-color="#404141" stop-opacity="0"/>
<stop offset="0.0700287" stop-color="#2D2D2D"/>
<stop offset="0.892803" stop-color="#2D2D2D"/>
<stop offset="1" stop-color="#414141" stop-opacity="0"/>
</linearGradient>
<linearGradient id="paint21_linear_7780_8332" x1="106.695" y1="238.069" x2="106.695" y2="242.241" gradientUnits="userSpaceOnUse">
<stop stop-color="#303030"/>
<stop offset="1" stop-color="#303030" stop-opacity="0"/>
</linearGradient>
<linearGradient id="paint22_linear_7780_8332" x1="106.695" y1="260.807" x2="106.695" y2="240.993" gradientUnits="userSpaceOnUse">
<stop offset="0.0347291" stop-color="#414546"/>
<stop offset="0.19212" stop-color="#414546" stop-opacity="0"/>
</linearGradient>
<linearGradient id="paint23_linear_7780_8332" x1="81.373" y1="276.249" x2="134.585" y2="277.155" gradientUnits="userSpaceOnUse">
<stop stop-color="#415D5F" stop-opacity="0"/>
<stop offset="0.0849153" stop-color="#2E2E2E"/>
<stop offset="0.892803" stop-color="#2E2E2E"/>
<stop offset="1" stop-color="#415455" stop-opacity="0"/>
</linearGradient>
<radialGradient id="paint24_radial_7780_8332" cx="0" cy="0" r="1" gradientUnits="userSpaceOnUse" gradientTransform="translate(106.1 276.54) rotate(-83.5551) scale(16.7842 45.2893)">
<stop offset="0.724305" stop-color="#417377" stop-opacity="0"/>
<stop offset="0.919324" stop-color="#417073"/>
</radialGradient>
<linearGradient id="paint25_linear_7780_8332" x1="89.6909" y1="261.55" x2="89.4409" y2="283" gradientUnits="userSpaceOnUse">
<stop offset="0.111599" stop-color="#414B4C"/>
<stop offset="0.236878" stop-color="#414B4B" stop-opacity="0"/>
</linearGradient>
<linearGradient id="paint26_linear_7780_8332" x1="132.75" y1="294.105" x2="102.25" y2="270" gradientUnits="userSpaceOnUse">
<stop offset="0.0347291" stop-color="#416466"/>
<stop offset="0.236878" stop-color="#416466" stop-opacity="0"/>
</linearGradient>
<radialGradient id="paint27_radial_7780_8332" cx="0" cy="0" r="1" gradientUnits="userSpaceOnUse" gradientTransform="translate(259.252 133.396) rotate(120.18) scale(38.778)">
<stop offset="0.05" stop-color="#E8CCFF"/>
<stop offset="0.23" stop-color="#C594FF"/>
<stop offset="0.36" stop-color="#AD6CFF"/>
<stop offset="0.51" stop-color="#8E42FF"/>
<stop offset="0.78" stop-color="#E0538F"/>
</radialGradient>
<radialGradient id="paint28_radial_7780_8332" cx="0" cy="0" r="1" gradientUnits="userSpaceOnUse" gradientTransform="translate(255.19 141.585) rotate(97.82) scale(33.6133)">
<stop offset="0.45" stop-color="white" stop-opacity="0"/>
<stop offset="0.84" stop-color="white"/>
</radialGradient>
<linearGradient id="paint29_linear_7780_8332" x1="403.482" y1="238.282" x2="403.482" y2="283.25" gradientUnits="userSpaceOnUse">
<stop offset="0.907678" stop-color="#208CF2"/>
</linearGradient>
<radialGradient id="paint30_radial_7780_8332" cx="0" cy="0" r="1" gradientUnits="userSpaceOnUse" gradientTransform="translate(417.04 272.224) rotate(166.906) scale(48.6729 40.2571)">
<stop offset="0.222279" stop-color="#218CF2" stop-opacity="0"/>
<stop offset="0.421807" stop-color="#77BCFF"/>
<stop offset="0.518133" stop-color="#77BCFF"/>
<stop offset="0.547247" stop-color="#218CF2" stop-opacity="0"/>
</radialGradient>
<radialGradient id="paint31_radial_7780_8332" cx="0" cy="0" r="1" gradientUnits="userSpaceOnUse" gradientTransform="translate(406.665 256.349) rotate(136.332) scale(38.0173 31.7479)">
<stop offset="0.422239" stop-color="#218CF2"/>
<stop offset="0.547247" stop-color="#218CF2" stop-opacity="0"/>
</radialGradient>
<radialGradient id="paint32_radial_7780_8332" cx="0" cy="0" r="1" gradientUnits="userSpaceOnUse" gradientTransform="translate(403.482 254.474) rotate(86.173) scale(32.6979 38.6809)">
<stop offset="0.239682" stop-color="#218CF2" stop-opacity="0"/>
<stop offset="0.475122" stop-color="#77BCFF"/>
<stop offset="0.518133" stop-color="#77BCFF"/>
<stop offset="0.633477" stop-color="#77BCFF" stop-opacity="0"/>
</radialGradient>
<radialGradient id="paint33_radial_7780_8332" cx="0" cy="0" r="1" gradientUnits="userSpaceOnUse" gradientTransform="translate(394.915 270.849) rotate(-162.826) scale(52.0716 43.4846)">
<stop offset="0.483384" stop-color="#218CF2"/>
<stop offset="0.547247" stop-color="#218CF2" stop-opacity="0"/>
</radialGradient>
<radialGradient id="paint34_radial_7780_8332" cx="0" cy="0" r="1" gradientUnits="userSpaceOnUse" gradientTransform="translate(418.04 268.974) rotate(168.503) scale(30.104 20.8963)">
<stop offset="0.42981" stop-color="#218CF2"/>
<stop offset="0.59597" stop-color="#218CF2" stop-opacity="0"/>
</radialGradient>
<radialGradient id="paint35_radial_7780_8332" cx="0" cy="0" r="1" gradientUnits="userSpaceOnUse" gradientTransform="translate(381.665 267.224) rotate(39.629) scale(31.1611 36.8629)">
<stop offset="0.259039" stop-color="#218CF2" stop-opacity="0"/>
<stop offset="0.475122" stop-color="#77BCFF"/>
<stop offset="0.518133" stop-color="#77BCFF"/>
<stop offset="0.633477" stop-color="#77BCFF" stop-opacity="0"/>
</radialGradient>
<radialGradient id="paint36_radial_7780_8332" cx="0" cy="0" r="1" gradientUnits="userSpaceOnUse" gradientTransform="translate(397.415 264.349) rotate(112.834) scale(38.6541 32.4248)">
<stop offset="0.483384" stop-color="#218CF2"/>
<stop offset="0.59597" stop-color="#218CF2" stop-opacity="0"/>
</radialGradient>
<radialGradient id="paint37_radial_7780_8332" cx="0" cy="0" r="1" gradientUnits="userSpaceOnUse" gradientTransform="translate(383.165 272.849) rotate(115.685) scale(76.4266 109.014)">
<stop offset="0.150986" stop-color="#66E3FF"/>
<stop offset="0.352311" stop-color="#218CF2" stop-opacity="0"/>
</radialGradient>
<linearGradient id="paint38_linear_7780_8332" x1="403.482" y1="238.282" x2="403.482" y2="283.25" gradientUnits="userSpaceOnUse">
<stop offset="0.907678" stop-color="#208CF2" stop-opacity="0"/>
<stop offset="0.982731" stop-color="#006CD1"/>
</linearGradient>
<radialGradient id="paint39_radial_7780_8332" cx="0" cy="0" r="1" gradientUnits="userSpaceOnUse" gradientTransform="translate(86.7897 271.415) rotate(-180) scale(18.2105 51.1816)">
<stop offset="0.244971" stop-color="#0069E3"/>
<stop offset="0.866715" stop-color="#3FAEFF" stop-opacity="0"/>
</radialGradient>
<radialGradient id="paint40_radial_7780_8332" cx="0" cy="0" r="1" gradientUnits="userSpaceOnUse" gradientTransform="translate(112.384 284.477) rotate(90) scale(13.3386 217.528)">
<stop stop-color="#207BD9" stop-opacity="0.5"/>
<stop offset="0.267341" stop-color="#0047B2"/>
<stop offset="0.498581" stop-color="#207BD9"/>
<stop offset="0.752741" stop-color="#3FAEFF" stop-opacity="0"/>
</radialGradient>
<radialGradient id="paint41_radial_7780_8332" cx="0" cy="0" r="1" gradientUnits="userSpaceOnUse" gradientTransform="translate(139.061 271.282) scale(13.0821 46.5476)">
<stop stop-color="#F2F1F3"/>
<stop offset="0.659312" stop-color="#D9EEF3" stop-opacity="0"/>
</radialGradient>
<radialGradient id="paint42_radial_7780_8332" cx="0" cy="0" r="1" gradientUnits="userSpaceOnUse" gradientTransform="translate(112.127 261.021) rotate(-89.5782) scale(7.43223 105.778)">
<stop offset="0.0270583" stop-color="#F2F1F3"/>
<stop offset="0.500428" stop-color="#D9EEF3" stop-opacity="0"/>
</radialGradient>
<radialGradient id="paint43_radial_7780_8332" cx="0" cy="0" r="1" gradientUnits="userSpaceOnUse" gradientTransform="translate(86.7897 247.418) rotate(-180) scale(18.2105 51.1813)">
<stop offset="0.244971" stop-color="#0069E3"/>
<stop offset="0.866715" stop-color="#3FAEFF" stop-opacity="0"/>
</radialGradient>
<radialGradient id="paint44_radial_7780_8332" cx="0" cy="0" r="1" gradientUnits="userSpaceOnUse" gradientTransform="translate(112.127 259.597) rotate(90) scale(13.3386 134.053)">
<stop offset="0.285405" stop-color="#0047B2"/>
<stop offset="1" stop-color="#3FAEFF" stop-opacity="0"/>
</radialGradient>
<radialGradient id="paint45_radial_7780_8332" cx="0" cy="0" r="1" gradientUnits="userSpaceOnUse" gradientTransform="translate(139.061 247.284) scale(13.0821 46.5473)">
<stop stop-color="#F2F1F3"/>
<stop offset="0.659312" stop-color="#D9EEF3" stop-opacity="0"/>
</radialGradient>
<radialGradient id="paint46_radial_7780_8332" cx="0" cy="0" r="1" gradientUnits="userSpaceOnUse" gradientTransform="translate(112.127 237.024) rotate(-89.5782) scale(7.43219 105.778)">
<stop offset="0.0270583" stop-color="#F2F1F3"/>
<stop offset="0.500428" stop-color="#D9EEF3" stop-opacity="0"/>
</radialGradient>
<radialGradient id="paint47_radial_7780_8332" cx="0" cy="0" r="1" gradientUnits="userSpaceOnUse" gradientTransform="translate(219.23 285.813) rotate(57.0948) scale(31.2181 8.31327)">
<stop offset="0.297661" stop-color="#8EE779"/>
<stop offset="0.916367" stop-color="#0EC06F" stop-opacity="0"/>
</radialGradient>
<radialGradient id="paint48_radial_7780_8332" cx="0" cy="0" r="1" gradientUnits="userSpaceOnUse" gradientTransform="translate(226.425 278.875) rotate(60.6621) scale(40.3826 18.4927)">
<stop offset="0.297661" stop-color="#8EE779"/>
<stop offset="0.916367" stop-color="#0EC06F" stop-opacity="0"/>
</radialGradient>
<radialGradient id="paint49_radial_7780_8332" cx="0" cy="0" r="1" gradientUnits="userSpaceOnUse" gradientTransform="translate(186.596 259.347) rotate(-180) scale(18.2441 102.551)">
<stop offset="0.220941" stop-color="#007D44"/>
<stop offset="0.866715" stop-color="#0EC06F" stop-opacity="0"/>
</radialGradient>
<radialGradient id="paint50_radial_7780_8332" cx="0" cy="0" r="1" gradientUnits="userSpaceOnUse" gradientTransform="translate(212.035 290.182) rotate(-90) scale(14.3897 740.046)">
<stop offset="0.446914" stop-color="#0EC06F" stop-opacity="0.5"/>
<stop offset="0.618093" stop-color="#026E3D"/>
<stop offset="0.713663" stop-color="#007D44"/>
<stop offset="1" stop-color="#0EC06F" stop-opacity="0"/>
</radialGradient>
<radialGradient id="paint51_radial_7780_8332" cx="0" cy="0" r="1" gradientUnits="userSpaceOnUse" gradientTransform="translate(237.731 277.334) rotate(58.431) scale(25.032 11.0468)">
<stop offset="0.297661" stop-color="#8EE779"/>
<stop offset="0.916367" stop-color="#0EC06F" stop-opacity="0"/>
</radialGradient>
<radialGradient id="paint52_radial_7780_8332" cx="0" cy="0" r="1" gradientUnits="userSpaceOnUse" gradientTransform="translate(190.194 286.07) rotate(55.9807) scale(49.603 16.9356)">
<stop offset="0.38475" stop-color="#8EE779"/>
<stop offset="0.916367" stop-color="#0EC06F" stop-opacity="0"/>
</radialGradient>
<radialGradient id="paint53_radial_7780_8332" cx="0" cy="0" r="1" gradientUnits="userSpaceOnUse" gradientTransform="translate(236.189 259.347) scale(15.6745 111.543)">
<stop offset="0.0270583" stop-color="#F2F1F3"/>
<stop offset="0.500428" stop-color="#D9EEF3" stop-opacity="0"/>
</radialGradient>
<radialGradient id="paint54_radial_7780_8332" cx="0" cy="0" r="1" gradientUnits="userSpaceOnUse" gradientTransform="translate(212.035 236.734) rotate(-90) scale(13.1049 93.2569)">
<stop offset="0.0270583" stop-color="#F2F1F3"/>
<stop offset="0.500428" stop-color="#D9EEF3" stop-opacity="0"/>
</radialGradient>
<radialGradient id="paint55_radial_7780_8332" cx="0" cy="0" r="1" gradientUnits="userSpaceOnUse" gradientTransform="translate(305.183 244.829) rotate(112.38) scale(37.9064 37.9065)">
<stop offset="0.52599" stop-color="#FFA800"/>
<stop offset="1" stop-color="#FF7A00"/>
</radialGradient>
<radialGradient id="paint56_radial_7780_8332" cx="0" cy="0" r="1" gradientUnits="userSpaceOnUse" gradientTransform="translate(297.329 259.391) rotate(90) scale(33.4234 33.4235)">
<stop offset="0.510417" stop-color="white"/>
<stop offset="1" stop-color="#FF9496" stop-opacity="0"/>
</radialGradient>
<radialGradient id="paint57_radial_7780_8332" cx="0" cy="0" r="1" gradientUnits="userSpaceOnUse" gradientTransform="translate(297.329 245.706) rotate(92.745) scale(38.4679 37.1753)">
<stop offset="0.59413" stop-color="#FFB527" stop-opacity="0"/>
<stop offset="0.869323" stop-color="#BC611B"/>
<stop offset="0.925026" stop-color="#BC611B"/>
<stop offset="1" stop-color="#D5C09F"/>
</radialGradient>
<radialGradient id="paint58_radial_7780_8332" cx="0" cy="0" r="1" gradientUnits="userSpaceOnUse" gradientTransform="translate(297.329 262.023) rotate(90) scale(31.0548 31.0549)">
<stop offset="0.59413" stop-color="#FFC852" stop-opacity="0"/>
<stop offset="0.810026" stop-color="#F2F1F3"/>
<stop offset="0.925026" stop-color="#F2F1F3"/>
<stop offset="1" stop-color="#C35B24"/>
</radialGradient>
</defs>
</svg>
