<svg width="18" height="18" viewBox="0 0 18 18" fill="none" xmlns="http://www.w3.org/2000/svg">
<path fill-rule="evenodd" clip-rule="evenodd" d="M13.998 13.3517C12.6147 15.0806 10.4877 16.1885 8.10188 16.1905H3.37112C2.8504 16.1895 2.4286 15.767 2.4286 15.2461V16.1905L2.42859 16.1905V14.3016H2.4286C2.4286 11.172 4.96564 8.635 8.09523 8.635V8.39889H13.998V13.3517Z" fill="url(#paint0_radial_1982_20837)"/>
<path fill-rule="evenodd" clip-rule="evenodd" d="M13.998 13.3517C12.6147 15.0806 10.4877 16.1885 8.10188 16.1905H3.37112C2.8504 16.1895 2.4286 15.767 2.4286 15.2461V16.1905L2.42859 16.1905V14.3016H2.4286C2.4286 11.172 4.96564 8.635 8.09523 8.635V8.39889H13.998V13.3517Z" fill="url(#paint1_radial_1982_20837)" fill-opacity="0.5"/>
<path fill-rule="evenodd" clip-rule="evenodd" d="M8.09523 1.07951C12.2655 1.07951 15.6466 4.45808 15.6507 8.62734V8.64269C15.6489 10.5252 14.9585 12.2465 13.8179 13.5684C13.9348 13.2042 13.998 12.8158 13.998 12.4128C13.998 10.3264 12.3066 8.63502 10.2202 8.63502H8.09191C4.96384 8.63322 2.4286 6.09687 2.4286 2.96838H2.42859V2.02394C2.42859 1.50235 2.85143 1.07951 3.37303 1.07951H8.09523Z" fill="url(#paint2_radial_1982_20837)"/>
<path fill-rule="evenodd" clip-rule="evenodd" d="M8.09523 1.07951C12.2655 1.07951 15.6466 4.45808 15.6507 8.62734V8.64269C15.6489 10.5252 14.9585 12.2465 13.8179 13.5684C13.9348 13.2042 13.998 12.8158 13.998 12.4128C13.998 10.3264 12.3066 8.63502 10.2202 8.63502H8.09191C4.96384 8.63322 2.4286 6.09687 2.4286 2.96838H2.42859V2.02394C2.42859 1.50235 2.85143 1.07951 3.37303 1.07951H8.09523Z" fill="url(#paint3_radial_1982_20837)" fill-opacity="0.5"/>
<defs>
<radialGradient id="paint0_radial_1982_20837" cx="0" cy="0" r="1" gradientUnits="userSpaceOnUse" gradientTransform="translate(2.42859 16.7417) rotate(-39.1737) scale(12.3349 15.1234)">
<stop offset="0.0450736" stop-color="#AD7DFF"/>
<stop offset="0.327929" stop-color="#6864F6"/>
<stop offset="0.570992" stop-color="#5750E2"/>
<stop offset="0.809105" stop-color="#3E36B1"/>
<stop offset="1" stop-color="#261D82"/>
</radialGradient>
<radialGradient id="paint1_radial_1982_20837" cx="0" cy="0" r="1" gradientUnits="userSpaceOnUse" gradientTransform="translate(15.0691 15.9155) rotate(-160.304) scale(14.2228 14.2228)">
<stop offset="0.706304" stop-color="#AC80FF" stop-opacity="0"/>
<stop offset="0.921093" stop-color="#BD96FF"/>
</radialGradient>
<radialGradient id="paint2_radial_1982_20837" cx="0" cy="0" r="1" gradientUnits="userSpaceOnUse" gradientTransform="translate(2.42859 1.54436) rotate(38.7797) scale(16.961 14.0813)">
<stop stop-color="#FFC470"/>
<stop offset="0.251092" stop-color="#FF835C"/>
<stop offset="0.584326" stop-color="#F24A9D"/>
<stop offset="0.871234" stop-color="#B339F0"/>
<stop offset="1" stop-color="#C354FF"/>
</radialGradient>
<radialGradient id="paint3_radial_1982_20837" cx="0" cy="0" r="1" gradientUnits="userSpaceOnUse" gradientTransform="translate(7.85296 12.1274) rotate(-144.562) scale(13.234 12.6552)">
<stop offset="0.708817" stop-color="#FFB357" stop-opacity="0"/>
<stop offset="0.941624" stop-color="#FFB357"/>
</radialGradient>
</defs>
</svg>
