<svg width="235" height="216" viewBox="0 0 235 216" fill="none" xmlns="http://www.w3.org/2000/svg">
<g clip-path="url(#clip0_2245_3796)">
<path d="M202.433 91.9804L145.185 149.725C144.418 150.498 143.868 151.459 143.592 152.512C143.315 153.565 143.321 154.672 143.61 155.722C143.898 156.772 144.459 157.727 145.235 158.491C146.011 159.255 146.974 159.8 148.029 160.072L226.63 180.928C227.691 181.199 228.805 181.19 229.861 180.9C230.917 180.61 231.88 180.05 232.654 179.274C233.427 178.499 233.986 177.536 234.274 176.479C234.562 175.422 234.569 174.308 234.295 173.248L212.941 94.809C212.656 93.7442 212.095 92.7732 211.316 91.9933C210.537 91.2134 209.567 90.6521 208.502 90.3655C207.438 90.079 206.317 90.0774 205.251 90.3608C204.186 90.6442 203.214 91.2028 202.433 91.9804V91.9804Z" fill="url(#paint0_linear_2245_3796)"/>
<path d="M35.8912 26.5739L1.84473 100.499C1.41668 101.488 1.24935 102.57 1.35872 103.642C1.46809 104.714 1.85051 105.74 2.46945 106.622C3.08839 107.504 3.92317 108.213 4.89405 108.68C5.86492 109.148 6.93946 109.358 8.01501 109.292L88.9468 101.774C90.046 101.683 91.1013 101.302 92.0043 100.668C92.9073 100.035 93.6254 99.1725 94.085 98.1699C94.5445 97.1672 94.7289 96.0604 94.6193 94.9629C94.5096 93.8654 94.1098 92.8169 93.4609 91.925L46.5609 25.5187C45.9367 24.622 45.0845 23.908 44.0923 23.4505C43.1001 22.993 42.0038 22.8085 40.9165 22.916C39.8292 23.0236 38.7902 23.4193 37.9069 24.0623C37.0235 24.7053 36.3277 25.5723 35.8912 26.5739V26.5739Z" fill="#797673"/>
<path d="M100.629 36.9154L2.34461 182.596C1.02313 184.562 0.24177 186.841 0.0788655 189.204C-0.0840387 191.568 0.377241 193.932 1.41646 196.061C2.45567 198.19 4.0363 200.008 5.99986 201.334C7.96342 202.659 10.2409 203.445 12.604 203.613L187.981 215.968C190.338 216.124 192.695 215.659 194.816 214.618C196.937 213.577 198.747 211.997 200.065 210.036C201.383 208.075 202.162 205.803 202.326 203.446C202.489 201.089 202.03 198.731 200.995 196.607L123.83 38.5862C122.802 36.4642 121.233 34.6503 119.282 33.3272C117.33 32.004 115.064 31.2182 112.712 31.0488C110.361 30.8795 108.006 31.3325 105.885 32.3624C103.763 33.3922 101.951 34.9626 100.629 36.9154V36.9154Z" fill="url(#paint1_radial_2245_3796)"/>
<path d="M103.973 155.396C102.205 155.257 100.563 154.424 99.4063 153.078C98.2501 151.733 97.6737 149.984 97.803 148.214L102.596 79.9761C102.634 79.0794 102.852 78.1995 103.237 77.3887C103.622 76.5778 104.166 75.8527 104.837 75.2562C105.507 74.6598 106.291 74.2042 107.141 73.9166C107.992 73.629 108.891 73.5152 109.786 73.5821C110.681 73.6489 111.554 73.8949 112.352 74.3055C113.15 74.7162 113.857 75.283 114.432 75.9725C115.007 76.6619 115.437 77.4598 115.697 78.3187C115.958 79.1777 116.043 80.0803 115.947 80.9728L111.111 149.226C110.943 150.975 110.108 152.592 108.779 153.741C107.449 154.89 105.728 155.483 103.973 155.396Z" fill="black"/>
<path d="M102.973 178.757C104.461 178.76 105.917 178.321 107.155 177.496C108.394 176.671 109.36 175.497 109.931 174.122C110.502 172.748 110.652 171.235 110.362 169.775C110.073 168.315 109.356 166.974 108.304 165.922C107.252 164.869 105.91 164.153 104.451 163.863C102.991 163.574 101.478 163.724 100.103 164.295C98.7289 164.866 97.5548 165.832 96.7298 167.07C95.9047 168.309 95.4659 169.765 95.4688 171.253C95.4688 172.238 95.6629 173.214 96.04 174.124C96.4171 175.035 96.9698 175.862 97.6666 176.559C98.3634 177.256 99.1907 177.808 100.101 178.186C101.012 178.563 101.987 178.757 102.973 178.757Z" fill="black"/>
<path d="M27.3788 72.9591C26.5358 73.2026 25.6525 73.2747 24.7811 73.1711C23.9097 73.0674 23.068 72.7902 22.3056 72.3557C21.5432 71.9212 20.8756 71.3383 20.3423 70.6415C19.809 69.9446 19.4208 69.1479 19.2007 68.2985L5.52638 20.0656C5.28395 19.2177 5.21483 18.3296 5.32315 17.4544C5.43146 16.5791 5.71499 15.7347 6.15682 14.9714C6.59864 14.2082 7.1897 13.5417 7.89473 13.0119C8.59976 12.4821 9.4043 12.0997 10.2603 11.8876C11.1044 11.6464 11.9881 11.5765 12.8596 11.682C13.731 11.7875 14.5726 12.0663 15.3346 12.5019C16.0967 12.9376 16.7639 13.5213 17.297 14.2187C17.83 14.9161 18.2182 15.7132 18.4385 16.5629L32.1275 64.7957C32.5398 66.5061 32.2762 68.3096 31.3916 69.8304C30.5069 71.3512 29.0695 72.472 27.3788 72.9591Z" fill="#28C2D1"/>
<path d="M31.7169 95.8222C33.201 95.8222 34.6519 95.3821 35.8859 94.5576C37.1199 93.733 38.0817 92.5611 38.6497 91.1899C39.2176 89.8188 39.3662 88.31 39.0767 86.8544C38.7872 85.3988 38.0725 84.0617 37.023 83.0123C35.9736 81.9629 34.6365 81.2482 33.1808 80.9586C31.7252 80.6691 30.2164 80.8177 28.8452 81.3857C27.4741 81.9536 26.3021 82.9154 25.4775 84.1494C24.653 85.3834 24.2129 86.8342 24.2129 88.3183C24.2129 89.3037 24.407 90.2795 24.7841 91.1899C25.1612 92.1003 25.7139 92.9276 26.4108 93.6244C27.1076 94.3212 27.9348 94.8739 28.8452 95.251C29.7557 95.6281 30.7314 95.8222 31.7169 95.8222V95.8222Z" fill="#28C2D1"/>
<path d="M210.113 131.202C208.419 130.68 206.996 129.514 206.152 127.954C205.308 126.395 205.11 124.567 205.599 122.863L219.947 74.9668C220.509 73.3253 221.684 71.9648 223.226 71.1706C224.768 70.3763 226.558 70.2101 228.22 70.7067C229.883 71.2032 231.288 72.3241 232.142 73.8342C232.996 75.3443 233.232 77.1263 232.801 78.8067L218.277 126.864C218.047 127.698 217.649 128.477 217.108 129.152C216.567 129.827 215.893 130.385 215.129 130.791C214.365 131.197 213.526 131.443 212.663 131.514C211.801 131.584 210.933 131.478 210.113 131.202Z" fill="#B3AFAB"/>
<path d="M205.439 154.064C206.926 154.064 208.381 153.623 209.617 152.796C210.854 151.969 211.818 150.794 212.386 149.42C212.955 148.045 213.103 146.533 212.812 145.074C212.52 143.615 211.803 142.275 210.75 141.224C209.697 140.173 208.356 139.458 206.896 139.17C205.437 138.882 203.925 139.033 202.551 139.604C201.178 140.175 200.004 141.141 199.18 142.379C198.356 143.618 197.917 145.073 197.92 146.561C197.92 147.547 198.115 148.524 198.493 149.436C198.871 150.347 199.425 151.175 200.123 151.872C200.821 152.569 201.65 153.121 202.562 153.497C203.475 153.874 204.452 154.066 205.439 154.064V154.064Z" fill="#B3AFAB"/>
<path d="M27.3788 72.9591C26.5358 73.2026 25.6525 73.2747 24.7811 73.1711C23.9097 73.0674 23.068 72.7902 22.3056 72.3557C21.5432 71.9212 20.8756 71.3383 20.3423 70.6415C19.809 69.9446 19.4208 69.1479 19.2007 68.2985L5.52638 20.0656C5.28395 19.2177 5.21483 18.3296 5.32315 17.4544C5.43146 16.5791 5.71499 15.7347 6.15682 14.9714C6.59864 14.2082 7.1897 13.5417 7.89473 13.0119C8.59976 12.4821 9.4043 12.0997 10.2603 11.8876C11.1044 11.6464 11.9881 11.5765 12.8596 11.682C13.731 11.7875 14.5726 12.0663 15.3346 12.5019C16.0967 12.9376 16.7639 13.5213 17.297 14.2187C17.83 14.9161 18.2182 15.7132 18.4385 16.5629L32.1275 64.7957C32.5398 66.5061 32.2762 68.3096 31.3916 69.8304C30.5069 71.3512 29.0695 72.472 27.3788 72.9591Z" fill="#C6C6C6"/>
<path d="M31.7169 95.8222C33.201 95.8222 34.6519 95.3821 35.8859 94.5576C37.1199 93.733 38.0817 92.5611 38.6497 91.1899C39.2176 89.8188 39.3662 88.31 39.0767 86.8544C38.7872 85.3988 38.0725 84.0617 37.023 83.0123C35.9736 81.9629 34.6365 81.2482 33.1808 80.9586C31.7252 80.6691 30.2164 80.8177 28.8452 81.3857C27.4741 81.9536 26.3021 82.9154 25.4775 84.1494C24.653 85.3834 24.2129 86.8342 24.2129 88.3183C24.2129 89.3037 24.407 90.2795 24.7841 91.1899C25.1612 92.1003 25.7139 92.9276 26.4108 93.6244C27.1076 94.3212 27.9348 94.8739 28.8452 95.251C29.7557 95.6281 30.7314 95.8222 31.7169 95.8222V95.8222Z" fill="#C6C6C6"/>
<path d="M128.843 19.0679C128.365 19.851 128.17 20.7739 128.29 21.6831C128.41 22.5923 128.838 23.4331 129.502 24.0656C129.678 24.2414 130 24.5785 130.337 24.5785C130.787 24.8552 131.287 25.0398 131.808 25.1217C132.33 25.2037 132.862 25.1813 133.375 25.0559C133.887 24.9304 134.37 24.7045 134.794 24.3911C135.219 24.0777 135.577 23.6831 135.848 23.2302L141.022 14.5538C141.519 13.5779 141.693 12.4695 141.52 11.3881C141.346 10.5303 140.873 9.76197 140.186 9.21904C140.011 9.05783 139.849 9.05783 139.688 8.88195C139.239 8.60663 138.74 8.42271 138.22 8.34073C137.699 8.25876 137.168 8.28035 136.656 8.40426C136.144 8.52818 135.661 8.75198 135.236 9.06283C134.811 9.37367 134.451 9.76544 134.177 10.2156L128.843 19.0679Z" fill="#C4C4C4"/>
<path d="M144.689 37.6511C144.913 38.0736 145.194 38.4632 145.525 38.8089C146.137 39.393 146.917 39.7718 147.755 39.8927C148.593 40.0135 149.447 39.8703 150.2 39.4831L158.876 35.0863C159.351 34.8499 159.774 34.5205 160.119 34.1177C160.463 33.7149 160.724 33.2468 160.884 32.7413C161.238 31.7031 161.175 30.5683 160.709 29.5756C160.18 28.6634 159.359 27.9561 158.378 27.5678C157.34 27.2143 156.205 27.2774 155.212 27.7436L146.536 32.1404C146.062 32.3738 145.639 32.7004 145.294 33.1009C144.949 33.5013 144.689 33.9672 144.528 34.4707C144.158 35.5103 144.216 36.6543 144.689 37.6511V37.6511Z" fill="#C4C4C4"/>
<path d="M108.457 15.388C108.603 16.267 109.006 17.0831 109.615 17.7329C110.22 18.3501 111.006 18.7575 111.859 18.8956C112.711 19.0337 113.586 18.8953 114.354 18.5005C115.122 18.1056 115.744 17.4753 116.128 16.7016C116.513 15.9279 116.639 15.0515 116.489 14.2008L115.023 3.51661C114.868 2.48136 114.348 1.53552 113.558 0.849219C113.116 0.500166 112.607 0.245861 112.062 0.102139C111.517 -0.041583 110.949 -0.0716436 110.392 0.0138284C109.31 0.173497 108.334 0.754458 107.678 1.63016C107.022 2.50585 106.738 3.60533 106.889 4.68909L108.457 15.388Z" fill="#C4C4C4"/>
</g>
<defs>
<linearGradient id="paint0_linear_2245_3796" x1="160.119" y1="163.307" x2="233.984" y2="124.372" gradientUnits="userSpaceOnUse">
<stop stop-color="#6A6A6A"/>
<stop offset="1" stop-color="#8F8F8F"/>
</linearGradient>
<radialGradient id="paint1_radial_2245_3796" cx="0" cy="0" r="1" gradientUnits="userSpaceOnUse" gradientTransform="translate(-2.25691 216.818) scale(113.469 103.597)">
<stop offset="0.00065331" stop-color="#3E8EED"/>
<stop offset="1" stop-color="#72ACF1"/>
</radialGradient>
<clipPath id="clip0_2245_3796">
<rect width="234.5" height="216" fill="white"/>
</clipPath>
</defs>
</svg>
