<svg viewBox="0 0 32 32" fill="none" xmlns="http://www.w3.org/2000/svg">
<g clip-path="url(#clip0_2496_2092)">
<path d="M29.7069 2.29265C29.3164 1.90212 28.6832 1.90212 28.2927 2.29265L18.9517 11.6336C16.047 9.42814 11.9376 9.75976 9.30504 12.3803L7.93681 13.6573L2.58599 16.0894C2.2874 16.2251 2.07434 16.4986 2.01582 16.8213C1.95729 17.144 2.06074 17.4749 2.29266 17.7069L14.2927 29.7069C14.5246 29.9388 14.8555 30.0422 15.1782 29.9837C15.5009 29.9252 15.7744 29.7121 15.9101 29.4135L18.3349 24.0789L19.7066 22.7071C22.3565 20.0572 22.5766 15.9405 20.3668 13.0469L29.7069 3.70686C30.0974 3.31634 30.0974 2.68317 29.7069 2.29265ZM8.28243 15.6971L16.3024 23.7171L14.6865 27.2723L4.72725 17.313L8.28243 15.6971ZM17.4995 22.0858L9.93854 14.5248L10.6818 13.8311L10.7066 13.8071C12.8361 11.6776 16.2039 11.6186 18.2924 13.7071C20.4013 15.8159 20.4013 19.1841 18.2924 21.2929L17.4995 22.0858Z" fill="#949FAE"/>
</g>
<defs>
<clipPath id="clip0_2496_2092">
<rect width="32" height="32" fill="white"/>
</clipPath>
</defs>
</svg>
