<svg width="298" height="120" viewBox="0 0 298 120" fill="none" xmlns="http://www.w3.org/2000/svg">
<rect width="298" height="120" fill="white"/>
<path d="M74.79 81.0233C74.79 81.0273 74.7874 81.0309 74.7836 81.0321C59.4857 85.9115 44.2348 90.7533 29.031 95.5574C28.1974 95.8208 27.2877 95.5133 26.7973 94.7896C16.7195 79.9186 10.5036 62.4918 8.9233 43.8951C8.8445 42.9678 9.42986 42.1165 10.3194 41.8431C23.6792 37.7374 37.0971 33.615 50.5656 29.4759C51.7495 29.1121 52.9751 29.9016 53.1619 31.126C55.9837 49.6255 63.4663 66.7301 74.788 81.0175C74.7893 81.0191 74.79 81.0212 74.79 81.0233V81.0233Z" fill="black" fill-opacity="0.09"/>
<path d="M74.79 79.03C59.02 84.06 43.3 89.05 27.63 94C16.77 78.45 10.19 60.01 8.80005 40.31C23.41 35.82 38.0901 31.31 52.8301 26.78C55.3601 46.18 62.99 64.13 74.79 79.02V79.03Z" fill="#C9EAF5"/>
<path d="M21.76 53.9301C20.77 54.2401 19.78 54.5401 18.79 54.8401C18.27 55.0001 17.76 54.7201 17.64 54.2201C17.42 53.2501 17.21 52.2801 17.01 51.3101C16.91 50.8001 17.24 50.2601 17.76 50.1001C18.74 49.8001 19.73 49.5001 20.71 49.1901C21.22 49.0301 21.72 49.3201 21.83 49.8301C22.03 50.8001 22.25 51.7701 22.48 52.7301C22.6 53.2301 22.28 53.7701 21.76 53.9301Z" fill="white"/>
<path d="M24.47 63.1801C23.47 63.4901 22.47 63.8001 21.46 64.1101C20.94 64.2701 20.38 64.0101 20.22 63.5201C19.91 62.5901 19.62 61.6501 19.34 60.7001C19.2 60.2101 19.5 59.6801 20.02 59.5201C21.02 59.2101 22.01 58.9101 23.01 58.6001C23.53 58.4401 24.07 58.7101 24.22 59.2001C24.51 60.1401 24.81 61.0801 25.12 62.0101C25.28 62.5001 25 63.0201 24.47 63.1801Z" fill="white"/>
<path d="M27.9801 72.0801C26.9701 72.3901 25.9501 72.71 24.9401 73.02C24.4101 73.18 23.8101 72.9401 23.6101 72.4701C23.2201 71.5701 22.8501 70.6701 22.4901 69.7601C22.3001 69.2901 22.5801 68.7701 23.1001 68.6101C24.1101 68.3001 25.1201 67.99 26.1201 67.67C26.6501 67.51 27.2301 67.7601 27.4201 68.2301C27.7901 69.1401 28.1701 70.0401 28.5601 70.9301C28.7701 71.4001 28.5101 71.9101 27.9801 72.0701V72.0801Z" fill="white"/>
<path d="M32.26 80.59C31.24 80.91 30.21 81.23 29.19 81.55C28.65 81.72 28.02 81.49 27.78 81.05C27.32 80.19 26.86 79.33 26.42 78.46C26.19 78.01 26.44 77.5 26.97 77.34C27.99 77.02 29.01 76.71 30.03 76.39C30.57 76.22 31.18 76.46 31.41 76.91C31.86 77.78 32.31 78.64 32.78 79.49C33.03 79.93 32.79 80.43 32.26 80.6V80.59Z" fill="white"/>
<path d="M46.03 44.93C39.76 46.86 33.51 48.78 27.26 50.7C26.74 50.86 26.23 50.58 26.11 50.08C26 49.58 26.32 49.04 26.84 48.88C33.07 46.97 39.31 45.05 45.56 43.13C46.08 42.97 46.6 43.25 46.73 43.75C46.86 44.25 46.55 44.78 46.03 44.94V44.93Z" fill="white"/>
<path d="M48.9101 54.1001C42.5701 56.0601 36.2401 58.0101 29.9201 59.9601C29.4001 60.1201 28.8401 59.8601 28.6801 59.3701C28.5201 58.8801 28.8201 58.3501 29.3401 58.1901C35.6501 56.2501 41.9601 54.3001 48.2901 52.3501C48.8101 52.1901 49.3801 52.4501 49.5401 52.9301C49.7101 53.4101 49.4301 53.9301 48.9001 54.0901L48.9101 54.1001Z" fill="white"/>
<path d="M52.59 62.93C46.18 64.92 39.77 66.91 33.38 68.89C32.85 69.05 32.26 68.81 32.05 68.34C31.85 67.87 32.12 67.36 32.65 67.19C39.03 65.21 45.42 63.23 51.82 61.25C52.35 61.09 52.95 61.33 53.16 61.79C53.37 62.25 53.12 62.76 52.59 62.92V62.93Z" fill="white"/>
<path d="M57.02 71.35C50.54 73.38 44.06 75.41 37.6 77.43C37.06 77.6 36.43 77.37 36.19 76.93C35.95 76.48 36.19 75.98 36.72 75.82C43.17 73.81 49.63 71.79 56.1 69.77C56.63 69.6 57.28 69.83 57.53 70.27C57.79 70.71 57.56 71.2 57.02 71.37V71.35Z" fill="white"/>
<path d="M80.02 39.94C79.46 37.49 78.96 35.04 78.52 32.61C70.28 35.59 62.14 38.58 54.09 41.58C51.9 42.4 49.73 43.21 47.55 44.03C46.66 44.37 46.11 45.32 46.34 46.17C46.5 46.75 46.66 47.33 46.82 47.92C51.27 63.6 58.28 79.5 67.85 94.98C68.37 95.82 69.42 96.22 70.19 95.89C81.06 91.21 92.17 86.49 103.5 81.75C104.3 81.41 104.61 80.45 104.18 79.61C97.12 65.57 92.11 51.36 89.16 37.45C86.45 38.45 83.76 39.44 81.07 40.44C80.59 40.62 80.12 40.4 80.01 39.95L80.02 39.94Z" fill="black" fill-opacity="0.09"/>
<path d="M80.02 37.94C79.46 35.49 78.96 33.04 78.52 30.61C70.28 33.59 62.14 36.58 54.09 39.58C51.9 40.4 49.73 41.21 47.55 42.03C46.66 42.37 46.11 43.32 46.34 44.17C46.5 44.75 46.66 45.33 46.82 45.92C51.27 61.6 58.28 77.5 67.85 92.98C68.37 93.82 69.42 94.22 70.19 93.89C81.06 89.21 92.17 84.49 103.5 79.75C104.3 79.41 104.61 78.45 104.18 77.61C97.12 63.57 92.11 49.36 89.16 35.45C86.45 36.45 83.76 37.44 81.07 38.44C80.59 38.62 80.12 38.4 80.01 37.95L80.02 37.94Z" fill="#F8F8F8"/>
<path d="M65.27 55.45C63.13 56.29 60.99 57.13 58.87 57.97C57.86 58.37 56.74 57.88 56.38 56.87C55.63 54.76 54.92 52.66 54.26 50.56C53.94 49.56 54.54 48.42 55.58 48.02C57.76 47.18 59.96 46.34 62.16 45.51C63.21 45.11 64.28 45.6 64.57 46.6C65.17 48.7 65.83 50.8 66.52 52.9C66.85 53.9 66.3 55.04 65.29 55.44L65.27 55.45Z" fill="#3985C6"/>
<path d="M91.84 57.24C81.29 61.47 70.93 65.71 60.75 69.95C60.97 70.44 61.19 70.93 61.42 71.42C71.55 67.19 81.87 62.95 92.38 58.72C92.2 58.23 92.02 57.74 91.84 57.24Z" fill="#3985C6"/>
<path d="M89.95 51.67C79.24 55.9 68.72 60.14 58.38 64.37C58.58 64.86 58.78 65.35 58.99 65.85C69.29 61.61 79.77 57.38 90.43 53.15C90.27 52.66 90.11 52.17 89.95 51.68V51.67Z" fill="#3985C6"/>
<path d="M93.9701 62.89C83.5701 67.08 73.3501 71.27 63.3101 75.44C63.5501 75.93 63.7901 76.42 64.0301 76.91C74.0301 72.74 84.2001 68.55 94.5601 64.36C94.3601 63.87 94.1601 63.38 93.9701 62.88V62.89Z" fill="#3985C6"/>
<path d="M96.02 68.88C85.81 73.11 75.79 77.34 65.95 81.55C66.21 82.04 66.47 82.53 66.73 83.02C76.52 78.82 86.5 74.59 96.67 70.36C96.45 69.87 96.23 69.38 96.02 68.88Z" fill="#3985C6"/>
<path d="M70.26 53.29C75.7 51.11 81.19 48.93 86.73 46.75C86.59 46.26 86.45 45.77 86.32 45.28C80.76 47.45 75.25 49.63 69.78 51.82C69.94 52.31 70.1 52.8 70.26 53.29Z" fill="#3985C6"/>
<path opacity="0.8" d="M78.52 30.61C78.96 33.04 79.45 35.49 80.02 37.94C80.12 38.39 80.6 38.61 81.08 38.43C83.77 37.43 86.46 36.44 89.17 35.44C85.59 33.83 82.04 32.22 78.52 30.61Z" fill="#3985C6"/>
<path d="M230.23 80.65C244.36 85.1 258.38 89.54 272.29 93.98C274.38 94.65 276.81 93.44 277.68 91.28C283.64 76.56 288.37 61.76 291.87 47.02C292.39 44.86 290.97 42.57 288.75 41.9C273.97 37.46 259.08 33.03 244.08 28.61C241.82 27.95 239.71 29.15 239.33 31.3C236.7 45.97 232.85 60.77 227.77 75.53C227.03 77.7 228.12 79.99 230.24 80.66L230.23 80.65Z" fill="black" fill-opacity="0.09"/>
<path d="M229.23 78.65C243.36 83.1 257.38 87.54 271.29 91.98C273.38 92.65 275.81 91.44 276.68 89.28C282.64 74.56 287.37 59.76 290.87 45.02C291.39 42.86 289.97 40.57 287.75 39.9C272.97 35.46 258.08 31.03 243.08 26.61C240.82 25.95 238.71 27.15 238.33 29.3C235.7 43.97 231.85 58.77 226.77 73.53C226.03 75.7 227.12 77.99 229.24 78.66L229.23 78.65Z" fill="#F1F1F1"/>
<path d="M232 74.5901C245.64 78.8901 259.17 83.1801 272.59 87.4701C278.27 72.9601 282.75 58.3701 286.04 43.8501C271.91 39.5601 257.67 35.2701 243.33 31.0001C240.75 45.4701 236.97 60.0501 232 74.5901Z" fill="#F7B547"/>
<path d="M258.747 83.0566C261.078 77.8849 263.259 72.7037 265.29 67.5198C262.84 70.5098 260.33 73.4898 257.78 76.4798L252.86 76.9598C252.575 78.2752 252.279 79.5905 251.974 80.9056C254.235 81.6228 256.492 82.3397 258.747 83.0566Z" fill="#FFD590"/>
<path d="M268.86 57.24C271.39 58.02 273.92 58.81 276.45 59.59C276.45 59.56 276.47 59.52 276.48 59.49C276.69 58.74 276.33 57.97 275.68 57.76C273.54 57.1 271.4 56.44 269.26 55.77C269.13 56.26 268.99 56.74 268.86 57.23V57.24Z" fill="#FFD590"/>
<path d="M267.95 45.6C269.16 45.97 270.37 46.34 271.57 46.71C270.16 52.65 268.54 58.61 266.73 64.56C260.69 65.2 254.65 65.83 248.61 66.47C249.68 63.04 250.69 59.6 251.62 56.17C253.79 48.18 260.9 43.48 267.94 45.62L267.95 45.6Z" fill="#FFD590"/>
<path d="M257.154 82.5503C260.555 76.5459 263.75 70.5295 266.74 64.51L253.48 61.72C245.09 59.12 236.2 64.84 232.91 74.5C232.871 74.6133 232.832 74.7267 232.793 74.8401C240.953 77.4129 249.073 79.9823 257.154 82.5503Z" fill="url(#paint0_radial_2206_164347)"/>
<path d="M273.47 55.53C273.42 55.7 273.38 55.87 273.33 56.04C273.23 56.41 273.11 56.74 272.97 57.11C272.87 57.34 272.78 57.57 272.65 57.79C271.73 59.58 270.26 60.9 268.59 61.53C268.45 61.6 268.3 61.63 268.13 61.68C267.7 61.81 267.29 61.9 266.86 61.95C266.3 62 265.72 62 265.17 61.91C264.92 61.87 264.66 61.79 264.42 61.72C264.27 61.67 264.13 61.63 263.98 61.58C262.77 61.2 261.74 60.47 260.95 59.53C260.33 58.78 259.84 57.89 259.53 56.91C259.01 55.31 258.91 53.51 259.36 51.75C259.4 51.58 259.45 51.41 259.49 51.24C259.8 50.02 260.33 48.93 261.02 48.05C261.66 47.26 262.41 46.58 263.25 46.11C263.76 45.83 264.33 45.6 264.91 45.49C265.01 45.49 265.08 45.43 265.18 45.43C265.48 45.38 265.78 45.36 266.07 45.34C266.75 45.33 267.44 45.39 268.13 45.6C268.28 45.65 268.43 45.69 268.58 45.74C270.02 46.18 271.22 47.09 272.09 48.27C272.31 48.56 272.5 48.83 272.65 49.13C273.05 49.84 273.34 50.62 273.49 51.4C273.49 51.4 273.51 51.44 273.5 51.48C273.52 51.63 273.55 51.79 273.58 51.91C273.66 52.48 273.69 53.08 273.67 53.66C273.67 53.77 273.67 53.92 273.64 54.02C273.64 54.17 273.62 54.34 273.58 54.48C273.61 54.86 273.55 55.21 273.45 55.55L273.47 55.53Z" fill="#FFD590"/>
<path d="M265.04 49.27C263.55 48.81 262.05 48.36 260.56 47.9C260.47 47.87 260.43 47.79 260.45 47.68C260.68 46.73 260.91 45.78 261.12 44.83C261.79 41.91 264.36 40.2 266.96 40.99C267.05 41.02 267.1 41.1 267.07 41.21C266.49 43.86 265.88 46.5 265.22 49.15C265.19 49.25 265.12 49.3 265.03 49.27H265.04Z" fill="#FFD590"/>
<path d="M271.99 51.4001C270.5 50.9401 269.01 50.4901 267.52 50.0301C267.43 50.0001 267.39 49.9201 267.41 49.8101C267.65 48.8601 267.88 47.9101 268.11 46.9601C268.81 44.0401 271.39 42.3301 273.98 43.1101C274.07 43.1401 274.11 43.2201 274.09 43.3301C273.49 45.9801 272.86 48.6301 272.18 51.2801C272.18 51.3901 272.08 51.4301 271.99 51.4001Z" fill="#FFD590"/>
<path d="M257.523 82.6677C260.802 76.6242 263.874 70.5687 266.74 64.51C266.51 64.4399 266.28 64.3674 266.05 64.2949C265.82 64.2224 265.59 64.1499 265.36 64.08C266.1 61.65 266.8 59.23 267.47 56.8C265.99 56.34 264.51 55.88 263.03 55.43C260.57 54.67 257.98 56.34 257.18 59.16C256.38 61.98 257.65 64.88 260.08 65.63C260.37 65.72 260.52 66.07 260.42 66.41C258.81 71.5784 257.048 76.7469 255.134 81.9087C255.931 82.1617 256.727 82.4147 257.523 82.6677Z" fill="#FAF9F8"/>
<path d="M267.65 53.3701C267.96 53.4701 268.11 53.9701 267.96 54.5001C267.82 55.0301 267.45 55.3701 267.14 55.2801C266.83 55.1801 266.69 54.6801 266.83 54.1501C266.97 53.6201 267.33 53.2801 267.65 53.3701Z" fill="#5A463A"/>
<path d="M272.14 54.7501C272.45 54.8501 272.59 55.3501 272.45 55.8801C272.31 56.4101 271.94 56.7501 271.63 56.6601C271.32 56.5601 271.18 56.0601 271.33 55.5301C271.47 55.0001 271.83 54.6601 272.15 54.7501H272.14Z" fill="#5A463A"/>
<path d="M255.072 81.8891C256.288 78.6652 257.444 75.4384 258.54 72.2099C257.63 71.2499 256.71 70.2799 255.79 69.3199C254.97 69.3999 254.153 69.4799 253.335 69.5599C252.518 69.6399 251.7 69.7199 250.88 69.7999C250.14 73.1345 249.34 76.4674 248.477 79.797C250.678 80.4945 252.877 81.1919 255.072 81.8891Z" fill="#FFD590"/>
<path d="M268.41 65.0401C267.85 64.8701 267.3 64.6901 266.74 64.5201C264.68 63.8801 262.61 63.2301 260.55 62.5901C261.27 60.1601 261.96 57.7401 262.61 55.3101C267.23 56.7401 271.85 58.1601 276.45 59.5901C276.4 59.7501 276.36 59.9101 276.31 60.0701C275.22 63.8501 271.66 66.0601 268.41 65.0401Z" fill="#FAF9F8"/>
<path d="M267.88 52.63C267.47 52.51 267.07 52.38 266.66 52.25C266.13 52.09 265.81 51.44 265.97 50.83C265.98 50.77 266 50.72 266.01 50.66C266.17 50.05 266.74 49.68 267.28 49.84C267.69 49.96 268.1 50.09 268.5 50.21C269.03 50.37 269.36 51.02 269.2 51.63C269.19 51.69 269.17 51.74 269.16 51.8C269 52.41 268.45 52.79 267.89 52.62L267.88 52.63Z" fill="#FAF9F8"/>
<path d="M276.24 60.3C276.24 60.3 276.16 60.28 276.12 60.26C275.15 59.96 274.62 58.79 274.93 57.67C274.94 57.62 274.95 57.58 274.97 57.53C275.3 57.63 275.64 57.74 275.97 57.84C276.47 58 276.73 58.56 276.57 59.13C276.46 59.52 276.35 59.9 276.24 60.29V60.3Z" fill="#5A463A"/>
<path d="M256.52 66.7301C259.18 67.5601 261.84 68.4001 264.49 69.2301C265.25 67.6601 266 66.09 266.74 64.52C263.84 63.61 260.93 62.71 258.02 61.8C257.54 63.44 257.04 65.0901 256.52 66.7301Z" fill="url(#paint1_radial_2206_164347)"/>
<path d="M268.41 65.0401C267.85 64.8701 267.3 64.6901 266.74 64.5201C264.68 63.8801 262.61 63.2301 260.55 62.5901C261 61.0901 261.43 59.6001 261.85 58.1001C266.46 59.5301 271.06 60.9601 275.64 62.3801C275.64 62.3801 271.68 66.0601 268.42 65.0401H268.41Z" fill="url(#paint2_radial_2206_164347)"/>
<path d="M273.549 51.7744C273.559 51.823 273.57 51.8689 273.58 51.9101C273.66 52.4801 273.69 53.0801 273.67 53.6601C273.67 53.7701 273.67 53.9202 273.64 54.0201C273.64 54.1394 273.627 54.2713 273.602 54.3907C273.601 54.3905 273.601 54.3903 273.6 54.3901C273.398 54.3276 273.195 54.2651 272.99 54.2001C272.45 54.0401 272.15 53.3901 272.3 52.7801C272.32 52.7201 272.33 52.6701 272.34 52.6101C272.494 52.0228 273.028 51.658 273.549 51.7744Z" fill="#FAF9F8"/>
<path d="M270.55 62.73C272.99 63.49 274.5 63.26 274.5 63.26C274.81 62.87 275.11 62.48 275.41 62.1C271.84 61 268.26 59.9 264.68 58.8C264.68 58.8 265.6 61.2401 270.55 62.7401V62.73Z" fill="#F1F1F1"/>
<path d="M237.82 95.45C221.8 92.83 205.71 90.21 189.56 87.57C187.52 87.24 186.42 85.27 187.05 83.17C192.16 66.19 194.47 48.92 193.99 32.04C193.93 29.95 195.6 28.54 197.77 28.87C214.92 31.49 232.01 34.12 249.03 36.76C251.18 37.09 252.93 39.06 252.86 41.16C252.34 58.16 249.02 75.43 242.91 92.28C242.15 94.36 239.85 95.78 237.83 95.44L237.82 95.45Z" fill="black" fill-opacity="0.09"/>
<path d="M236.82 93.45C220.8 90.83 204.71 88.21 188.56 85.57C186.52 85.24 185.42 83.27 186.05 81.17C191.16 64.19 193.47 46.92 192.99 30.04C192.93 27.95 194.6 26.54 196.77 26.87C213.92 29.49 231.01 32.12 248.03 34.76C250.18 35.09 251.93 37.06 251.86 39.16C251.34 56.16 248.02 73.43 241.91 90.28C241.15 92.36 238.85 93.78 236.83 93.44L236.82 93.45Z" fill="#F1F1F1"/>
<path d="M237.47 88.82C221.38 86.19 205.23 83.56 189 80.92C193.97 64.35 196.29 47.49 195.94 31C213.01 33.63 230.02 36.27 246.95 38.91C246.45 55.5 243.29 72.35 237.46 88.82H237.47Z" fill="#FFD590"/>
<path d="M216.76 79.17C216.22 79.11 215.68 79.06 215.14 79C210.41 78.59 221.48 79.65 216.76 79.17Z" fill="#DFBA95"/>
<path d="M221.76 36.11C226.08 36.54 229.75 40.33 229.71 44.6C229.68 48.87 225.99 51.98 221.72 51.55C217.44 51.12 214.17 47.3 214.15 43.03C214.14 38.77 217.43 35.68 221.76 36.11Z" fill="#5A463A"/>
<path opacity="0.15" d="M221.76 36.11C226.08 36.54 229.75 40.33 229.71 44.6C229.68 48.87 225.99 51.98 221.72 51.55C217.44 51.12 214.17 47.3 214.15 43.03C214.14 38.77 217.43 35.68 221.76 36.11Z" fill="url(#paint3_linear_2206_164347)"/>
<path d="M220.48 44.9601C228.95 45.8101 235.77 53.3301 234.76 61.7801C233.77 70.2201 225.48 76.3401 217.21 75.4901C208.91 74.6401 203.61 67.1201 204.4 58.6801C205.22 50.2401 211.99 44.1101 220.48 44.9601Z" fill="#5A463A"/>
<path d="M214.25 66.51C216.9 66.78 219.55 67.05 222.2 67.32C221.31 73.16 220.09 78.99 218.55 84.78C215.93 84.51 213.31 84.24 210.69 83.97C212.2 78.18 213.39 72.34 214.25 66.5V66.51Z" fill="#DFBA95"/>
<path d="M223.55 73.66C223.44 73.99 223.33 74.32 223.21 74.65C222.92 74.77 222.64 74.88 222.35 75C221.42 75.34 220.69 76.07 220.48 77.07C220.41 77.38 220.35 77.69 220.28 78C220.06 79 220.58 79.86 221.44 80.16C221.66 80.23 221.89 80.3 222.11 80.37C221.94 81.08 221.77 81.79 221.59 82.51C217.63 82.1 213.68 81.7 209.72 81.29C209.91 80.53 210.08 79.77 210.26 79.01C211.28 78.97 212.18 78.19 212.39 77.19C212.47 76.83 212.54 76.48 212.62 76.12C212.83 75.12 212.49 74.28 211.73 73.77C211.5 73.6 211.27 73.43 211.04 73.26C211.1 72.83 211.16 72.4 211.21 71.96C215.33 72.53 219.45 73.1 223.57 73.67L223.55 73.66Z" fill="url(#paint4_radial_2206_164347)"/>
<path d="M219.95 52.2401C226.44 52.9001 231.42 58.7001 230.5 65.2001C229.59 71.7001 223.23 76.4101 216.86 75.7501C210.47 75.1001 206.39 69.3101 207.18 62.8101C207.98 56.3101 213.44 51.5801 219.95 52.2401Z" fill="#DFBA95"/>
<path d="M210.97 69.07C209.36 68.18 208.41 66.34 208.67 64.34C209.02 61.71 211.36 59.78 213.98 60.05C216.6 60.32 218.51 62.68 218.13 65.31C217.76 67.94 215.27 69.87 212.67 69.6C212.04 69.54 211.47 69.35 210.96 69.07H210.97ZM215.21 61.55C214.81 61.33 214.35 61.19 213.87 61.14C211.85 60.93 210.03 62.42 209.76 64.45C209.49 66.48 210.86 68.3 212.86 68.51C213.84 68.61 214.81 68.32 215.61 67.7C216.4 67.07 216.92 66.19 217.06 65.21C217.27 63.67 216.49 62.24 215.21 61.56V61.55Z" fill="#9B653E"/>
<path d="M221.1 70.91C219.5 70.02 218.57 68.18 218.86 66.18C219.24 63.55 221.61 61.62 224.22 61.89C225.49 62.02 226.62 62.64 227.4 63.63C228.18 64.62 228.51 65.87 228.31 67.15C228.12 68.43 227.42 69.57 226.38 70.38C225.33 71.19 224.06 71.56 222.8 71.43C222.17 71.37 221.6 71.18 221.09 70.9L221.1 70.91ZM225.43 63.39C225.02 63.17 224.57 63.03 224.09 62.98C223.12 62.88 222.15 63.17 221.37 63.8C220.59 64.43 220.09 65.31 219.94 66.3C219.79 67.28 220.03 68.25 220.6 69.01C221.18 69.78 222.02 70.25 222.99 70.35C223.96 70.45 224.94 70.16 225.74 69.54C226.54 68.92 227.07 68.03 227.22 67.05C227.37 66.07 227.12 65.1 226.52 64.34C226.22 63.95 225.84 63.63 225.42 63.41L225.43 63.39Z" fill="#9B653E"/>
<path d="M217.59 64.86C217.68 64.5 217.77 64.14 217.86 63.78C218.49 63.92 219.12 64.05 219.75 64.19C219.66 64.55 219.57 64.91 219.48 65.27C218.85 65.13 218.22 65 217.59 64.86Z" fill="#9B653E"/>
<path d="M204.53 58.04C206.67 59.78 209.28 60.92 212.2 61.22C220.29 62.05 227.74 56.11 227.99 47.95C227.99 47.88 227.99 47.81 227.99 47.74C225.8 46.23 223.21 45.25 220.48 44.97C212.25 44.21 205.64 49.98 204.53 58.05V58.04Z" fill="#5A463A"/>
<path d="M226.36 46.77C225.46 48.54 224.88 50.57 224.75 52.79C224.39 59.1 227.62 64.89 232.82 67.61C233.88 65.9 234.51 63.93 234.76 61.85C235.52 55.46 231.87 49.62 226.37 46.77H226.36Z" fill="#5A463A"/>
<path d="M215.61 70.1501C215.85 70.3901 216.06 70.4901 216.24 70.6501C216.44 70.7401 216.64 70.8401 216.91 70.9401C217.11 71.0301 217.39 71.0601 217.61 71.0801C217.82 71.1001 218.1 71.1301 218.4 71.0801C218.42 71.0801 218.45 71.0801 218.47 71.0801C218.62 71.0201 218.74 71.1801 218.79 71.3301C218.78 71.4001 218.78 71.4001 218.76 71.4701C218.61 71.8901 218.12 72.2101 217.66 72.3801C217.19 72.5501 216.77 72.5101 216.29 72.3801C215.88 72.2601 215.5 72.0101 215.28 71.6201C214.99 71.2301 214.92 70.7801 215.07 70.3601C215.09 70.2201 215.26 70.0901 215.39 70.1701C215.503 70.0834 215.58 70.0667 215.62 70.1201L215.61 70.1501Z" fill="#BF8F68"/>
<path d="M224.39 67.55C224.27 67.39 224.09 67.16 223.89 67.06C223.69 66.97 223.56 66.88 223.34 66.86C223.13 66.84 222.91 66.82 222.7 66.79C222.4 66.83 222.11 66.88 221.75 66.91C221.73 66.91 221.7 66.91 221.68 66.91C221.54 66.9 221.46 66.89 221.42 66.74C221.42 66.72 221.42 66.69 221.43 66.67C221.56 66.25 221.83 65.91 222.22 65.66C222.61 65.41 223.13 65.32 223.56 65.36C224.06 65.41 224.53 65.68 224.83 66.07C225.13 66.46 225.21 66.91 225.22 67.35C225.19 67.57 225.01 67.76 224.72 67.81C224.58 67.8 224.5 67.79 224.39 67.63C224.39 67.61 224.39 67.58 224.4 67.56L224.39 67.55Z" fill="#3B322F"/>
<path d="M211.41 64.69C211.61 64.27 211.94 63.94 212.41 63.7C212.86 63.53 213.44 63.51 213.86 63.63C214.35 63.75 214.74 64.08 214.9 64.46C215.14 64.85 215.22 65.29 215.09 65.72C215.07 65.86 214.92 65.92 214.85 65.91C214.83 65.91 214.8 65.91 214.78 65.91C214.76 65.91 214.73 65.91 214.71 65.91C214.46 65.67 214.19 65.49 213.92 65.39C213.73 65.22 213.51 65.2 213.31 65.11C213.11 65.02 212.96 65 212.74 65.05C212.52 65.03 212.3 65.15 212.06 65.27C212.01 65.29 211.96 65.31 211.91 65.33C211.68 65.45 211.41 65.28 211.37 65.06C211.32 64.91 211.34 64.77 211.42 64.7L211.41 64.69Z" fill="#3B322F"/>
<path d="M227.697 87.2238C219.11 85.8221 210.505 84.4199 201.878 83.0155C203.955 81.9778 205.807 81.1787 207.32 80.81C209.01 80.41 210.04 78.45 210.45 77.44C210.58 77.1 210.96 76.89 211.3 76.96H211.31C213.469 77.3715 215.624 77.7865 217.776 78.2009C219.232 78.4813 220.687 78.7615 222.14 79.04C222.5 79.11 222.71 79.45 222.61 79.81C222.38 80.71 222.2 82.33 223.65 83.36C226.402 85.3401 227.563 86.541 227.697 87.2238Z" fill="#8C8CC4"/>
<path d="M204 97L93 97L93 29.42C93 26.98 94.98 25 97.42 25L199.58 25C202.02 25 204 26.98 204 29.42V97Z" fill="#1A66B1"/>
<path d="M96 87L201 87V32L96 32V87Z" fill="white"/>
<path d="M86 93H211V93.3C211 95.89 208.89 98 206.3 98H90.7C88.11 98 86 95.89 86 93.3V93Z" fill="#2F8DCD"/>
<path d="M144.01 54.27L152.4 59.39L157.44 57.32C158.44 56.9 159.53 56.67 160.68 56.68C160.87 56.68 161.05 56.69 161.23 56.71C159.89 51.27 155.01 47.22 149.15 47.17C144.77 47.13 140.89 49.34 138.62 52.73C138.66 52.73 138.71 52.73 138.75 52.73C140.69 52.75 142.49 53.31 144.01 54.27Z" fill="#1A66B1"/>
<path d="M144.01 54.26C142.49 53.3 140.68 52.73 138.75 52.72C138.71 52.72 138.66 52.72 138.62 52.72C133.13 52.74 128.67 57.17 128.62 62.67C128.6 64.8 129.25 66.79 130.37 68.43L137.83 65.37L141.15 64.01L148.54 60.98L152.4 59.4L144.01 54.27V54.26Z" fill="#3276BC"/>
<path d="M161.23 56.71C161.05 56.7 160.86 56.69 160.68 56.68C159.53 56.67 158.44 56.9 157.44 57.32L152.4 59.39L153.85 60.28L158.6 63.18L160.67 64.45L167.76 68.78C168.39 67.63 168.76 66.32 168.77 64.92C168.81 60.6 165.48 57.04 161.24 56.71H161.23Z" fill="#2F8DCD"/>
<path d="M160.67 64.45L158.6 63.18L153.85 60.28L152.4 59.39L148.54 60.97L141.15 64L137.83 65.36L130.37 68.42C132.16 71.04 135.16 72.76 138.57 72.8L160.53 73C163.63 73.03 166.35 71.32 167.75 68.78L160.66 64.45H160.67Z" fill="#39A6DE"/>
<defs>
<radialGradient id="paint0_radial_2206_164347" cx="0" cy="0" r="1" gradientUnits="userSpaceOnUse" gradientTransform="translate(241.923 84.5905) rotate(17.28) scale(15.4112 17.92)">
<stop stop-color="#F7B547"/>
<stop offset="1" stop-color="#FFD590"/>
</radialGradient>
<radialGradient id="paint1_radial_2206_164347" cx="0" cy="0" r="1" gradientUnits="userSpaceOnUse" gradientTransform="translate(246.637 51.1518) rotate(-162.14) scale(5.1342 4.3581)">
<stop stop-color="#DFBA95"/>
<stop offset="1" stop-color="#FAF9F8" stop-opacity="0"/>
</radialGradient>
<radialGradient id="paint2_radial_2206_164347" cx="0" cy="0" r="1" gradientUnits="userSpaceOnUse" gradientTransform="translate(298.588 50.7999) rotate(17.28) scale(5.27181 6.13)">
<stop stop-color="#DFBA95"/>
<stop offset="1" stop-color="#BF8F68" stop-opacity="0"/>
</radialGradient>
<linearGradient id="paint3_linear_2206_164347" x1="223.642" y1="34.4719" x2="219.597" y2="56.0459" gradientUnits="userSpaceOnUse">
<stop stop-color="white" stop-opacity="0"/>
<stop offset="0.26" stop-color="#A6A4A4" stop-opacity="0.38"/>
<stop offset="0.56" stop-color="#494647" stop-opacity="0.81"/>
<stop offset="0.69" stop-color="#231F20"/>
</linearGradient>
<radialGradient id="paint4_radial_2206_164347" cx="0" cy="0" r="1" gradientUnits="userSpaceOnUse" gradientTransform="translate(216.605 70.757) rotate(5.79) scale(7.64 7.64)">
<stop stop-color="#9B653E"/>
<stop offset="0.33" stop-color="#B6865F"/>
<stop offset="0.77" stop-color="#D5AC87"/>
<stop offset="1" stop-color="#DFBA95"/>
</radialGradient>
</defs>
</svg>
