<svg width="50" height="48" viewBox="0 0 50 48" fill="none" xmlns="http://www.w3.org/2000/svg">
<path d="M27.0522 33.405H21.0904C19.8796 33.405 18.8834 34.365 18.8988 35.55V41.385C18.8988 42.57 19.8796 43.53 21.0904 43.53H21.4707C21.9803 44.4163 22.9505 45.015 24.0637 45.015C25.1768 45.015 26.147 44.4163 26.6566 43.53H27.0522C28.263 43.53 29.2439 42.57 29.2439 41.385V35.55C29.2439 34.365 28.263 33.405 27.0522 33.405Z" fill="#9B9B9B"/>
<path d="M27.8339 34.695C28.2017 34.695 28.4929 34.425 28.5235 34.08C28.6308 32.79 29.1979 29.655 32.2938 26.295C35.1904 24.06 37.1062 20.67 37.336 16.83C37.3667 16.47 37.382 16.23 37.382 16.08V16.065V16.05C37.382 15.975 37.382 15.93 37.382 15.93C37.2901 8.76 31.3589 3 24.0483 3C16.7378 3 10.8066 8.76 10.73 15.9C10.73 15.9 10.7146 16.26 10.7759 16.86C11.0212 20.67 12.9216 24.045 15.8182 26.28C18.9141 29.655 19.5271 32.79 19.6344 34.08C19.6651 34.425 19.9563 34.695 20.3241 34.695H27.8339Z" fill="#FCD53F"/>
<path d="M24.0636 16.05C26.5464 16.05 28.5695 18.015 28.6001 20.445V20.565C28.6001 20.61 28.6001 20.67 28.5848 20.76C28.5082 22.02 27.8798 23.205 26.8683 23.985L26.761 24.06L26.6691 24.1501C24.9832 25.9801 24.6307 30.6301 24.5694 33.1801H23.5732C23.4966 30.6301 23.1287 25.9801 21.4429 24.1501L21.3509 24.06L21.2436 23.985C20.2321 23.205 19.6037 22.035 19.5271 20.73C19.5271 20.67 19.5118 20.625 19.5118 20.595V20.4601C19.5578 18.03 21.5961 16.05 24.0636 16.05ZM24.0636 14.55C20.7379 14.55 18.0251 17.175 17.9945 20.43C17.9945 20.43 17.9945 20.595 18.0098 20.865C18.1171 22.605 18.9907 24.1351 20.3087 25.1551C22.1479 27.1651 22.0559 34.695 22.0559 34.695H26.102C26.102 34.695 25.9794 27.165 27.8338 25.17C29.1519 24.15 30.0255 22.605 30.1328 20.85C30.1481 20.685 30.1481 20.58 30.1481 20.505C30.1481 20.475 30.1481 20.445 30.1481 20.445C30.1021 17.175 27.4047 14.55 24.0636 14.55Z" fill="#FFB02E"/>
<path d="M29.3761 37.5787C29.7929 37.5073 30.0717 37.1186 29.9987 36.7106C29.9257 36.3026 29.5286 36.0298 29.1118 36.1012L18.782 37.8712C18.3651 37.9426 18.0863 38.3313 18.1593 38.7393C18.2323 39.1473 18.6294 39.4202 19.0463 39.3487L29.3761 37.5787ZM29.3 40.8037C29.7168 40.7319 29.9953 40.343 29.922 39.935C29.8486 39.5271 29.4513 39.2546 29.0345 39.3263L18.8426 41.0813C18.4258 41.1531 18.1473 41.542 18.2207 41.95C18.294 42.3579 18.6914 42.6304 19.1082 42.5587L29.3 40.8037Z" fill="#D3D3D3"/>
<path d="M21.1364 8.16008C19.4352 11.0401 20.2935 14.6401 23.0522 16.1851C25.8108 17.7301 29.4125 16.6651 31.1137 13.7851C32.8149 10.9051 31.9566 7.30508 29.1979 5.76008C26.4392 4.21508 22.8376 5.28008 21.1364 8.16008Z" fill="#FFF478"/>
</svg>
