<svg viewBox="0 0 32 32" fill="none" xmlns="http://www.w3.org/2000/svg">
<g clip-path="url(#clip0_2496_2096)">
<path fill-rule="evenodd" clip-rule="evenodd" d="M6.37396 4.687C6.49253 4.44985 6.73492 4.30005 7.00006 4.30005H25.0001C25.2652 4.30005 25.5076 4.44985 25.6262 4.687L29.6262 12.687C29.7491 12.9329 29.7167 13.2281 29.5433 13.4415L16.5433 29.4415C16.4104 29.6051 16.2108 29.7001 16.0001 29.7001C15.7893 29.7001 15.5897 29.6051 15.4568 29.4415L2.45678 13.4415C2.28339 13.2281 2.25099 12.9329 2.37396 12.687L6.37396 4.687ZM4.34976 11.8659C4.30326 11.9589 4.30823 12.0693 4.36289 12.1578C4.41756 12.2462 4.51412 12.3 4.61809 12.3H10.2195C10.3571 12.3 10.4771 12.2064 10.5105 12.0728L12.0105 6.07281C12.0329 5.98319 12.0128 5.88824 11.9559 5.81542C11.8991 5.74261 11.8119 5.70005 11.7195 5.70005H7.61809C7.50446 5.70005 7.40058 5.76425 7.34976 5.86588L4.34976 11.8659ZM5.10103 13.7C4.98529 13.7 4.87988 13.7666 4.83014 13.8711C4.78041 13.9756 4.79521 14.0994 4.86819 14.1892L13.2597 24.5173C13.3505 24.629 13.5077 24.6605 13.6345 24.5924C13.7612 24.5244 13.8218 24.376 13.7789 24.2386L10.5514 13.9106C10.5123 13.7853 10.3963 13.7 10.2651 13.7H5.10103ZM12.3604 13.7C12.265 13.7 12.1753 13.7455 12.1187 13.8223C12.0622 13.8992 12.0456 13.9984 12.0741 14.0895L15.7138 25.7364C15.7529 25.8617 15.8689 25.9469 16.0001 25.9469C16.1313 25.9469 16.2473 25.8617 16.2864 25.7364L19.9261 14.0895C19.9546 13.9984 19.938 13.8992 19.8815 13.8223C19.8249 13.7455 19.7352 13.7 19.6397 13.7H12.3604ZM21.7351 13.7C21.6039 13.7 21.4879 13.7853 21.4488 13.9106L18.2213 24.2385C18.1784 24.3758 18.239 24.5242 18.3658 24.5923C18.4926 24.6603 18.6498 24.6288 18.7405 24.5171L27.1319 14.1892C27.2049 14.0994 27.2197 13.9756 27.17 13.8711C27.1202 13.7666 27.0148 13.7 26.8991 13.7H21.7351ZM27.382 12.3C27.486 12.3 27.5826 12.2462 27.6372 12.1578C27.6919 12.0693 27.6968 11.9589 27.6504 11.8659L24.6504 5.86588C24.5995 5.76425 24.4957 5.70005 24.382 5.70005H20.2807C20.1883 5.70005 20.1011 5.74261 20.0442 5.81543C19.9874 5.88824 19.9673 5.98319 19.9897 6.07281L21.4897 12.0728C21.5231 12.2064 21.643 12.3 21.7807 12.3H27.382ZM19.7192 12.3C19.8115 12.3 19.8988 12.2575 19.9556 12.1847C20.0125 12.1119 20.0326 12.0169 20.0102 11.9273L18.5102 5.92729C18.4768 5.79374 18.3568 5.70005 18.2192 5.70005H13.781C13.6434 5.70005 13.5234 5.79374 13.49 5.92729L11.99 11.9273C11.9676 12.0169 11.9877 12.1119 12.0446 12.1847C12.1014 12.2575 12.1887 12.3 12.281 12.3H19.7192Z" fill="#2899F5"/>
</g>
<defs>
<clipPath id="clip0_2496_2096">
<rect width="32" height="32" fill="white"/>
</clipPath>
</defs>
</svg>
