<svg viewBox="0 0 16 16" fill="none" xmlns="http://www.w3.org/2000/svg">
<path d="M6.69113 10.016C7.46097 10.6318 8.43748 11 9.5 11C11.9853 11 14 8.98531 14 6.50002C14 4.01473 11.9853 2 9.5 2C7.01472 2 5 4.01473 5 6.50002C5 7.56252 5.36823 8.53901 5.98403 9.30885L2.14645 13.1464C1.95118 13.3417 1.95118 13.6583 2.14645 13.8536C2.34171 14.0488 2.65829 14.0488 2.85355 13.8536L6.69113 10.016ZM6 6.50002C6 4.56701 7.567 3 9.5 3C11.433 3 13 4.56701 13 6.50002C13 8.43302 11.433 10 9.5 10C7.567 10 6 8.43302 6 6.50002Z" fill="#1A1A1A"/>
</svg>
