<svg viewBox="0 0 14 14" fill="none" xmlns="http://www.w3.org/2000/svg">
<path d="M7.39998 0.5C7.17906 0.5 6.99998 0.679086 6.99998 0.9V2.98C6.99998 4.08129 7.74148 5.00896 8.75264 5.2916C8.57652 7.48409 7.94249 9.11974 7.42321 10.1291C7.57034 10.3015 7.70892 10.4307 7.81674 10.5209C8.23164 10.8679 8.59998 11.4339 8.59998 12.139C8.59998 12.5735 8.45868 12.975 8.21954 13.3H12.6C13.2627 13.3 13.8 12.7627 13.8 12.1V11.8541C13.8 11.5761 13.7051 11.3192 13.5586 11.1088C13.1259 10.4875 11.9032 8.47738 11.6473 5.2916C12.6585 5.00896 13.4 4.0813 13.4 2.98V0.9C13.4 0.679086 13.2209 0.5 13 0.5H12.4C12.0686 0.5 11.8 0.768629 11.8 1.1V1.7C11.8 1.92052 11.6215 2.09945 11.401 2.1C11.1805 2.10055 11.0011 1.92252 11 1.702L11 1.7L10.997 1.097C10.9953 0.766804 10.7272 0.5 10.397 0.5H10.003C9.67279 0.5 9.40465 0.766804 9.403 1.097L9.39997 1.702C9.39887 1.92252 9.2195 2.10055 8.99898 2.1C8.77845 2.09945 8.59998 1.92052 8.59998 1.7V1.1C8.59998 0.768629 8.33135 0.5 7.99998 0.5H7.39998ZM4.19998 2.9C2.87449 2.9 1.79998 3.97452 1.79998 5.3C1.79998 5.91468 2.03106 6.47539 2.41109 6.9H2.19998C1.75815 6.9 1.39998 7.25817 1.39998 7.7C1.39998 8.14183 1.75815 8.5 2.19998 8.5H2.61525C2.31866 9.93837 1.53395 10.7686 1.09647 11.1345C0.818903 11.3667 0.599976 11.7232 0.599976 12.139C0.599976 12.7802 1.11975 13.3 1.76093 13.3H6.63902C7.2802 13.3 7.79998 12.7802 7.79998 12.139C7.79998 11.7232 7.58105 11.3667 7.30348 11.1345C6.866 10.7686 6.08129 9.93837 5.7847 8.5H6.19998C6.6418 8.5 6.99998 8.14183 6.99998 7.7C6.99998 7.25817 6.6418 6.9 6.19998 6.9H5.98886C6.36889 6.47539 6.59998 5.91468 6.59998 5.3C6.59998 3.97452 5.52546 2.9 4.19998 2.9Z" fill="black"/>
</svg>
