<svg width="48" height="48" viewBox="0 0 48 48" fill="none" xmlns="http://www.w3.org/2000/svg">
<path d="M35.64 44.01L32.1 24.42C31.98 23.7 31.29 23.04 30.57 22.95L13.02 20.43L12.9 19.95L12.48 18.6C12.33 18.06 11.79 17.58 11.25 17.52L8.90998 17.19L3.74998 16.44C3.02998 16.35 2.57998 16.83 2.72998 17.55L3.56998 21.15L6.95998 39.9C7.01998 40.32 7.28998 40.71 7.64998 40.98C7.91998 41.19 8.21998 41.34 8.51998 41.37L34.41 45.06C34.71 45.09 35.07 45.03 35.37 44.91C35.58 44.73 35.7 44.4 35.64 44.01Z" fill="url(#paint0_radial_221_2908)"/>
<path d="M41.01 18.87L30.33 16.11C29.82 15.99 29.55 15.48 29.67 14.97L32.58 3.68997C32.7 3.17997 33.21 2.90997 33.72 3.02997L44.4 5.78997C44.91 5.90997 45.18 6.41997 45.06 6.92997L42.15 18.21C42.03 18.69 41.52 18.99 41.01 18.87Z" fill="#E1DFDD"/>
<path d="M22.86 28.17C28.2 26.73 33.57 25.32 38.97 23.88C39.33 23.79 39.51 23.4 39.42 23.04C37.65 17.43 36.36 11.79 35.55 6.17999C35.49 5.81999 35.16 5.60999 34.77 5.69999C29.1 7.13999 23.46 8.54999 17.88 9.98999C17.52 10.08 17.25 10.47 17.34 10.83C18.42 16.44 19.98 22.08 22.02 27.69C22.08 28.05 22.5 28.26 22.86 28.17Z" fill="#EFEFEF"/>
<path d="M34.2599 7.32007C29.0999 8.61007 23.9699 9.90007 18.8699 11.1901C19.8599 16.2601 21.2399 21.3601 23.0099 26.4301C27.9299 25.1401 32.8499 23.8501 37.7999 22.5601C36.2399 17.4601 35.0399 12.3901 34.2599 7.32007Z" fill="#28C2D1"/>
<path d="M24.2999 13.4399C24.6599 14.3099 25.6499 14.6999 26.5199 14.3099C27.3899 13.9199 27.8099 12.8999 27.4799 12.0599C27.1499 11.1899 26.1599 10.7999 25.2899 11.1899C24.3899 11.5499 23.9399 12.5699 24.2999 13.4399Z" fill="#C3F2F4"/>
<path d="M23.0099 26.4001C25.7699 25.6801 28.5599 24.9601 31.3499 24.2101C28.4099 20.7601 25.6499 17.2801 23.0699 13.8301C22.4699 16.5601 21.9599 19.2901 21.5699 21.9901C22.0199 23.4901 22.4999 24.9301 23.0099 26.4001Z" fill="url(#paint1_linear_221_2908)"/>
<path d="M27.78 25.1701C31.11 24.3001 34.44 23.4301 37.8 22.5601C37.2 20.6101 36.63 18.6601 36.15 16.6801C34.26 14.2501 32.49 11.7901 30.78 9.36011C29.37 14.6401 28.38 19.9201 27.78 25.1701Z" fill="#7BDDEF"/>
<path d="M42.93 26.3699L32.16 24.8399L16.89 22.6499C16.17 22.5599 15.33 23.0099 15.03 23.6699L7.59001 39.9899C7.41001 40.3799 7.47001 40.7399 7.65001 41.0099C7.92001 41.2199 8.22001 41.3699 8.52001 41.3999L34.41 45.0899C34.71 45.1199 35.07 45.0599 35.37 44.9399C35.76 44.7599 36.09 44.4599 36.27 44.0699L43.71 27.7499C43.98 27.0899 43.65 26.4599 42.93 26.3699Z" fill="#FFD590"/>
<defs>
<radialGradient id="paint0_radial_221_2908" cx="0" cy="0" r="1" gradientUnits="userSpaceOnUse" gradientTransform="translate(19.1794 30.7676) scale(15.4428)">
<stop stop-color="#F7B548"/>
<stop offset="1" stop-color="#FFD590"/>
</radialGradient>
<linearGradient id="paint1_linear_221_2908" x1="25.8956" y1="20.1248" x2="35.6702" y2="20.1248" gradientUnits="userSpaceOnUse">
<stop stop-color="#7BDDEF"/>
<stop offset="1" stop-color="#4FACBD"/>
</linearGradient>
</defs>
</svg>
