<svg width="132" height="69" viewBox="0 0 132 69" fill="none" xmlns="http://www.w3.org/2000/svg">
<path d="M46.4519 63.3665L39.1813 40.7464C39.0233 40.3214 38.7443 39.953 38.3788 39.6865C38.0132 39.42 37.577 39.2669 37.1236 39.2461L15.9272 39.2112L15.7001 38.677L15.0515 37.1547C14.8997 36.8429 14.6676 36.5779 14.379 36.3867C14.0903 36.1955 13.7555 36.0851 13.4086 36.0667L10.5887 36.0621L4.3602 36.0515C3.49102 36.0518 3.03482 36.707 3.34092 37.5196L4.88872 41.6317L11.856 63.3088C12.0338 63.7993 12.3768 64.2111 12.8262 64.4738C13.1511 64.6819 13.5269 64.7977 13.9138 64.8088L45.1434 64.8598C45.5336 64.8505 45.9142 64.7308 46.2413 64.5146C46.3794 64.3609 46.4723 64.172 46.5095 63.9692C46.5467 63.7663 46.5268 63.5576 46.4519 63.3665Z" fill="url(#paint0_linear_198_652)"/>
<path d="M42.4031 44.011C42.4031 38.3543 47.0273 33.7832 52.7497 33.7261C54.7727 33.7261 56.738 34.2975 58.4143 35.4403C58.7611 34.6403 59.2235 33.8975 59.8015 33.1547C63.6164 28.0694 70.8995 26.9838 76.0438 30.7549C76.9687 31.4406 77.7779 32.2405 78.4715 33.1547C80.0322 35.2117 80.8992 37.7258 80.8992 40.3542C80.8992 40.5827 80.8992 40.8684 80.8414 41.097C81.0726 41.097 81.3038 41.0398 81.535 41.0398C87.0262 41.1541 91.3613 45.6109 91.2457 51.039C91.1301 56.2958 86.8528 60.5812 81.535 60.6383L44.3684 60.6383C39.6286 60.5812 35.8137 56.7529 35.9293 52.0675C35.9871 48.2393 38.646 44.9252 42.4031 44.011Z" fill="#E8F6FE"/>
<path d="M80.6745 62.9702C80.816 63.3999 81.2172 63.6901 81.6695 63.6901L113.736 63.6901L105.914 39.9382L75.2608 39.9382C74.1906 39.9382 73.4335 40.9847 73.7683 42.0012L80.6745 62.9702Z" fill="#0078D3"/>
<path d="M88.9287 38.053C89.0876 37.3443 89.722 36.84 90.4548 36.84L103.222 36.84L104.408 33.4915C104.524 33.0317 104.941 32.7092 105.419 32.7092L117.553 32.7092C117.981 32.7092 118.269 32.9388 118.325 33.3422C118.338 33.4405 118.321 33.5398 118.293 33.635L117.814 35.2796L117.293 36.84H121.759C122.76 36.84 123.502 37.7577 123.285 38.7251L115.3 63.5097C115.141 64.2184 114.506 64.7227 113.774 64.7227H82.5826C81.5824 64.7227 80.8395 63.805 81.0564 62.8376L88.9287 38.053Z" fill="url(#paint1_linear_198_652)"/>
<path d="M122.887 31.9676C122.763 31.9001 122.655 31.8029 122.574 31.6842C122.493 31.5654 122.44 31.4283 122.419 31.2842C122.399 31.14 122.412 30.9929 122.456 30.8548C122.501 30.7168 122.577 30.5917 122.677 30.4897L125.645 27.4628C125.73 27.3774 125.829 27.3102 125.939 27.2649C126.048 27.2196 126.165 27.1972 126.283 27.1988C126.401 27.2005 126.517 27.2262 126.625 27.2746C126.734 27.3229 126.832 27.3929 126.914 27.4806C126.996 27.5683 127.061 27.6719 127.104 27.7855C127.148 27.8992 127.17 28.0206 127.168 28.143C127.166 28.2653 127.142 28.3861 127.095 28.4985C127.049 28.6109 126.981 28.7126 126.897 28.798L123.928 31.8249C123.791 31.9595 123.617 32.0457 123.43 32.0713C123.243 32.0969 123.053 32.0606 122.887 31.9676Z" fill="#F59339"/>
<path d="M115.478 27.7205C115.335 27.6416 115.216 27.524 115.133 27.3803C115.049 27.2366 115.005 27.0721 115.005 26.9043L115.005 23.3385C115.02 23.1036 115.12 22.8833 115.285 22.7224C115.451 22.5615 115.669 22.4719 115.896 22.4719C116.122 22.4719 116.341 22.5615 116.506 22.7224C116.671 22.8833 116.772 23.1036 116.787 23.3385L116.806 26.9043C116.806 27.1499 116.712 27.3855 116.546 27.5599C116.379 27.7343 116.153 27.8333 115.917 27.8354C115.764 27.836 115.613 27.7964 115.478 27.7205Z" fill="#F59339"/>
<path d="M127.141 40.0543C126.961 39.9564 126.819 39.7978 126.737 39.6046C126.656 39.4115 126.641 39.1953 126.694 38.9917C126.746 38.7882 126.865 38.6095 127.028 38.485C127.192 38.3605 127.392 38.2978 127.595 38.3071L131.128 38.3903C131.365 38.396 131.589 38.4993 131.753 38.6772C131.916 38.8552 132.005 39.0933 132 39.3392C131.994 39.5851 131.895 39.8186 131.723 39.9884C131.552 40.1581 131.323 40.2503 131.086 40.2445L127.557 40.1573C127.412 40.1598 127.269 40.1244 127.141 40.0543Z" fill="#F59339"/>
<path d="M34.8469 41.7436C29.3766 45.5657 23.9433 49.3541 18.4932 53.1242C13.1935 47.9998 9.00151 41.5616 6.26846 34.1935C11.4057 30.6755 16.543 27.1576 21.734 23.6241C24.7965 30.7584 29.3013 36.9444 34.8469 41.7436Z" fill="#C3F2F4"/>
<path d="M18.5764 34.4296C16.3098 35.9629 14.0246 37.5131 11.758 39.0464C11.6278 38.8298 11.516 38.5962 11.4043 38.3627C13.6709 36.8293 15.9393 35.2608 18.2059 33.7275C18.3176 33.9611 18.4479 34.1777 18.5764 34.4296Z" fill="#7BDDEF"/>
<path d="M20.5392 37.4669C18.2355 39.034 15.9134 40.6181 13.6098 42.1852C13.4795 41.9685 13.3493 41.7519 13.2005 41.5521C15.5041 39.985 17.8078 38.4179 20.1299 36.8339C20.2434 37.0322 20.3922 37.232 20.5392 37.4669Z" fill="#7BDDEF"/>
<path d="M23.7429 35.2107C23.1392 35.6278 22.5356 36.0449 21.932 36.462C21.7833 36.2623 21.6698 36.0639 21.521 35.8642C22.1246 35.4471 22.7282 35.03 23.3133 34.6298C23.4621 34.8295 23.5941 35.011 23.7429 35.2107Z" fill="#7BDDEF"/>
<path d="M21.7969 32.1919C21.1933 32.609 20.6082 33.0092 20.0046 33.4263C19.8743 33.2097 19.7608 33.0113 19.6306 32.7947C20.2342 32.3776 20.8193 31.9774 21.4229 31.5603C21.5716 31.76 21.6834 31.9936 21.7969 32.1919Z" fill="#7BDDEF"/>
<path d="M22.6338 40.35C20.2931 41.951 17.9525 43.5519 15.6304 45.136C15.4816 44.9362 15.3328 44.7365 15.1841 44.5367C17.5062 42.9527 19.8468 41.3518 22.169 39.7677C22.3362 39.9506 22.485 40.1503 22.6338 40.35Z" fill="#7BDDEF"/>
<path d="M28.3683 40.7136C24.874 43.1333 21.363 45.5348 17.8872 47.9376C17.72 47.7548 17.5712 47.5551 17.4039 47.3722C20.8797 44.9694 24.3722 42.5848 27.8665 40.1651C28.0338 40.3479 28.2011 40.5308 28.3683 40.7136Z" fill="#7BDDEF"/>
<path d="M25.8556 38.0773C25.252 38.4944 24.6484 38.9115 24.0262 39.3455C23.8775 39.1458 23.727 38.9812 23.5782 38.7815C24.1818 38.3644 24.7854 37.9473 25.389 37.5302C25.5563 37.713 25.705 37.9128 25.8556 38.0773Z" fill="#7BDDEF"/>
<path d="M45.5679 30.284C40.9232 26.4979 36.2347 22.7079 31.5733 18.9116C31.3105 18.7048 31.2924 18.3269 31.5181 18.0755C35.8269 13.4492 39.3997 8.30327 42.1563 2.8405C42.2986 2.538 42.6393 2.47171 42.9188 2.6888C47.8073 6.60134 52.6958 10.5139 57.5509 14.406C57.8303 14.6231 57.9151 15.0418 57.7562 15.3341C54.7788 20.7074 50.9892 25.7206 46.4804 30.2242C46.2381 30.4654 45.8307 30.4908 45.5679 30.284Z" fill="#E1DFDD"/>
<path d="M45.3579 29.3389C40.7132 25.5528 36.0248 21.7629 31.3633 17.9666C31.1006 17.7597 31.0825 17.3818 31.3081 17.1304C35.6169 12.5042 39.1897 7.3582 41.9464 1.89543C42.0887 1.59293 42.4294 1.52665 42.7088 1.74373C47.5973 5.65627 52.4858 9.56881 57.3409 13.4609C57.6204 13.678 57.7051 14.0967 57.5462 14.389C54.5688 19.7624 50.7793 24.7755 46.2704 29.2792C46.0281 29.5204 45.6207 29.5458 45.3579 29.3389Z" fill="#EFEFEF"/>
<path d="M45.3492 28.0002C41.2413 24.3841 37.1237 20.7851 33 17.1585C36.649 12.7975 39.7378 8.04183 42.1819 3.00024C46.4579 6.70421 50.7338 10.4082 55 14.1292C52.3938 19.1104 49.1466 23.7612 45.3492 28.0002Z" fill="#B9D3EE"/>
<path d="M45.3492 28.0002C41.2413 24.3841 37.1237 20.7851 33 17.1585C36.649 12.7975 39.7378 8.04183 42.1819 3.00024C46.4579 6.70421 50.7338 10.4082 55 14.1292C52.3938 19.1104 49.1466 23.7612 45.3492 28.0002Z" fill="url(#paint2_radial_198_652)"/>
<path d="M38.4169 21.9137L38.7944 21.5633L42.2688 23.8809C42.7839 24.2245 42.9524 24.9562 42.6253 25.5203L38.4169 21.9137Z" fill="#E0BB95"/>
<path d="M42.0338 17.1558C43.4321 18.0885 45.2705 17.629 46.1399 16.1296C47.0093 14.6302 46.5805 12.6586 45.1823 11.7259C43.784 10.7932 41.9457 11.2525 41.0763 12.7519C40.2069 14.2514 40.6356 16.2231 42.0338 17.1558Z" fill="#E0BB95"/>
<path d="M46.6801 17.9244C46.6392 17.9949 46.6052 18.0537 46.5601 18.1051C46.4878 18.2036 46.4087 18.3138 46.3213 18.3859C46.0292 18.68 45.6631 18.8921 45.2898 18.9853C44.7388 19.123 44.1202 19.0365 43.5941 18.6856L42.1035 17.6913L43.5074 15.2701L44.1097 16.0305L45.471 16.9386L45.7018 16.7184L46.5434 17.2952C46.7078 17.4049 46.7711 17.6102 46.7263 17.7923C46.71 17.8466 46.7005 17.8892 46.6801 17.9244Z" fill="#E0BB95"/>
<path d="M46.6801 17.9244C46.6392 17.9949 46.6052 18.0537 46.5601 18.1051C46.4878 18.2036 46.4087 18.3138 46.3213 18.3859L46.2283 18.2584C45.9567 17.9142 45.9242 17.4198 46.1491 17.032L46.5546 17.3025C46.719 17.4121 46.7823 17.6175 46.7376 17.7995C46.7103 17.8465 46.7005 17.8892 46.6801 17.9244Z" fill="#767677"/>
<path d="M34.6641 18.6209L37.8943 13.0499C39.3118 10.6053 42.3157 9.85459 44.5954 11.3753L46.2394 12.4719L39.8414 23.1629L34.6641 18.6209Z" fill="#E0BB95"/>
<path d="M46.3494 15.5851L45.6699 15.1319C45.4617 14.993 45.3995 14.7069 45.529 14.4836C45.6585 14.2603 45.9251 14.1936 46.1334 14.3325L46.8129 14.7858C47.0211 14.9247 47.0833 15.2107 46.9538 15.4341C46.8243 15.6574 46.5467 15.7167 46.3494 15.5851Z" fill="#FADCBD"/>
<path d="M43.5184 12.6043L41.8306 11.4784L42.3826 10.5263C42.9619 9.52732 44.1883 9.22088 45.1199 9.84231L43.5184 12.6043Z" fill="#E0BB95"/>
<path d="M46.1049 14.3297L44.4171 13.2038L44.9691 12.2517C45.5484 11.2527 46.7748 10.9463 47.7064 11.5677L46.1049 14.3297Z" fill="#E0BB95"/>
<path d="M42.7928 18.9661L40.6556 17.5405C39.9432 17.0653 39.7345 16.0622 40.1706 15.31C40.6136 14.546 41.5489 14.3223 42.2503 14.7902L46.7549 17.795L46.6254 18.0184C45.8213 19.4053 44.0971 19.8361 42.7928 18.9661Z" fill="#FADCBD"/>
<path d="M44.0375 14.0424L43.3579 13.5892C43.1497 13.4503 43.0875 13.1643 43.217 12.9409C43.3465 12.7176 43.6131 12.651 43.8214 12.7899L44.5009 13.2432C44.7092 13.3821 44.7713 13.6681 44.6418 13.8914C44.5124 14.1147 44.2457 14.1814 44.0375 14.0424Z" fill="#FADCBD"/>
<path d="M42.2298 16.5042C42.4516 16.6196 42.5725 16.8306 42.6782 17.0152C42.7771 17.2116 42.8609 17.3816 42.9448 17.5516C43.0354 17.7099 43.1328 17.8564 43.2507 17.9676C43.3686 18.0788 43.5111 18.1739 43.6782 18.2527L43.6891 18.26C43.7727 18.2995 43.8153 18.4094 43.7717 18.5108C43.7418 18.5886 43.6749 18.6254 43.5997 18.6241C43.3807 18.6084 43.1494 18.5356 42.9521 18.404C42.7548 18.2724 42.5848 18.0938 42.4503 17.9063C42.3159 17.7188 42.2169 17.5224 42.1154 17.3568C42.0206 17.1795 41.9477 17.0169 41.8953 16.8189L41.887 16.7808C41.858 16.6473 41.9329 16.5181 42.0574 16.487C42.1285 16.4692 42.1859 16.475 42.2298 16.5042Z" fill="#BF8F68"/>
<path d="M43.8252 14.7486C43.7994 14.8455 43.7475 14.9088 43.6847 14.9647C43.6287 15.0088 43.5618 15.0457 43.4907 15.0635C43.3485 15.099 43.187 15.0891 43.0377 15.0058C42.8884 14.9226 42.7869 14.7569 42.7537 14.6044C42.7206 14.4519 42.7448 14.3052 42.7842 14.1848C42.8005 14.1305 42.8607 14.1053 42.9113 14.1228C42.9333 14.1374 42.9552 14.152 42.9703 14.1784L42.9744 14.1975C43.0171 14.3075 43.0487 14.4101 43.1009 14.4775C43.153 14.5449 43.1791 14.5785 43.2298 14.596C43.2736 14.6252 43.342 14.6382 43.4173 14.6395C43.457 14.6497 43.4925 14.6408 43.539 14.6393L43.6498 14.6317L43.7319 14.6213C43.7784 14.6197 43.8154 14.6607 43.8169 14.7106C43.821 14.7297 43.8142 14.7413 43.8252 14.7486Z" fill="#594539"/>
<path d="M45.8423 16.0938C45.8165 16.1907 45.7646 16.2539 45.7018 16.3098C45.6458 16.354 45.5788 16.3909 45.5077 16.4086C45.3655 16.4442 45.2041 16.4343 45.0548 16.351C44.9055 16.2677 44.804 16.102 44.7708 15.9495C44.7376 15.797 44.7619 15.6503 44.8013 15.5299C44.8176 15.4756 44.8778 15.4505 44.9284 15.468C44.9503 15.4826 44.9723 15.4972 44.9874 15.5235L44.9915 15.5427C45.0341 15.6526 45.0658 15.7553 45.118 15.8226C45.1701 15.89 45.1962 15.9236 45.2469 15.9411C45.2907 15.9703 45.3591 15.9834 45.4344 15.9847C45.4741 15.9949 45.5096 15.986 45.5561 15.9844L45.6669 15.9768L45.7489 15.9664C45.7955 15.9648 45.8325 16.0059 45.8339 16.0557C45.849 16.0821 45.8423 16.0938 45.8423 16.0938Z" fill="#594539"/>
<path d="M40.9935 51.7392C35.1096 50.6893 29.1856 49.6571 23.2821 48.6064C22.9528 48.5534 22.7554 48.2332 22.8321 47.9053C24.3803 41.7955 25.0347 35.5892 24.8226 29.5017C24.8018 29.1696 25.0682 28.9472 25.417 29.0011C31.575 30.0432 37.733 31.0853 43.852 32.1258C44.2008 32.1797 44.4762 32.5031 44.4775 32.8344C44.4535 38.9508 43.5455 45.1463 41.7634 51.2461C41.6672 51.5732 41.3228 51.7922 40.9935 51.7392Z" fill="#E1DFDD"/>
<path d="M40.5999 51.0583C34.716 50.0084 28.792 48.9762 22.8886 47.9255C22.5592 47.8724 22.3619 47.5523 22.4386 47.2244C23.9867 41.1146 24.6412 34.9083 24.4291 28.8208C24.4083 28.4887 24.6746 28.2663 25.0235 28.3202C31.1814 29.3623 37.3394 30.4044 43.4584 31.4449C43.8073 31.4988 44.0826 31.8222 44.0839 32.1535C44.0599 38.2699 43.152 44.4654 41.3698 50.5652C41.2736 50.8922 40.9293 51.1113 40.5999 51.0583Z" fill="#EFEFEF"/>
<path d="M40.1426 49.4222C34.6649 48.448 29.1862 47.4933 23.6891 46.5184C25.0112 40.9639 25.6325 35.3601 25.5258 29.8421C31.1996 30.8051 36.8733 31.7682 42.5459 32.7506C42.4749 38.3 41.6587 43.8955 40.1426 49.4222Z" fill="#FFD590"/>
<path d="M38.6704 35.8501C38.482 34.7086 37.5907 33.7398 36.4694 33.5448C35.6428 33.4026 34.8601 33.7392 34.3983 34.3537C33.3342 34.175 32.4238 34.9414 32.3176 36.0301C32.2842 36.4558 32.3452 36.8772 32.5462 37.2453C32.8391 37.8261 33.3633 38.2551 34.0384 38.3852C35.4542 38.633 36.8701 38.8809 38.286 39.1287C38.8752 39.2343 39.4522 38.9635 39.7686 38.5252C39.9225 38.3204 39.9992 38.0625 40.0186 37.7883C40.0737 36.8715 39.48 36.0496 38.6704 35.8501Z" fill="white"/>
<path d="M31.3634 38.9287C31.4789 38.1223 30.9254 37.3741 30.156 37.2482C29.6526 37.167 29.1584 37.3682 28.859 37.7491C28.593 37.7045 28.3556 37.6679 28.0896 37.6233C27.8808 37.5949 27.6465 37.6525 27.4895 37.7632C27.3324 37.8739 27.2071 38.0868 27.1761 38.2956C27.1056 38.7418 27.4125 39.1711 27.8301 39.2278C28.1247 39.2807 28.4193 39.3335 28.6853 39.3782C29.2746 39.4838 29.8352 39.5813 30.4244 39.687C30.6332 39.7154 30.8676 39.6578 31.0246 39.5471C31.1445 39.4569 31.2357 39.3585 31.2868 39.1866C31.3038 39.1293 31.3209 39.072 31.3379 39.0146C31.3379 39.0146 31.3379 39.0146 31.3464 38.986C31.3464 38.986 31.3549 38.9573 31.3634 38.9287Z" fill="white"/>
<path d="M41.6873 41.6805C41.8028 40.8741 41.2493 40.1259 40.4798 40C39.9764 39.9188 39.4822 40.1199 39.1829 40.5009C38.9169 40.4563 38.6795 40.4197 38.4135 40.375C38.2047 40.3467 37.9703 40.4043 37.8133 40.515C37.6563 40.6257 37.531 40.8386 37.5 41.0474C37.4295 41.4935 37.7364 41.9229 38.154 41.9796C38.4486 42.0324 38.7432 42.0853 39.0092 42.13C39.5985 42.2356 40.1591 42.3331 40.7483 42.4388C40.9571 42.4671 41.1914 42.4095 41.3484 42.2988C41.4683 42.2087 41.5596 42.1103 41.6107 41.9384C41.6277 41.8811 41.6447 41.8237 41.6618 41.7664C41.6618 41.7664 41.6618 41.7664 41.6703 41.7378C41.6703 41.7378 41.6788 41.7091 41.6873 41.6805Z" fill="#FDB032"/>
<path fill-rule="evenodd" clip-rule="evenodd" d="M72.9074 6.47271C72.9128 6.77295 72.6738 7.02071 72.3735 7.02609C71.1944 7.04721 70.0291 7.15138 68.8917 7.34424C68.5956 7.39444 68.3149 7.19513 68.2647 6.89906C68.2145 6.603 68.4139 6.32229 68.7099 6.27209C69.9043 6.06959 71.124 5.96084 72.354 5.93881C72.6543 5.93343 72.902 6.17247 72.9074 6.47271ZM75.3972 6.59694C75.4314 6.2986 75.701 6.08446 75.9993 6.11865C77.2028 6.25658 78.4035 6.47022 79.5879 6.75347C79.8799 6.82331 80.06 7.11669 79.9902 7.40875C79.9204 7.70081 79.627 7.88094 79.3349 7.81109C78.1918 7.53771 77.0343 7.33183 75.8755 7.19903C75.5772 7.16485 75.363 6.89528 75.3972 6.59694ZM65.8503 7.5201C65.9509 7.80303 65.8031 8.11396 65.5202 8.21458C64.9727 8.40925 64.4365 8.62878 63.9132 8.87391C63.6412 9.0013 63.3175 8.88412 63.1901 8.61219C63.0628 8.34025 63.1799 8.01654 63.4519 7.88915C64.0078 7.62875 64.5764 7.39601 65.1558 7.18999C65.4387 7.08937 65.7497 7.23717 65.8503 7.5201ZM82.3775 8.12855C82.4806 7.84652 82.7928 7.70149 83.0749 7.80461C84.223 8.22443 85.3419 8.70919 86.4176 9.25299C86.6856 9.38846 86.793 9.71554 86.6575 9.98354C86.5221 10.2515 86.195 10.359 85.927 10.2235C84.8898 9.69919 83.8101 9.23133 82.7014 8.82593C82.4194 8.72281 82.2744 8.41058 82.3775 8.12855ZM88.8093 11.2436C88.9775 10.9948 89.3155 10.9295 89.5643 11.0978C90.5914 11.7923 91.5558 12.5467 92.4409 13.3541C92.6628 13.5564 92.6786 13.9003 92.4762 14.1222C92.2738 14.344 91.9299 14.3598 91.7081 14.1575C90.8642 13.3877 89.9415 12.6656 88.9551 11.9986C88.7064 11.8303 88.6411 11.4923 88.8093 11.2436ZM94.1722 15.9497C94.4102 15.7666 94.7516 15.811 94.9347 16.049C95.3135 16.5412 95.6643 17.0472 95.9843 17.5659C96.1419 17.8215 96.0625 18.1564 95.8069 18.3141C95.5513 18.4717 95.2164 18.3923 95.0587 18.1368C94.7593 17.6514 94.43 17.1761 94.0729 16.7122C93.8898 16.4743 93.9342 16.1329 94.1722 15.9497Z" fill="#57C0DD"/>
<path d="M97.1587 22.7685C97.0388 23.1326 96.5795 23.247 96.3002 22.9822L92.9939 19.8487C92.6936 19.5641 92.8248 19.0619 93.2255 18.9622L97.9506 17.7859C98.3514 17.6861 98.7065 18.0672 98.5776 18.4587L97.1587 22.7685Z" fill="#57C0DD"/>
<path d="M52.5784 41.2408L39.5819 41.2191L21.1365 41.1887C20.6864 41.2066 20.2509 41.3605 19.8874 41.6302C19.5239 41.8998 19.2493 42.2726 19.0997 42.6995L12.8356 63.2926C12.7616 63.4935 12.7449 63.7105 12.7875 63.9193C12.8301 64.128 12.9302 64.3202 13.0765 64.474C13.4012 64.6821 13.7769 64.7979 14.1637 64.8089L45.3933 64.86C45.7835 64.8508 46.1642 64.7311 46.4912 64.5148C46.9313 64.2489 47.2641 63.8358 47.4301 63.3492L53.6945 42.7561C53.7644 42.5798 53.7886 42.389 53.7648 42.2016C53.7409 42.0142 53.6699 41.8364 53.5583 41.6849C53.4467 41.5334 53.2982 41.4131 53.1268 41.3354C52.9554 41.2578 52.7667 41.2252 52.5784 41.2408V41.2408Z" fill="#FCE39C"/>
<defs>
<linearGradient id="paint0_linear_198_652" x1="27.4013" y1="61.2568" x2="19.4896" y2="28.4965" gradientUnits="userSpaceOnUse">
<stop offset="0.002" stop-color="#F5B453"/>
<stop offset="0.295" stop-color="#FED494"/>
</linearGradient>
<linearGradient id="paint1_linear_198_652" x1="108.253" y1="32.7092" x2="101.085" y2="65.7829" gradientUnits="userSpaceOnUse">
<stop stop-color="#28A7E9"/>
<stop offset="1" stop-color="#0078D3"/>
</linearGradient>
<radialGradient id="paint2_radial_198_652" cx="0" cy="0" r="1" gradientUnits="userSpaceOnUse" gradientTransform="translate(44 15.5002) rotate(18.1318) scale(10.3995 10.5464)">
<stop stop-color="white"/>
<stop offset="1" stop-color="white" stop-opacity="0"/>
</radialGradient>
</defs>
</svg>
