<svg width="512" height="512" viewBox="0 0 512 512" fill="none" xmlns="http://www.w3.org/2000/svg">
<path d="M42.8091 259.375C42.8091 236.248 61.5573 217.5 84.6844 217.5H427.316C450.443 217.5 469.191 236.248 469.191 259.375C469.191 282.502 450.443 301.251 427.316 301.251H84.6844C61.5573 301.251 42.8091 282.502 42.8091 259.375Z" fill="url(#paint0_linear_7780_8289)"/>
<path d="M42.8091 259.375C42.8091 236.248 61.5573 217.5 84.6844 217.5H427.316C450.443 217.5 469.191 236.248 469.191 259.375C469.191 282.502 450.443 301.251 427.316 301.251H84.6844C61.5573 301.251 42.8091 282.502 42.8091 259.375Z" fill="url(#paint1_radial_7780_8289)"/>
<path d="M42.8091 259.375C42.8091 236.248 61.5573 217.5 84.6844 217.5H427.316C450.443 217.5 469.191 236.248 469.191 259.375C469.191 282.502 450.443 301.251 427.316 301.251H84.6844C61.5573 301.251 42.8091 282.502 42.8091 259.375Z" fill="url(#paint2_radial_7780_8289)"/>
<path d="M42.8091 259.375C42.8091 236.248 61.5573 217.5 84.6844 217.5H427.316C450.443 217.5 469.191 236.248 469.191 259.375C469.191 282.502 450.443 301.251 427.316 301.251H84.6844C61.5573 301.251 42.8091 282.502 42.8091 259.375Z" fill="url(#paint3_radial_7780_8289)"/>
<path d="M42.8091 259.375C42.8091 236.248 61.5573 217.5 84.6844 217.5H427.316C450.443 217.5 469.191 236.248 469.191 259.375C469.191 282.502 450.443 301.251 427.316 301.251H84.6844C61.5573 301.251 42.8091 282.502 42.8091 259.375Z" fill="url(#paint4_radial_7780_8289)"/>
<rect x="156.772" y="97" width="198.455" height="318" rx="30" fill="url(#paint5_linear_7780_8289)"/>
<rect x="156.772" y="97" width="198.455" height="318" rx="30" fill="url(#paint6_radial_7780_8289)"/>
<rect x="156.772" y="97" width="198.455" height="318" rx="30" fill="url(#paint7_radial_7780_8289)" fill-opacity="0.9"/>
<rect x="156.772" y="97" width="198.455" height="318" rx="30" fill="url(#paint8_radial_7780_8289)" fill-opacity="0.9"/>
<rect x="156.772" y="97" width="198.455" height="318" rx="30" fill="url(#paint9_radial_7780_8289)"/>
<rect x="156.772" y="97" width="198.455" height="318" rx="30" fill="url(#paint10_radial_7780_8289)"/>
<path d="M291.271 376.654L218.566 376.627C215.725 376.627 213.422 378.934 213.422 381.781C213.423 384.627 215.726 386.936 218.567 386.936L291.272 386.963C294.113 386.963 296.415 384.656 296.415 381.81C296.415 378.963 294.112 376.655 291.271 376.654Z" fill="url(#paint11_linear_7780_8289)"/>
<path d="M291.271 376.654L218.566 376.627C215.725 376.627 213.422 378.934 213.422 381.781C213.423 384.627 215.726 386.936 218.567 386.936L291.272 386.963C294.113 386.963 296.415 384.656 296.415 381.81C296.415 378.963 294.112 376.655 291.271 376.654Z" fill="url(#paint12_radial_7780_8289)"/>
<path d="M355.228 217.5H156.772V301.251H355.228V217.5Z" fill="url(#paint13_radial_7780_8289)"/>
<path d="M355.228 217.5H156.772V301.251H355.228V217.5Z" fill="url(#paint14_radial_7780_8289)" fill-opacity="0.6"/>
<path d="M355.228 217.5H156.772V301.251H355.228V217.5Z" fill="url(#paint15_radial_7780_8289)" fill-opacity="0.6"/>
<path d="M283.968 296.854C298.436 298.807 311.366 291.499 312.846 280.532C314.326 269.565 303.797 259.091 289.328 257.138C274.859 255.186 261.93 262.493 260.45 273.46C258.969 284.428 269.499 294.901 283.968 296.854Z" fill="url(#paint16_radial_7780_8289)"/>
<rect x="173.938" y="248.553" width="50.813" height="46.3026" rx="5.45814" fill="url(#paint17_linear_7780_8289)"/>
<rect x="173.938" y="248.553" width="50.813" height="46.3026" rx="5.45814" fill="url(#paint18_linear_7780_8289)"/>
<rect x="173.938" y="248.553" width="50.813" height="46.3026" rx="5.45814" fill="url(#paint19_linear_7780_8289)"/>
<rect x="80.2876" y="238.069" width="48.6611" height="22.7372" rx="5.43815" fill="url(#paint20_linear_7780_8289)"/>
<rect x="80.2876" y="238.069" width="48.6611" height="22.7372" rx="5.43815" fill="url(#paint21_linear_7780_8289)"/>
<rect x="80.2876" y="238.069" width="48.6611" height="22.7372" rx="5.43815" fill="url(#paint22_linear_7780_8289)"/>
<path d="M79.4361 267.124C79.3595 264.068 81.8158 261.55 84.8725 261.55H127.079C130.083 261.55 132.518 263.985 132.518 266.988V288.667C132.518 291.67 130.083 294.105 127.079 294.105H85.4159C82.4655 294.105 80.0534 291.752 79.9794 288.803L79.4361 267.124Z" fill="url(#paint23_linear_7780_8289)"/>
<path d="M79.4361 267.124C79.3595 264.068 81.8158 261.55 84.8725 261.55H127.079C130.083 261.55 132.518 263.985 132.518 266.988V288.667C132.518 291.67 130.083 294.105 127.079 294.105H85.4159C82.4655 294.105 80.0534 291.752 79.9794 288.803L79.4361 267.124Z" fill="url(#paint24_radial_7780_8289)"/>
<path d="M79.4361 267.124C79.3595 264.068 81.8158 261.55 84.8725 261.55H127.079C130.083 261.55 132.518 263.985 132.518 266.988V288.667C132.518 291.67 130.083 294.105 127.079 294.105H85.4159C82.4655 294.105 80.0534 291.752 79.9794 288.803L79.4361 267.124Z" fill="url(#paint25_linear_7780_8289)"/>
<circle cx="250.74" cy="285.42" r="1" transform="rotate(-90 250.74 285.42)" fill="#A97DEE"/>
<circle cx="306.49" cy="230.056" r="1" transform="rotate(-90 306.49 230.056)" fill="#A97DEE"/>
<circle cx="182.626" cy="225.056" r="1" transform="rotate(-90 182.626 225.056)" fill="#A97DEE"/>
<circle cx="167.02" cy="274.363" r="1" transform="rotate(-90 167.02 274.363)" fill="#A97DEE"/>
<circle cx="241.02" cy="270.918" r="1" transform="rotate(-90 241.02 270.918)" fill="#A97DEE"/>
<circle cx="159.11" cy="284.42" r="1" transform="rotate(-90 159.11 284.42)" fill="#A97DEE"/>
<circle cx="260.27" cy="291.265" r="1" transform="rotate(-90 260.27 291.265)" fill="#A97DEE"/>
<circle cx="267.275" cy="241.015" r="1" transform="rotate(-90 267.275 241.015)" fill="#A97DEE"/>
<circle cx="341.52" cy="294.765" r="1" transform="rotate(-90 341.52 294.765)" fill="#A97DEE"/>
<circle cx="165.02" cy="288.765" r="1" transform="rotate(-90 165.02 288.765)" fill="#A97DEE"/>
<circle cx="257.77" cy="255.076" r="1.5" transform="rotate(-90 257.77 255.076)" fill="#A97DEE"/>
<circle cx="281.473" cy="234.818" r="1.5" transform="rotate(-90 281.473 234.818)" fill="#A97DEE"/>
<circle cx="330.532" cy="288.765" r="1.5" transform="rotate(-90 330.532 288.765)" fill="#A97DEE"/>
<circle cx="327.532" cy="229.556" r="1.5" transform="rotate(-90 327.532 229.556)" fill="#A97DEE"/>
<circle cx="334.691" cy="253.603" r="1.5" transform="rotate(-90 334.691 253.603)" fill="#A97DEE"/>
<circle cx="256" cy="141.569" r="18.9347" fill="url(#paint26_radial_7780_8289)"/>
<circle cx="256" cy="141.569" r="18.9347" fill="url(#paint27_radial_7780_8289)" fill-opacity="0.8"/>
<path d="M385.332 285.358C375.738 285.354 367.956 277.576 367.956 267.982C367.956 258.385 375.735 250.605 385.332 250.605C385.629 250.605 385.924 250.613 386.218 250.628C389.912 244.493 396.637 240.39 404.321 240.39C414.324 240.39 422.702 247.344 424.885 256.682C432.705 256.797 439.009 263.172 439.009 271.019C439.009 278.68 433 284.938 425.439 285.337V285.358H385.332Z" fill="url(#paint28_linear_7780_8289)"/>
<path d="M385.332 285.358C375.738 285.354 367.956 277.576 367.956 267.982C367.956 258.385 375.735 250.605 385.332 250.605C385.629 250.605 385.924 250.613 386.218 250.628C389.912 244.493 396.637 240.39 404.321 240.39C414.324 240.39 422.702 247.344 424.885 256.682C432.705 256.797 439.009 263.172 439.009 271.019C439.009 278.68 433 284.938 425.439 285.337V285.358H385.332Z" fill="url(#paint29_radial_7780_8289)"/>
<path d="M385.332 285.358C375.738 285.354 367.956 277.576 367.956 267.982C367.956 258.385 375.735 250.605 385.332 250.605C385.629 250.605 385.924 250.613 386.218 250.628C389.912 244.493 396.637 240.39 404.321 240.39C414.324 240.39 422.702 247.344 424.885 256.682C432.705 256.797 439.009 263.172 439.009 271.019C439.009 278.68 433 284.938 425.439 285.337V285.358H385.332Z" fill="url(#paint30_radial_7780_8289)"/>
<path d="M385.332 285.358C375.738 285.354 367.956 277.576 367.956 267.982C367.956 258.385 375.735 250.605 385.332 250.605C385.629 250.605 385.924 250.613 386.218 250.628C389.912 244.493 396.637 240.39 404.321 240.39C414.324 240.39 422.702 247.344 424.885 256.682C432.705 256.797 439.009 263.172 439.009 271.019C439.009 278.68 433 284.938 425.439 285.337V285.358H385.332Z" fill="url(#paint31_radial_7780_8289)"/>
<path d="M385.332 285.358C375.738 285.354 367.956 277.576 367.956 267.982C367.956 258.385 375.735 250.605 385.332 250.605C385.629 250.605 385.924 250.613 386.218 250.628C389.912 244.493 396.637 240.39 404.321 240.39C414.324 240.39 422.702 247.344 424.885 256.682C432.705 256.797 439.009 263.172 439.009 271.019C439.009 278.68 433 284.938 425.439 285.337V285.358H385.332Z" fill="url(#paint32_radial_7780_8289)"/>
<path d="M385.332 285.358C375.738 285.354 367.956 277.576 367.956 267.982C367.956 258.385 375.735 250.605 385.332 250.605C385.629 250.605 385.924 250.613 386.218 250.628C389.912 244.493 396.637 240.39 404.321 240.39C414.324 240.39 422.702 247.344 424.885 256.682C432.705 256.797 439.009 263.172 439.009 271.019C439.009 278.68 433 284.938 425.439 285.337V285.358H385.332Z" fill="url(#paint33_radial_7780_8289)"/>
<path d="M385.332 285.358C375.738 285.354 367.956 277.576 367.956 267.982C367.956 258.385 375.735 250.605 385.332 250.605C385.629 250.605 385.924 250.613 386.218 250.628C389.912 244.493 396.637 240.39 404.321 240.39C414.324 240.39 422.702 247.344 424.885 256.682C432.705 256.797 439.009 263.172 439.009 271.019C439.009 278.68 433 284.938 425.439 285.337V285.358H385.332Z" fill="url(#paint34_radial_7780_8289)"/>
<path d="M385.332 285.358C375.738 285.354 367.956 277.576 367.956 267.982C367.956 258.385 375.735 250.605 385.332 250.605C385.629 250.605 385.924 250.613 386.218 250.628C389.912 244.493 396.637 240.39 404.321 240.39C414.324 240.39 422.702 247.344 424.885 256.682C432.705 256.797 439.009 263.172 439.009 271.019C439.009 278.68 433 284.938 425.439 285.337V285.358H385.332Z" fill="url(#paint35_radial_7780_8289)"/>
<path d="M385.332 285.358C375.738 285.354 367.956 277.576 367.956 267.982C367.956 258.385 375.735 250.605 385.332 250.605C385.629 250.605 385.924 250.613 386.218 250.628C389.912 244.493 396.637 240.39 404.321 240.39C414.324 240.39 422.702 247.344 424.885 256.682C432.705 256.797 439.009 263.172 439.009 271.019C439.009 278.68 433 284.938 425.439 285.337V285.358H385.332Z" fill="url(#paint36_radial_7780_8289)" fill-opacity="0.6"/>
<path d="M385.332 285.358C375.738 285.354 367.956 277.576 367.956 267.982C367.956 258.385 375.735 250.605 385.332 250.605C385.629 250.605 385.924 250.613 386.218 250.628C389.912 244.493 396.637 240.39 404.321 240.39C414.324 240.39 422.702 247.344 424.885 256.682C432.705 256.797 439.009 263.172 439.009 271.019C439.009 278.68 433 284.938 425.439 285.337V285.358H385.332Z" fill="url(#paint37_linear_7780_8289)"/>
<circle cx="409.884" cy="272.728" r="1.5" fill="#FFE261"/>
<path d="M93.3636 261.548C90.5303 261.548 88.2334 263.845 88.2334 266.678L88.2334 280.416C88.2334 283.249 90.5303 285.546 93.3636 285.546L131.1 285.546C133.933 285.546 136.23 283.249 136.23 280.416V266.678C136.23 263.845 133.933 261.548 131.1 261.548L93.3636 261.548Z" fill="#159DFF"/>
<path d="M93.3636 261.548C90.5303 261.548 88.2334 263.845 88.2334 266.678L88.2334 280.416C88.2334 283.249 90.5303 285.546 93.3636 285.546L131.1 285.546C133.933 285.546 136.23 283.249 136.23 280.416V266.678C136.23 263.845 133.933 261.548 131.1 261.548L93.3636 261.548Z" fill="url(#paint38_radial_7780_8289)" fill-opacity="0.7"/>
<path d="M93.3636 261.548C90.5303 261.548 88.2334 263.845 88.2334 266.678L88.2334 280.416C88.2334 283.249 90.5303 285.546 93.3636 285.546L131.1 285.546C133.933 285.546 136.23 283.249 136.23 280.416V266.678C136.23 263.845 133.933 261.548 131.1 261.548L93.3636 261.548Z" fill="url(#paint39_radial_7780_8289)" fill-opacity="0.5"/>
<path d="M93.3636 261.548C90.5303 261.548 88.2334 263.845 88.2334 266.678L88.2334 280.416C88.2334 283.249 90.5303 285.546 93.3636 285.546L131.1 285.546C133.933 285.546 136.23 283.249 136.23 280.416V266.678C136.23 263.845 133.933 261.548 131.1 261.548L93.3636 261.548Z" fill="url(#paint40_radial_7780_8289)" fill-opacity="0.5"/>
<path d="M93.3636 261.548C90.5303 261.548 88.2334 263.845 88.2334 266.678L88.2334 280.416C88.2334 283.249 90.5303 285.546 93.3636 285.546L131.1 285.546C133.933 285.546 136.23 283.249 136.23 280.416V266.678C136.23 263.845 133.933 261.548 131.1 261.548L93.3636 261.548Z" fill="url(#paint41_radial_7780_8289)" fill-opacity="0.5"/>
<path d="M93.3636 237.551C90.5303 237.551 88.2334 239.848 88.2334 242.681L88.2334 256.419C88.2334 259.252 90.5303 261.549 93.3636 261.549H131.1C133.933 261.549 136.23 259.252 136.23 256.419V242.681C136.23 239.848 133.933 237.551 131.1 237.551L93.3636 237.551Z" fill="#159DFF"/>
<path d="M93.3636 237.551C90.5303 237.551 88.2334 239.848 88.2334 242.681L88.2334 256.419C88.2334 259.252 90.5303 261.549 93.3636 261.549H131.1C133.933 261.549 136.23 259.252 136.23 256.419V242.681C136.23 239.848 133.933 237.551 131.1 237.551L93.3636 237.551Z" fill="url(#paint42_radial_7780_8289)" fill-opacity="0.7"/>
<path d="M93.3636 237.551C90.5303 237.551 88.2334 239.848 88.2334 242.681L88.2334 256.419C88.2334 259.252 90.5303 261.549 93.3636 261.549H131.1C133.933 261.549 136.23 259.252 136.23 256.419V242.681C136.23 239.848 133.933 237.551 131.1 237.551L93.3636 237.551Z" fill="url(#paint43_radial_7780_8289)" fill-opacity="0.8"/>
<path d="M93.3636 237.551C90.5303 237.551 88.2334 239.848 88.2334 242.681L88.2334 256.419C88.2334 259.252 90.5303 261.549 93.3636 261.549H131.1C133.933 261.549 136.23 259.252 136.23 256.419V242.681C136.23 239.848 133.933 237.551 131.1 237.551L93.3636 237.551Z" fill="url(#paint44_radial_7780_8289)" fill-opacity="0.5"/>
<path d="M93.3636 237.551C90.5303 237.551 88.2334 239.848 88.2334 242.681L88.2334 256.419C88.2334 259.252 90.5303 261.549 93.3636 261.549H131.1C133.933 261.549 136.23 259.252 136.23 256.419V242.681C136.23 239.848 133.933 237.551 131.1 237.551L93.3636 237.551Z" fill="url(#paint45_radial_7780_8289)" fill-opacity="0.5"/>
<circle cx="130.744" cy="251.094" r="0.736555" fill="#FEE39E"/>
<circle cx="126.325" cy="242.746" r="0.736555" fill="#FEE39E"/>
<circle cx="126.325" cy="265.334" r="0.736555" fill="#FEE39E"/>
<circle cx="111.348" cy="255.267" r="0.982074" fill="#FEE39E"/>
<circle cx="114.786" cy="278.345" r="0.982074" fill="#FEE39E"/>
<circle cx="130.744" cy="272.698" r="0.736555" fill="#FEE39E"/>
<circle cx="101.282" cy="271.717" r="0.736555" fill="#FEE39E"/>
<circle cx="95.8811" cy="245.788" r="0.736555" fill="#FEE39E"/>
<path d="M191.335 237.461C187.078 237.461 183.626 240.912 183.626 245.17L183.626 277.837C183.626 282.095 187.078 285.546 191.335 285.546H224.003C228.26 285.546 231.711 282.095 231.711 277.837V245.17C231.711 240.912 228.26 237.461 224.003 237.461L191.335 237.461Z" fill="#2BBE7C"/>
<path d="M191.335 237.461C187.078 237.461 183.626 240.912 183.626 245.17L183.626 277.837C183.626 282.095 187.078 285.546 191.335 285.546H224.003C228.26 285.546 231.711 282.095 231.711 277.837V245.17C231.711 240.912 228.26 237.461 224.003 237.461L191.335 237.461Z" fill="#007D44" fill-opacity="0.5"/>
<path d="M191.335 237.461C187.078 237.461 183.626 240.912 183.626 245.17L183.626 277.837C183.626 282.095 187.078 285.546 191.335 285.546H224.003C228.26 285.546 231.711 282.095 231.711 277.837V245.17C231.711 240.912 228.26 237.461 224.003 237.461L191.335 237.461Z" fill="url(#paint46_radial_7780_8289)" fill-opacity="0.5"/>
<path d="M191.335 237.461C187.078 237.461 183.626 240.912 183.626 245.17L183.626 277.837C183.626 282.095 187.078 285.546 191.335 285.546H224.003C228.26 285.546 231.711 282.095 231.711 277.837V245.17C231.711 240.912 228.26 237.461 224.003 237.461L191.335 237.461Z" fill="url(#paint47_radial_7780_8289)" fill-opacity="0.5"/>
<path d="M191.335 237.461C187.078 237.461 183.626 240.912 183.626 245.17L183.626 277.837C183.626 282.095 187.078 285.546 191.335 285.546H224.003C228.26 285.546 231.711 282.095 231.711 277.837V245.17C231.711 240.912 228.26 237.461 224.003 237.461L191.335 237.461Z" fill="url(#paint48_radial_7780_8289)" fill-opacity="0.6"/>
<path d="M191.335 237.461C187.078 237.461 183.626 240.912 183.626 245.17L183.626 277.837C183.626 282.095 187.078 285.546 191.335 285.546H224.003C228.26 285.546 231.711 282.095 231.711 277.837V245.17C231.711 240.912 228.26 237.461 224.003 237.461L191.335 237.461Z" fill="url(#paint49_radial_7780_8289)" fill-opacity="0.5"/>
<path d="M191.335 237.461C187.078 237.461 183.626 240.912 183.626 245.17L183.626 277.837C183.626 282.095 187.078 285.546 191.335 285.546H224.003C228.26 285.546 231.711 282.095 231.711 277.837V245.17C231.711 240.912 228.26 237.461 224.003 237.461L191.335 237.461Z" fill="url(#paint50_radial_7780_8289)" fill-opacity="0.5"/>
<path d="M191.335 237.461C187.078 237.461 183.626 240.912 183.626 245.17L183.626 277.837C183.626 282.095 187.078 285.546 191.335 285.546H224.003C228.26 285.546 231.711 282.095 231.711 277.837V245.17C231.711 240.912 228.26 237.461 224.003 237.461L191.335 237.461Z" fill="url(#paint51_radial_7780_8289)" fill-opacity="0.5"/>
<path d="M191.335 237.461C187.078 237.461 183.626 240.912 183.626 245.17L183.626 277.837C183.626 282.095 187.078 285.546 191.335 285.546H224.003C228.26 285.546 231.711 282.095 231.711 277.837V245.17C231.711 240.912 228.26 237.461 224.003 237.461L191.335 237.461Z" fill="url(#paint52_radial_7780_8289)" fill-opacity="0.5"/>
<path d="M191.335 237.461C187.078 237.461 183.626 240.912 183.626 245.17L183.626 277.837C183.626 282.095 187.078 285.546 191.335 285.546H224.003C228.26 285.546 231.711 282.095 231.711 277.837V245.17C231.711 240.912 228.26 237.461 224.003 237.461L191.335 237.461Z" fill="url(#paint53_radial_7780_8289)" fill-opacity="0.7"/>
<path d="M292.755 286.173C306.354 286.173 317.379 275.149 317.379 261.549C317.379 247.95 306.354 236.926 292.755 236.926C279.156 236.926 268.131 247.95 268.131 261.549C268.131 275.149 279.156 286.173 292.755 286.173Z" fill="url(#paint54_radial_7780_8289)"/>
<path d="M292.755 286.173C306.354 286.173 317.379 275.149 317.379 261.549C317.379 247.95 306.354 236.926 292.755 236.926C279.156 236.926 268.131 247.95 268.131 261.549C268.131 275.149 279.156 286.173 292.755 286.173Z" fill="url(#paint55_radial_7780_8289)" fill-opacity="0.15"/>
<path d="M292.755 286.173C306.354 286.173 317.379 275.149 317.379 261.549C317.379 247.95 306.354 236.926 292.755 236.926C279.156 236.926 268.131 247.95 268.131 261.549C268.131 275.149 279.156 286.173 292.755 286.173Z" fill="url(#paint56_radial_7780_8289)" fill-opacity="0.5"/>
<path d="M292.755 286.173C306.354 286.173 317.379 275.149 317.379 261.549C317.379 247.95 306.354 236.926 292.755 236.926C279.156 236.926 268.131 247.95 268.131 261.549C268.131 275.149 279.156 286.173 292.755 286.173Z" fill="url(#paint57_radial_7780_8289)" fill-opacity="0.5"/>
<defs>
<linearGradient id="paint0_linear_7780_8289" x1="311.191" y1="177.5" x2="294.691" y2="357.5" gradientUnits="userSpaceOnUse">
<stop offset="0.452024" stop-color="#E7E7E7"/>
<stop offset="0.772446" stop-color="#C9F5FF"/>
</linearGradient>
<radialGradient id="paint1_radial_7780_8289" cx="0" cy="0" r="1" gradientUnits="userSpaceOnUse" gradientTransform="translate(474.818 207.343) rotate(53.1358) scale(108.845 51.9334)">
<stop offset="0.451259" stop-color="#D0D0D0"/>
<stop offset="0.893269" stop-color="#E9E9E9" stop-opacity="0"/>
</radialGradient>
<radialGradient id="paint2_radial_7780_8289" cx="0" cy="0" r="1" gradientUnits="userSpaceOnUse" gradientTransform="translate(58.0543 222.209) rotate(146.66) scale(67.6229 32.2651)">
<stop offset="0.316172" stop-color="#D0D0D0"/>
<stop offset="1" stop-color="#E9E9E9" stop-opacity="0"/>
</radialGradient>
<radialGradient id="paint3_radial_7780_8289" cx="0" cy="0" r="1" gradientUnits="userSpaceOnUse" gradientTransform="translate(256.191 301.5) scale(283 99.8624)">
<stop offset="0.741512" stop-color="#E9E9E9" stop-opacity="0"/>
<stop offset="0.891113" stop-color="#D0D0D0"/>
</radialGradient>
<radialGradient id="paint4_radial_7780_8289" cx="0" cy="0" r="1" gradientUnits="userSpaceOnUse" gradientTransform="translate(393.691 274.5) rotate(0.516165) scale(55.5023 22.9938)">
<stop offset="0.585356" stop-color="#B9C7C9"/>
<stop offset="0.80612" stop-color="#D9EDF1" stop-opacity="0"/>
</radialGradient>
<linearGradient id="paint5_linear_7780_8289" x1="279.272" y1="94.0001" x2="160.272" y2="602" gradientUnits="userSpaceOnUse">
<stop offset="0.444243" stop-color="#E7E7E7"/>
<stop offset="0.663387" stop-color="#C9F5FF"/>
</linearGradient>
<radialGradient id="paint6_radial_7780_8289" cx="0" cy="0" r="1" gradientUnits="userSpaceOnUse" gradientTransform="translate(250.163 158.045) rotate(114.1) scale(41.9905 26.8473)">
<stop offset="0.621397" stop-color="#D0D0D0"/>
<stop offset="0.934077" stop-color="#E7E7E7" stop-opacity="0"/>
</radialGradient>
<radialGradient id="paint7_radial_7780_8289" cx="0" cy="0" r="1" gradientUnits="userSpaceOnUse" gradientTransform="translate(256 385.75) rotate(90) scale(10.25 64.4776)">
<stop offset="0.572033" stop-color="#9CB7BD"/>
<stop offset="1" stop-color="#D7EEF3" stop-opacity="0"/>
</radialGradient>
<radialGradient id="paint8_radial_7780_8289" cx="0" cy="0" r="1" gradientUnits="userSpaceOnUse" gradientTransform="translate(455.377 212.809) rotate(-178.716) scale(175.725 983.548)">
<stop offset="0.475807" stop-color="#CCCECE"/>
<stop offset="0.656013" stop-color="#CCCECE" stop-opacity="0"/>
</radialGradient>
<radialGradient id="paint9_radial_7780_8289" cx="0" cy="0" r="1" gradientUnits="userSpaceOnUse" gradientTransform="translate(256 9.12468) rotate(90) scale(209.103 257.553)">
<stop offset="0.562494" stop-color="#C0C0C0"/>
<stop offset="0.771005" stop-color="#E7E7E7" stop-opacity="0"/>
</radialGradient>
<radialGradient id="paint10_radial_7780_8289" cx="0" cy="0" r="1" gradientUnits="userSpaceOnUse" gradientTransform="translate(256.272 300) rotate(0.319194) scale(179.503 42.2024)">
<stop offset="0.459849" stop-color="#D0D0D0"/>
<stop offset="0.80612" stop-color="#E9E9E9" stop-opacity="0"/>
</radialGradient>
<linearGradient id="paint11_linear_7780_8289" x1="210.66" y1="364.434" x2="210.541" y2="388.42" gradientUnits="userSpaceOnUse">
<stop offset="0.598" stop-color="#EFE2D9"/>
<stop offset="0.74" stop-color="#D5BFAF"/>
<stop offset="0.832" stop-color="#B89F8C"/>
</linearGradient>
<radialGradient id="paint12_radial_7780_8289" cx="0" cy="0" r="1" gradientUnits="userSpaceOnUse" gradientTransform="translate(254.919 376.75) scale(49.5224 11.7648)">
<stop offset="0.752637" stop-color="#B89F8C" stop-opacity="0"/>
<stop offset="1" stop-color="#B89F8C"/>
</radialGradient>
<radialGradient id="paint13_radial_7780_8289" cx="0" cy="0" r="1" gradientUnits="userSpaceOnUse" gradientTransform="translate(273.082 186.667) rotate(123.767) scale(209.259 278.462)">
<stop stop-color="#E6D5D0"/>
<stop offset="0.473293" stop-color="#FCF1E8"/>
</radialGradient>
<radialGradient id="paint14_radial_7780_8289" cx="0" cy="0" r="1" gradientUnits="userSpaceOnUse" gradientTransform="translate(362.772 259.375) rotate(-89.7058) scale(97.3765 53.0215)">
<stop offset="0.232804" stop-color="#B9A69A"/>
<stop offset="0.915344" stop-color="#FFF6EE" stop-opacity="0"/>
</radialGradient>
<radialGradient id="paint15_radial_7780_8289" cx="0" cy="0" r="1" gradientUnits="userSpaceOnUse" gradientTransform="translate(256 217.5) rotate(-180) scale(212.631 35.4338)">
<stop offset="0.347471" stop-color="#B9A69A"/>
<stop offset="0.768539" stop-color="#FFF6EE" stop-opacity="0"/>
</radialGradient>
<radialGradient id="paint16_radial_7780_8289" cx="0" cy="0" r="1" gradientUnits="userSpaceOnUse" gradientTransform="translate(286.648 276.996) rotate(97.6867) scale(20.0379 26.4356)">
<stop offset="0.694822" stop-color="#CFBEB4"/>
<stop offset="1" stop-color="#FFF7EF" stop-opacity="0"/>
</radialGradient>
<linearGradient id="paint17_linear_7780_8289" x1="173.938" y1="269.459" x2="224.75" y2="270.04" gradientUnits="userSpaceOnUse">
<stop stop-color="#FFF4EB" stop-opacity="0"/>
<stop offset="0.114025" stop-color="#CFBEB4"/>
<stop offset="0.892803" stop-color="#CFBEB4"/>
<stop offset="1" stop-color="#FFF4EB" stop-opacity="0"/>
</linearGradient>
<linearGradient id="paint18_linear_7780_8289" x1="199.344" y1="248.553" x2="199.344" y2="263.1" gradientUnits="userSpaceOnUse">
<stop stop-color="#F8ECE3"/>
<stop offset="1" stop-color="#FFF4EB" stop-opacity="0"/>
</linearGradient>
<linearGradient id="paint19_linear_7780_8289" x1="199.344" y1="294.855" x2="199.344" y2="254.507" gradientUnits="userSpaceOnUse">
<stop offset="0.0347291" stop-color="#FFF4EB"/>
<stop offset="0.133348" stop-color="#FFF4EB" stop-opacity="0"/>
</linearGradient>
<linearGradient id="paint20_linear_7780_8289" x1="80.2876" y1="248.335" x2="128.93" y2="249.42" gradientUnits="userSpaceOnUse">
<stop stop-color="#E6E6E6" stop-opacity="0"/>
<stop offset="0.0700287" stop-color="#C0C0C0"/>
<stop offset="0.892803" stop-color="#C0C0C0"/>
<stop offset="1" stop-color="#E6E6E6" stop-opacity="0"/>
</linearGradient>
<linearGradient id="paint21_linear_7780_8289" x1="104.618" y1="238.069" x2="104.618" y2="242.241" gradientUnits="userSpaceOnUse">
<stop stop-color="#D1D1D1"/>
<stop offset="1" stop-color="#E6E6E6" stop-opacity="0"/>
</linearGradient>
<linearGradient id="paint22_linear_7780_8289" x1="104.618" y1="260.807" x2="104.618" y2="240.993" gradientUnits="userSpaceOnUse">
<stop offset="0.0347291" stop-color="#DCECF0"/>
<stop offset="0.236878" stop-color="#E3E8E9" stop-opacity="0"/>
</linearGradient>
<linearGradient id="paint23_linear_7780_8289" x1="79.2964" y1="276.249" x2="132.508" y2="277.155" gradientUnits="userSpaceOnUse">
<stop stop-color="#DAECF0" stop-opacity="0"/>
<stop offset="0.0849153" stop-color="#B9C7C9"/>
<stop offset="0.892803" stop-color="#B9C7C9"/>
<stop offset="1" stop-color="#DAECF0" stop-opacity="0"/>
</linearGradient>
<radialGradient id="paint24_radial_7780_8289" cx="0" cy="0" r="1" gradientUnits="userSpaceOnUse" gradientTransform="translate(104.023 276.54) rotate(-83.5551) scale(16.7842 45.2893)">
<stop offset="0.724305" stop-color="#E0E9EB" stop-opacity="0"/>
<stop offset="0.919324" stop-color="#CFF2FA"/>
</radialGradient>
<linearGradient id="paint25_linear_7780_8289" x1="87.6142" y1="261.55" x2="87.3642" y2="283" gradientUnits="userSpaceOnUse">
<stop offset="0.0347291" stop-color="#DCECF0"/>
<stop offset="0.236878" stop-color="#E3E8E9" stop-opacity="0"/>
</linearGradient>
<radialGradient id="paint26_radial_7780_8289" cx="0" cy="0" r="1" gradientUnits="userSpaceOnUse" gradientTransform="translate(260.06 133.396) rotate(120.18) scale(38.778)">
<stop offset="0.05" stop-color="#E8CCFF"/>
<stop offset="0.23" stop-color="#C594FF"/>
<stop offset="0.36" stop-color="#AD6CFF"/>
<stop offset="0.51" stop-color="#8E42FF"/>
<stop offset="0.78" stop-color="#E0538F"/>
</radialGradient>
<radialGradient id="paint27_radial_7780_8289" cx="0" cy="0" r="1" gradientUnits="userSpaceOnUse" gradientTransform="translate(255.998 141.585) rotate(97.82) scale(33.6133)">
<stop offset="0.45" stop-color="white" stop-opacity="0"/>
<stop offset="0.84" stop-color="white"/>
</radialGradient>
<linearGradient id="paint28_linear_7780_8289" x1="403.482" y1="240.39" x2="403.482" y2="285.358" gradientUnits="userSpaceOnUse">
<stop offset="0.907678" stop-color="#208CF2"/>
</linearGradient>
<radialGradient id="paint29_radial_7780_8289" cx="0" cy="0" r="1" gradientUnits="userSpaceOnUse" gradientTransform="translate(417.04 274.331) rotate(166.906) scale(48.6729 40.2571)">
<stop offset="0.222279" stop-color="#218CF2" stop-opacity="0"/>
<stop offset="0.421807" stop-color="#77BCFF"/>
<stop offset="0.518133" stop-color="#77BCFF"/>
<stop offset="0.547247" stop-color="#218CF2" stop-opacity="0"/>
</radialGradient>
<radialGradient id="paint30_radial_7780_8289" cx="0" cy="0" r="1" gradientUnits="userSpaceOnUse" gradientTransform="translate(406.665 258.456) rotate(136.332) scale(38.0173 31.7479)">
<stop offset="0.422239" stop-color="#218CF2"/>
<stop offset="0.547247" stop-color="#218CF2" stop-opacity="0"/>
</radialGradient>
<radialGradient id="paint31_radial_7780_8289" cx="0" cy="0" r="1" gradientUnits="userSpaceOnUse" gradientTransform="translate(403.482 256.581) rotate(86.173) scale(32.6979 38.6809)">
<stop offset="0.239682" stop-color="#218CF2" stop-opacity="0"/>
<stop offset="0.475122" stop-color="#77BCFF"/>
<stop offset="0.518133" stop-color="#77BCFF"/>
<stop offset="0.633477" stop-color="#77BCFF" stop-opacity="0"/>
</radialGradient>
<radialGradient id="paint32_radial_7780_8289" cx="0" cy="0" r="1" gradientUnits="userSpaceOnUse" gradientTransform="translate(394.915 272.956) rotate(-162.826) scale(52.0716 43.4846)">
<stop offset="0.483384" stop-color="#218CF2"/>
<stop offset="0.547247" stop-color="#218CF2" stop-opacity="0"/>
</radialGradient>
<radialGradient id="paint33_radial_7780_8289" cx="0" cy="0" r="1" gradientUnits="userSpaceOnUse" gradientTransform="translate(418.04 271.081) rotate(168.503) scale(30.104 20.8963)">
<stop offset="0.42981" stop-color="#218CF2"/>
<stop offset="0.59597" stop-color="#218CF2" stop-opacity="0"/>
</radialGradient>
<radialGradient id="paint34_radial_7780_8289" cx="0" cy="0" r="1" gradientUnits="userSpaceOnUse" gradientTransform="translate(381.665 269.331) rotate(39.629) scale(31.1611 36.8629)">
<stop offset="0.259039" stop-color="#218CF2" stop-opacity="0"/>
<stop offset="0.475122" stop-color="#77BCFF"/>
<stop offset="0.518133" stop-color="#77BCFF"/>
<stop offset="0.633477" stop-color="#77BCFF" stop-opacity="0"/>
</radialGradient>
<radialGradient id="paint35_radial_7780_8289" cx="0" cy="0" r="1" gradientUnits="userSpaceOnUse" gradientTransform="translate(397.415 266.456) rotate(112.834) scale(38.6541 32.4248)">
<stop offset="0.483384" stop-color="#218CF2"/>
<stop offset="0.59597" stop-color="#218CF2" stop-opacity="0"/>
</radialGradient>
<radialGradient id="paint36_radial_7780_8289" cx="0" cy="0" r="1" gradientUnits="userSpaceOnUse" gradientTransform="translate(383.165 274.956) rotate(115.685) scale(76.4266 109.014)">
<stop offset="0.150986" stop-color="#66E3FF"/>
<stop offset="0.352311" stop-color="#218CF2" stop-opacity="0"/>
</radialGradient>
<linearGradient id="paint37_linear_7780_8289" x1="403.482" y1="240.39" x2="403.482" y2="285.358" gradientUnits="userSpaceOnUse">
<stop offset="0.907678" stop-color="#208CF2" stop-opacity="0"/>
<stop offset="0.982731" stop-color="#006CD1"/>
</linearGradient>
<radialGradient id="paint38_radial_7780_8289" cx="0" cy="0" r="1" gradientUnits="userSpaceOnUse" gradientTransform="translate(86.7897 273.522) rotate(-180) scale(18.2105 51.1816)">
<stop offset="0.244971" stop-color="#0069E3"/>
<stop offset="0.866715" stop-color="#3FAEFF" stop-opacity="0"/>
</radialGradient>
<radialGradient id="paint39_radial_7780_8289" cx="0" cy="0" r="1" gradientUnits="userSpaceOnUse" gradientTransform="translate(112.384 286.585) rotate(90) scale(13.3386 217.528)">
<stop stop-color="#207BD9" stop-opacity="0.5"/>
<stop offset="0.267341" stop-color="#0047B2"/>
<stop offset="0.498581" stop-color="#207BD9"/>
<stop offset="0.752741" stop-color="#3FAEFF" stop-opacity="0"/>
</radialGradient>
<radialGradient id="paint40_radial_7780_8289" cx="0" cy="0" r="1" gradientUnits="userSpaceOnUse" gradientTransform="translate(139.061 273.389) scale(13.0821 46.5476)">
<stop stop-color="#F2F1F3"/>
<stop offset="0.659312" stop-color="#D9EEF3" stop-opacity="0"/>
</radialGradient>
<radialGradient id="paint41_radial_7780_8289" cx="0" cy="0" r="1" gradientUnits="userSpaceOnUse" gradientTransform="translate(112.127 263.129) rotate(-89.5782) scale(7.43223 105.778)">
<stop offset="0.0270583" stop-color="#F2F1F3"/>
<stop offset="0.500428" stop-color="#D9EEF3" stop-opacity="0"/>
</radialGradient>
<radialGradient id="paint42_radial_7780_8289" cx="0" cy="0" r="1" gradientUnits="userSpaceOnUse" gradientTransform="translate(86.7897 249.525) rotate(-180) scale(18.2105 51.1813)">
<stop offset="0.244971" stop-color="#0069E3"/>
<stop offset="0.866715" stop-color="#3FAEFF" stop-opacity="0"/>
</radialGradient>
<radialGradient id="paint43_radial_7780_8289" cx="0" cy="0" r="1" gradientUnits="userSpaceOnUse" gradientTransform="translate(112.127 261.705) rotate(90) scale(13.3386 134.053)">
<stop offset="0.285405" stop-color="#0047B2"/>
<stop offset="1" stop-color="#3FAEFF" stop-opacity="0"/>
</radialGradient>
<radialGradient id="paint44_radial_7780_8289" cx="0" cy="0" r="1" gradientUnits="userSpaceOnUse" gradientTransform="translate(139.061 249.392) scale(13.0821 46.5473)">
<stop stop-color="#F2F1F3"/>
<stop offset="0.659312" stop-color="#D9EEF3" stop-opacity="0"/>
</radialGradient>
<radialGradient id="paint45_radial_7780_8289" cx="0" cy="0" r="1" gradientUnits="userSpaceOnUse" gradientTransform="translate(112.127 239.131) rotate(-89.5782) scale(7.43219 105.778)">
<stop offset="0.0270583" stop-color="#F2F1F3"/>
<stop offset="0.500428" stop-color="#D9EEF3" stop-opacity="0"/>
</radialGradient>
<radialGradient id="paint46_radial_7780_8289" cx="0" cy="0" r="1" gradientUnits="userSpaceOnUse" gradientTransform="translate(214.814 287.921) rotate(57.0948) scale(31.2181 8.31327)">
<stop offset="0.297661" stop-color="#8EE779"/>
<stop offset="0.916367" stop-color="#0EC06F" stop-opacity="0"/>
</radialGradient>
<radialGradient id="paint47_radial_7780_8289" cx="0" cy="0" r="1" gradientUnits="userSpaceOnUse" gradientTransform="translate(222.009 280.983) rotate(60.6621) scale(40.3826 18.4927)">
<stop offset="0.297661" stop-color="#8EE779"/>
<stop offset="0.916367" stop-color="#0EC06F" stop-opacity="0"/>
</radialGradient>
<radialGradient id="paint48_radial_7780_8289" cx="0" cy="0" r="1" gradientUnits="userSpaceOnUse" gradientTransform="translate(182.18 261.454) rotate(-180) scale(18.2441 102.551)">
<stop offset="0.220941" stop-color="#007D44"/>
<stop offset="0.866715" stop-color="#0EC06F" stop-opacity="0"/>
</radialGradient>
<radialGradient id="paint49_radial_7780_8289" cx="0" cy="0" r="1" gradientUnits="userSpaceOnUse" gradientTransform="translate(207.619 292.289) rotate(-90) scale(14.3897 740.046)">
<stop offset="0.446914" stop-color="#0EC06F" stop-opacity="0.5"/>
<stop offset="0.618093" stop-color="#026E3D"/>
<stop offset="0.713663" stop-color="#007D44"/>
<stop offset="1" stop-color="#0EC06F" stop-opacity="0"/>
</radialGradient>
<radialGradient id="paint50_radial_7780_8289" cx="0" cy="0" r="1" gradientUnits="userSpaceOnUse" gradientTransform="translate(233.315 279.441) rotate(58.431) scale(25.032 11.0468)">
<stop offset="0.297661" stop-color="#8EE779"/>
<stop offset="0.916367" stop-color="#0EC06F" stop-opacity="0"/>
</radialGradient>
<radialGradient id="paint51_radial_7780_8289" cx="0" cy="0" r="1" gradientUnits="userSpaceOnUse" gradientTransform="translate(185.777 288.178) rotate(55.9807) scale(49.603 16.9356)">
<stop offset="0.38475" stop-color="#8EE779"/>
<stop offset="0.916367" stop-color="#0EC06F" stop-opacity="0"/>
</radialGradient>
<radialGradient id="paint52_radial_7780_8289" cx="0" cy="0" r="1" gradientUnits="userSpaceOnUse" gradientTransform="translate(231.773 261.454) scale(15.6745 111.543)">
<stop offset="0.0270583" stop-color="#F2F1F3"/>
<stop offset="0.500428" stop-color="#D9EEF3" stop-opacity="0"/>
</radialGradient>
<radialGradient id="paint53_radial_7780_8289" cx="0" cy="0" r="1" gradientUnits="userSpaceOnUse" gradientTransform="translate(207.619 238.842) rotate(-90) scale(13.1049 93.2569)">
<stop offset="0.0270583" stop-color="#F2F1F3"/>
<stop offset="0.500428" stop-color="#D9EEF3" stop-opacity="0"/>
</radialGradient>
<radialGradient id="paint54_radial_7780_8289" cx="0" cy="0" r="1" gradientUnits="userSpaceOnUse" gradientTransform="translate(300.767 246.936) rotate(112.38) scale(37.9064 37.9065)">
<stop offset="0.52599" stop-color="#FFA800"/>
<stop offset="1" stop-color="#FF7A00"/>
</radialGradient>
<radialGradient id="paint55_radial_7780_8289" cx="0" cy="0" r="1" gradientUnits="userSpaceOnUse" gradientTransform="translate(292.913 261.499) rotate(90) scale(33.4234 33.4235)">
<stop offset="0.510417" stop-color="white"/>
<stop offset="1" stop-color="#FF9496" stop-opacity="0"/>
</radialGradient>
<radialGradient id="paint56_radial_7780_8289" cx="0" cy="0" r="1" gradientUnits="userSpaceOnUse" gradientTransform="translate(292.913 247.814) rotate(92.745) scale(38.4679 37.1753)">
<stop offset="0.59413" stop-color="#FFB527" stop-opacity="0"/>
<stop offset="0.869323" stop-color="#BC611B"/>
<stop offset="0.925026" stop-color="#BC611B"/>
<stop offset="1" stop-color="#D5C09F"/>
</radialGradient>
<radialGradient id="paint57_radial_7780_8289" cx="0" cy="0" r="1" gradientUnits="userSpaceOnUse" gradientTransform="translate(292.913 264.131) rotate(90) scale(31.0548 31.0549)">
<stop offset="0.59413" stop-color="#FFC852" stop-opacity="0"/>
<stop offset="0.810026" stop-color="#F2F1F3"/>
<stop offset="0.925026" stop-color="#F2F1F3"/>
<stop offset="1" stop-color="#C35B24"/>
</radialGradient>
</defs>
</svg>
