<svg width="18" height="18" viewBox="0 0 18 18" fill="none" xmlns="http://www.w3.org/2000/svg">
<path d="M1.07935 12.4128H16.1906V15.1113C16.1906 15.7049 15.7049 16.1906 15.1112 16.1906H2.15872C1.56506 16.1906 1.07935 15.7049 1.07935 15.1113V12.4128Z" fill="#5A4CDB"/>
<path d="M6.47622 9.17469H1.07935V12.4128H6.47622V9.17469Z" fill="#AA72E1"/>
<path d="M13.7967 1.05936L1.91237 3.80307C1.33152 3.93717 0.969365 4.51674 1.10346 5.09759L1.41911 6.46481C1.55321 7.04566 2.13279 7.40782 2.71363 7.27372L14.598 4.53C15.1788 4.3959 15.541 3.81633 15.4069 3.23549L15.0912 1.86826C14.9571 1.28742 14.3775 0.925258 13.7967 1.05936Z" fill="url(#paint0_linear_1982_20836)"/>
<path d="M10.7938 5.93656H15.1113C15.7049 5.93656 16.1906 6.42228 16.1906 7.01594V9.17469H10.7938V5.93656Z" fill="#AA72E1"/>
<path d="M16.1906 9.17469H6.47626V12.4128H16.1906V9.17469Z" fill="#885EDE"/>
<path d="M10.7937 5.93656H1.07935V9.17469H10.7937V5.93656Z" fill="#C689E6"/>
<path d="M1.07935 4.85719V5.93656H2.15872C1.56506 5.93656 1.07935 5.45084 1.07935 4.85719Z" fill="#C689E6"/>
<path d="M1.07935 11.3334V12.4128H2.15872C1.56506 12.4128 1.07935 11.9271 1.07935 11.3334Z" fill="#5A4CDB"/>
<path d="M1.07935 8.09531V9.17469H2.15872C1.56506 9.17469 1.07935 8.68897 1.07935 8.09531Z" fill="#AA72E1"/>
<g style="mix-blend-mode:soft-light">
<path d="M15.1112 5.93656H2.15872C1.55967 5.93656 1.07935 5.45084 1.07935 4.85719V5.93656V15.1113C1.07935 15.7049 1.56506 16.1906 2.15872 16.1906H15.1112C15.7049 16.1906 16.1906 15.7049 16.1906 15.1113V7.01594C16.1906 6.42228 15.7049 5.93656 15.1112 5.93656Z" fill="url(#paint1_linear_1982_20836)"/>
</g>
<defs>
<linearGradient id="paint0_linear_1982_20836" x1="0.860657" y1="4.04588" x2="9.93648" y2="11.3684" gradientUnits="userSpaceOnUse">
<stop stop-color="#5A4CDB"/>
<stop offset="1" stop-color="#AD58DB"/>
</linearGradient>
<linearGradient id="paint1_linear_1982_20836" x1="1.07935" y1="4.85719" x2="17.9664" y2="11.9814" gradientUnits="userSpaceOnUse">
<stop stop-color="#FCCEF5"/>
<stop offset="1" stop-color="#5A4CDB"/>
</linearGradient>
</defs>
</svg>
