<svg width="18" height="18" viewBox="0 0 18 18" fill="none" xmlns="http://www.w3.org/2000/svg">
<path d="M8.63548 0.539688C5.52886 0.539688 5.8839 2.70889 1.82421 2.70889C1.37486 2.70889 1.08195 3.01181 1.08195 3.37826V6.46984C1.06687 7.19423 1.11738 7.9185 1.23285 8.63337L1.49915 9.06108L9.47509 9.48551L9.0556 0.965758L8.63548 0.539688Z" fill="#36C2F1"/>
<path d="M8.63343 8.63374L7.79382 12.8957L8.63343 16.7286C9.33353 16.7286 12.4812 14.4493 14.3252 12.1485C15.3693 10.8461 15.833 9.74898 16.035 8.63147L12.4117 7.78284L8.63343 8.63374Z" fill="#105196"/>
<path d="M16.0365 8.63337C16.1524 7.91853 16.2033 7.19426 16.1885 6.46984V3.37826C16.1885 3.01181 15.8945 2.70889 15.4452 2.70889C11.3855 2.70889 11.7361 0.539688 8.63501 0.539688V8.63337H16.0365Z" fill="#0680D7"/>
<path d="M1.23328 8.63322C1.43632 9.74846 1.89898 10.8455 2.94303 12.1502C4.78703 14.4511 7.93581 16.7303 8.63591 16.7303V8.63322H1.23328Z" fill="#0373CC"/>
</svg>
