<svg width="235" height="216" viewBox="0 0 235 216" fill="none" xmlns="http://www.w3.org/2000/svg">
<g clip-path="url(#clip0_2245_3736)">
<path d="M202.427 91.9807L145.196 149.711C141.854 153.052 143.364 158.885 148.039 160.058L226.639 180.913C231.314 182.086 235.477 177.909 234.319 173.234L212.965 94.8094C211.47 90.1341 205.784 88.4633 202.457 91.9661L202.427 91.9807Z" fill="url(#paint0_linear_2245_3736)"/>
<path d="M35.8927 26.5713L1.84679 100.496C-0.161082 104.834 3.3417 109.671 8.01696 109.334L88.9473 101.83C93.7838 101.332 96.29 95.9821 93.4467 91.981L46.5622 25.5747C43.719 21.5736 37.8859 22.2331 35.878 26.5713H35.8927Z" fill="url(#paint1_linear_2245_3736)"/>
<path d="M100.628 36.9181L2.34468 182.599C-3.50306 191.114 2.18347 202.795 12.5306 203.63L187.904 215.985C198.251 216.659 205.433 205.975 200.919 196.625L123.828 38.5889C119.329 29.2384 106.476 28.403 100.628 36.9181V36.9181Z" fill="url(#paint2_linear_2245_3736)"/>
<g filter="url(#filter0_d_2245_3736)">
<path d="M103.971 155.397C100.307 155.06 97.4635 151.895 97.8006 148.216L102.637 79.963C102.974 76.299 106.14 73.4557 109.819 73.7928C113.483 74.1299 116.326 77.2956 115.989 80.9742L111.152 149.227C110.815 152.891 107.649 155.573 103.971 155.397V155.397Z" fill="white"/>
<path d="M102.974 178.759C107.121 178.759 110.477 175.402 110.477 171.255C110.477 167.107 107.121 163.751 102.974 163.751C98.826 163.751 95.4697 167.107 95.4697 171.255C95.4697 175.402 98.826 178.759 102.974 178.759Z" fill="white"/>
</g>
<path d="M27.3772 72.9574C23.8744 73.954 20.1957 71.9608 19.1991 68.2822L5.52508 20.064C4.52847 16.5612 6.52168 12.8825 10.2003 11.8859C13.7031 10.8893 17.3818 12.8825 18.3784 16.5612L32.0671 64.7794C32.9025 68.2822 30.8946 71.9608 27.3918 72.9574H27.3772Z" fill="#28C2D1"/>
<path d="M31.7148 95.8207C35.8624 95.8207 39.2187 92.4645 39.2187 88.3169C39.2187 84.1692 35.8624 80.813 31.7148 80.813C27.5672 80.813 24.2109 84.1692 24.2109 88.3169C24.2109 92.4645 27.5672 95.8207 31.7148 95.8207Z" fill="#28C2D1"/>
<path d="M210.109 131.2C206.606 130.204 204.598 126.364 205.609 122.861L219.958 74.9652C220.954 71.4624 224.794 69.4545 228.297 70.4658C231.8 71.4771 233.807 75.3023 232.796 78.8051L218.272 126.862C217.276 130.365 213.597 132.373 210.094 131.2H210.109Z" fill="#0078D4"/>
<path d="M205.433 154.063C209.58 154.063 212.936 150.707 212.936 146.56C212.936 142.412 209.58 139.056 205.433 139.056C201.285 139.056 197.929 142.412 197.929 146.56C197.929 150.707 201.285 154.063 205.433 154.063Z" fill="#0078D4"/>
<path d="M27.3772 72.9574C23.8744 73.954 20.1957 71.9608 19.1991 68.2822L5.52508 20.064C4.52847 16.5612 6.52168 12.8825 10.2003 11.8859C13.7031 10.8893 17.3818 12.8825 18.3784 16.5612L32.0671 64.7794C32.9025 68.2822 30.8946 71.9608 27.3918 72.9574H27.3772Z" fill="#5EC3EF"/>
<path d="M31.7148 95.8207C35.8624 95.8207 39.2187 92.4645 39.2187 88.3169C39.2187 84.1692 35.8624 80.813 31.7148 80.813C27.5672 80.813 24.2109 84.1692 24.2109 88.3169C24.2109 92.4645 27.5672 95.8207 31.7148 95.8207Z" fill="#5EC3EF"/>
<path d="M128.84 19.0673C127.844 20.7381 128.166 22.7313 129.515 24.0797C129.676 24.2409 130.013 24.578 130.35 24.578C132.358 25.7505 134.849 25.0763 135.861 23.2443L141.034 14.5679C141.533 13.5713 141.708 12.5601 141.533 11.4022C141.371 10.5668 140.858 9.73146 140.199 9.23315C140.038 9.07194 139.862 9.07194 139.701 8.89607C137.693 7.72359 135.201 8.39776 134.19 10.2298L128.855 19.0673H128.84Z" fill="#C2C1BE"/>
<path d="M144.684 37.5923C144.845 37.9294 145.182 38.4277 145.519 38.7648C146.853 39.9373 148.685 40.2597 150.195 39.439L158.871 35.1008C159.868 34.6025 160.542 33.7671 160.879 32.7705C161.216 31.7739 161.216 30.6014 160.718 29.6048C160.38 29.1065 160.043 28.6082 159.545 28.2711C159.208 27.934 158.71 27.7728 158.373 27.5969C157.376 27.2598 156.204 27.2598 155.207 27.7581L146.531 32.0963C145.534 32.5946 144.86 33.43 144.523 34.4266C144.186 35.5991 144.186 36.5957 144.684 37.5923Z" fill="#C2C1BE"/>
<path d="M108.484 15.3886C108.645 16.224 108.982 17.0594 109.656 17.7189C110.492 18.5543 111.825 19.0526 112.998 18.8914C115.167 18.5543 116.838 16.5611 116.501 14.2162L115.006 3.53194C114.844 2.53533 114.331 1.52407 113.511 0.864546C112.69 0.205027 111.503 -0.132061 110.345 0.0291547C108.176 0.366242 106.505 2.35946 106.842 4.70442L108.513 15.3886H108.484Z" fill="#C2C1BE"/>
</g>
<defs>
<filter id="filter0_d_2245_3736" x="86.6761" y="66.4376" width="49.8579" height="134.305" filterUnits="userSpaceOnUse" color-interpolation-filters="sRGB">
<feFlood flood-opacity="0" result="BackgroundImageFix"/>
<feColorMatrix in="SourceAlpha" type="matrix" values="0 0 0 0 0 0 0 0 0 0 0 0 0 0 0 0 0 0 127 0" result="hardAlpha"/>
<feOffset dx="5.8624" dy="7.328"/>
<feGaussianBlur stdDeviation="7.328"/>
<feColorMatrix type="matrix" values="0 0 0 0 1 0 0 0 0 0.780392 0 0 0 0 0 0 0 0 0.35 0"/>
<feBlend mode="normal" in2="BackgroundImageFix" result="effect1_dropShadow_2245_3736"/>
<feBlend mode="normal" in="SourceGraphic" in2="effect1_dropShadow_2245_3736" result="shape"/>
</filter>
<linearGradient id="paint0_linear_2245_3736" x1="140.037" y1="151.733" x2="201.929" y2="138.851" gradientUnits="userSpaceOnUse">
<stop stop-color="#3CCBF4"/>
<stop offset="0.18" stop-color="#46CDF4"/>
<stop offset="0.5" stop-color="#63D5F6"/>
<stop offset="0.91" stop-color="#92E1F9"/>
<stop offset="1" stop-color="#9EE5FA"/>
</linearGradient>
<linearGradient id="paint1_linear_2245_3736" x1="12.8388" y1="38.5306" x2="59.5767" y2="119.461" gradientUnits="userSpaceOnUse">
<stop stop-color="#A8F3FF"/>
<stop offset="0.48" stop-color="#A5EFFD"/>
<stop offset="0.89" stop-color="#9EE5FA"/>
</linearGradient>
<linearGradient id="paint2_linear_2245_3736" x1="7.18116" y1="206.136" x2="167.254" y2="113.73" gradientUnits="userSpaceOnUse">
<stop offset="0.09" stop-color="#FBC455"/>
<stop offset="0.35" stop-color="#FBC961"/>
<stop offset="0.81" stop-color="#FDD982"/>
<stop offset="1" stop-color="#FFE192"/>
</linearGradient>
<clipPath id="clip0_2245_3736">
<rect width="234.496" height="216" fill="white"/>
</clipPath>
</defs>
</svg>
