<svg viewBox="0 0 32 32" fill="none" xmlns="http://www.w3.org/2000/svg">
<g clip-path="url(#clip0_2414_514)">
<path d="M23.5729 24.9871L28.293 29.7071C28.6835 30.0976 29.3167 30.0976 29.7072 29.707C30.0977 29.3165 30.0977 28.6833 29.7072 28.2928L3.70685 2.29313C3.31633 1.90261 2.68316 1.90262 2.29264 2.29315C1.90212 2.68367 1.90213 3.31684 2.29266 3.70736L8.86747 10.282C8.42722 11.1832 8.1645 12.1357 8.05694 13.0471C3.93095 13.4699 2.00006 16.6443 2.00006 18.9999C2.00006 20.1452 2.28398 21.6644 3.37248 22.9084C4.48483 24.1797 6.29258 24.9999 9.00006 24.9999H23.0001C23.1942 24.9999 23.3852 24.9957 23.5729 24.9871ZM21.5857 22.9999H9.00006C6.70754 22.9999 5.51529 22.3202 4.87764 21.5914C4.21614 20.8354 4.00006 19.8547 4.00006 18.9999C4.00006 17.5283 5.3764 14.9999 9.00006 14.9999C9.55235 14.9999 10.0001 14.5522 10.0001 13.9999C10.0001 13.3025 10.1263 12.5423 10.3916 11.8061L21.5857 22.9999ZM26.8442 21.8888C26.6045 22.0971 26.3174 22.2846 25.9785 22.4437L27.4519 23.917C27.7023 23.7613 27.9373 23.5886 28.1559 23.3986C29.4166 22.3034 30.0001 20.7537 30.0001 18.9999C30.0001 17.114 29.0629 15.5892 27.7363 14.5647C26.6687 13.7403 25.3331 13.2222 23.9554 13.0572C23.7307 10.7383 22.6793 9.01363 21.2583 7.85098C19.6822 6.56144 17.7001 5.99994 16.0001 5.99994C13.9613 5.99994 12.3285 6.60151 11.0837 7.54919L12.5159 8.98138C13.3906 8.38537 14.5318 7.99994 16.0001 7.99994C17.3 7.99994 18.8179 8.43844 19.9918 9.3989C21.1345 10.3338 22.0001 11.7996 22.0001 13.9999C22.0001 14.5522 22.4478 14.9999 23.0001 14.9999C24.2962 14.9999 25.5771 15.4243 26.5139 16.1476C27.4372 16.8606 28.0001 17.8358 28.0001 18.9999C28.0001 20.2962 27.5835 21.2466 26.8442 21.8888Z" fill="#515C6B"/>
</g>
<defs>
<clipPath id="clip0_2414_514">
<rect width="32" height="32" fill="white"/>
</clipPath>
</defs>
</svg>
