<svg viewBox="0 0 32 32" fill="none" xmlns="http://www.w3.org/2000/svg">
<g clip-path="url(#clip0_2414_519)">
<path d="M29.7069 2.29277C29.3164 1.90225 28.6832 1.90225 28.2927 2.29277L18.9517 11.6338C16.047 9.42826 11.9376 9.75988 9.30504 12.3804L7.93681 13.6574L2.58599 16.0895C2.2874 16.2252 2.07434 16.4987 2.01582 16.8214C1.95729 17.1442 2.06074 17.4751 2.29266 17.707L14.2927 29.707C14.5246 29.9389 14.8555 30.0424 15.1782 29.9838C15.5009 29.9253 15.7744 29.7123 15.9101 29.4137L18.3349 24.079L19.7066 22.7072C22.3565 20.0573 22.5766 15.9406 20.3668 13.0471L29.7069 3.70698C30.0974 3.31646 30.0974 2.6833 29.7069 2.29277ZM8.28243 15.6972L16.3024 23.7172L14.6865 27.2724L4.72725 17.3132L8.28243 15.6972ZM17.4995 22.0859L9.93854 14.5249L10.6818 13.8312L10.7066 13.8072C12.8361 11.6777 16.2039 11.6187 18.2924 13.7072C20.4013 15.8161 20.4013 19.1842 18.2924 21.293L17.4995 22.0859Z" fill="#515C6B"/>
</g>
<defs>
<clipPath id="clip0_2414_519">
<rect width="32" height="32" fill="white"/>
</clipPath>
</defs>
</svg>
