<svg width="248" height="69" viewBox="0 0 248 69" fill="none" xmlns="http://www.w3.org/2000/svg">
<g clip-path="url(#clip0_206_48137)">
<g clip-path="url(#clip1_206_48137)">
<path d="M62.3469 44.7506C51.4307 48.8585 40.5164 52.8965 29.6726 56.9364C21.8823 45.0968 16.98 30.9568 15.7067 15.7973C25.8333 12.1575 36.0305 8.51973 46.2296 4.81199C48.2866 19.7132 53.9061 33.453 62.3469 44.7506Z" fill="#C3F2F4"/>
<path d="M24.9505 26.1371C24.2372 26.3973 23.5945 26.6596 22.8832 26.8499C22.5266 26.98 22.1797 26.7603 22.0483 26.4065C21.8581 25.631 21.7364 24.9275 21.5461 24.152C21.4872 23.7302 21.7106 23.3163 22.0672 23.1862C22.7804 22.9259 23.4231 22.6637 24.1344 22.4734C24.4911 22.3433 24.838 22.563 24.8988 22.9148C25.0891 23.6903 25.2107 24.3938 25.401 25.1693C25.5304 25.593 25.3071 26.0069 24.9505 26.1371Z" fill="white"/>
<path d="M27.012 33.2663C26.2988 33.5266 25.656 33.7888 24.9428 34.0491C24.5862 34.1792 24.1687 33.9575 24.0373 33.6038C23.7746 32.8963 23.5824 32.1908 23.3921 31.4153C23.2607 31.0615 23.484 30.6476 23.8407 30.5175C24.5539 30.2572 25.1966 29.995 25.9099 29.7347C26.2665 29.6046 26.684 29.8263 26.7448 30.1781C26.937 30.8836 27.1997 31.5911 27.392 32.2966C27.5214 32.7203 27.3706 33.0662 27.012 33.2663Z" fill="white"/>
<path d="M29.5767 40.0593C28.8634 40.3195 28.1502 40.5798 27.4369 40.8401C27.0803 40.9702 26.6609 40.8185 26.5295 40.4647C26.2668 39.7573 26.0021 39.1197 25.7393 38.4122C25.608 38.0585 25.7607 37.6426 26.1173 37.5125C26.8306 37.2522 27.5438 36.992 28.1865 36.7297C28.5432 36.5996 28.9626 36.7513 29.092 37.175C29.3548 37.8825 29.6175 38.59 29.9528 39.2295C30.1566 39.5152 29.9333 39.9291 29.5767 40.0593Z" fill="white"/>
<path d="M32.7152 46.5183C32.002 46.7786 31.2887 47.0388 30.5755 47.2991C30.2188 47.4292 29.7289 47.2756 29.5975 46.9218C29.2623 46.2823 28.927 45.6429 28.5937 44.9334C28.4624 44.5797 28.6151 44.1638 28.9717 44.0337C29.685 43.7734 30.3982 43.5131 31.1115 43.2529C31.4681 43.1227 31.8875 43.2744 32.0894 43.6301C32.4247 44.2696 32.758 44.9791 33.0932 45.6186C33.2227 46.0423 33.0719 46.3882 32.7152 46.5183Z" fill="white"/>
<path d="M41.743 18.9014C37.3929 20.461 33.0429 22.0206 28.7634 23.5822C28.4068 23.7123 28.0599 23.4926 27.9285 23.1388C27.8677 22.7871 28.0929 22.3032 28.4495 22.1731C32.7996 20.6134 37.0791 19.0519 41.4291 17.4923C41.7858 17.3621 42.1327 17.5818 42.264 17.9356C42.3229 18.3573 42.0996 18.7712 41.743 18.9014Z" fill="white"/>
<path d="M43.8789 25.8926C39.4583 27.4502 35.1063 29.0798 30.6857 30.6375C30.3291 30.7676 29.9116 30.5459 29.7802 30.1922C29.6489 29.8384 29.8722 29.4245 30.2288 29.2944C34.5788 27.7348 39.0014 26.1072 43.3514 24.5476C43.7081 24.4174 44.1255 24.6391 44.2569 24.9928C44.4588 25.3485 44.3061 25.7644 43.8789 25.8926Z" fill="white"/>
<path d="M46.5844 32.6895C42.1619 34.3171 37.6688 35.9428 33.2462 37.5704C32.8896 37.7005 32.4702 37.5488 32.3388 37.1951C32.2075 36.8413 32.3602 36.4255 32.7168 36.2953C37.1394 34.6677 41.56 33.1101 45.9825 31.4824C46.3391 31.3523 46.7585 31.504 46.9605 31.8597C47.1643 32.1455 47.0135 32.4914 46.5844 32.6895Z" fill="white"/>
<path d="M49.8663 39.0823C45.3733 40.708 40.8782 42.4036 36.3851 44.0292C36.0285 44.1594 35.5386 44.0057 35.4072 43.652C35.2053 43.2963 35.3561 42.9504 35.7832 42.8222C40.2763 41.1965 44.6989 39.5689 49.1939 37.8733C49.5505 37.7432 50.0405 37.8968 50.1719 38.2506C50.3738 38.6063 50.223 38.9522 49.8663 39.0823Z" fill="white"/>
</g>
<path d="M233.988 52.9381C238.171 40.7819 241.287 28.2842 243.3 15.5869C243.356 15.1965 243.314 14.7985 243.18 14.4278C243.046 14.0571 242.823 13.7249 242.53 13.4604C242.695 13.8555 242.748 14.2881 242.684 14.7112C240.671 27.4085 237.555 39.9062 233.371 52.0624C233.171 52.6012 232.778 53.0465 232.268 53.3126C231.758 53.5786 231.168 53.6465 230.611 53.5032C218.402 50.2789 206.182 47.0499 193.952 43.8161C193.683 43.7462 193.431 43.6224 193.211 43.4523C193.315 43.7561 193.494 44.0288 193.731 44.2454C193.969 44.462 194.256 44.6155 194.568 44.6918C206.798 47.9261 219.018 51.1552 231.228 54.3789C231.785 54.5222 232.375 54.4543 232.884 54.1883C233.394 53.9222 233.787 53.4769 233.988 52.9381V52.9381Z" fill="#E1DFDD"/>
<path d="M193.952 43.8161C206.182 47.0508 218.402 50.2798 230.611 53.5031C231.168 53.6465 231.758 53.5786 232.268 53.3126C232.777 53.0465 233.171 52.6012 233.371 52.0624C237.555 39.9062 240.671 27.4085 242.684 14.7112C242.766 14.1392 242.64 13.5567 242.328 13.07C242.016 12.5833 241.54 12.2248 240.986 12.0599L205.041 2.64012C204.779 2.57001 204.505 2.5561 204.238 2.59929C203.97 2.64248 203.715 2.7418 203.489 2.89071C203.263 3.03963 203.07 3.23476 202.925 3.46329C202.779 3.69181 202.684 3.94855 202.645 4.21662C200.389 16.8464 197.033 29.2549 192.617 41.3006C192.47 41.6755 192.448 42.088 192.555 42.4764C192.662 42.8648 192.891 43.2082 193.21 43.455C193.43 43.6243 193.683 43.7471 193.952 43.8161ZM196.057 40.8768C196.065 40.8596 196.068 40.8412 196.075 40.8233C196.962 38.3271 197.803 35.8113 198.598 33.2759C201.378 24.4487 203.602 15.4557 205.257 6.34996C216.692 9.31703 228.116 12.281 239.53 15.2417C238.831 19.501 238.011 23.7217 237.071 27.9037C235.403 35.3668 233.347 42.7379 230.912 49.9869C219.304 46.955 207.686 43.9183 196.057 40.8768Z" fill="white"/>
<path d="M214.829 37.7583C220.586 35.1483 224.587 30.5412 229.035 28.4224C226.24 27.6914 223.443 26.959 220.643 26.2252C219.933 26.035 219.279 25.6775 218.736 25.1827C218.193 24.6879 217.777 24.0701 217.521 23.3811C217.188 22.5003 217.122 21.5408 217.331 20.6225C217.445 20.0505 217.674 19.5074 218.003 19.0259C218.332 18.5443 218.755 18.1342 219.247 17.8202C219.738 17.5062 220.288 17.2946 220.863 17.1983C221.439 17.102 222.027 17.1228 222.595 17.2596C223.241 16.6109 224.047 16.1441 224.931 15.9063C225.816 15.6684 226.747 15.668 227.632 15.9051C228.87 16.2535 229.965 16.9851 230.761 17.9948C231.558 19.0045 232.014 20.2405 232.064 21.5254C232.96 21.8402 233.711 22.4713 234.176 23.3003C234.64 24.1292 234.787 25.0992 234.587 26.0282C234.485 26.4887 234.295 26.9251 234.028 27.3138C234.756 27.345 235.478 27.4542 236.182 27.6395C236.497 27.7222 236.79 27.8124 237.071 27.9064C238.008 23.7243 238.828 19.5037 239.531 15.2445C228.116 12.2817 216.692 9.31676 205.257 6.3497C203.603 15.4555 201.379 24.4485 198.598 33.2757C203.281 31.8099 206.699 30.606 209.361 31.3014C211.866 31.9631 213.166 34.5971 214.829 37.7583ZM206.287 26.9573C206.054 26.8947 205.835 26.7866 205.644 26.6393C205.453 26.492 205.293 26.3083 205.173 26.0989C205.053 25.8894 204.975 25.6583 204.945 25.4188C204.914 25.1793 204.931 24.9362 204.995 24.7034C205.121 24.2293 205.427 23.8232 205.849 23.5723C206.055 23.4477 206.284 23.3658 206.523 23.3315C206.761 23.2973 207.004 23.3114 207.237 23.3731L208.97 23.827C209.366 23.4246 209.862 23.1339 210.406 22.9842C210.951 22.8344 211.525 22.831 212.072 22.9741C212.915 23.2005 213.635 23.7509 214.075 24.5054C214.514 25.2599 214.638 26.1575 214.419 27.003C214.41 27.0434 214.4 27.0786 214.386 27.1179C214.385 27.1326 214.383 27.1472 214.378 27.1613C214.252 27.6358 213.943 28.0413 213.52 28.29C213.313 28.4135 213.083 28.4945 212.844 28.5284C212.606 28.5623 212.363 28.5484 212.129 28.4874L208.237 27.4675C207.586 27.2987 206.936 27.1287 206.287 26.9573Z" fill="#C6F3FC"/>
<path d="M214.829 37.7584C213.166 34.5972 211.866 31.9632 209.359 31.3013C206.697 30.6059 203.281 31.8103 198.596 33.275C197.798 35.8089 196.957 38.3247 196.073 40.8224C199.991 40.7476 208.385 40.3356 213.676 38.2469C214.07 38.0952 214.453 37.9292 214.829 37.7584Z" fill="url(#paint0_linear_206_48137)"/>
<path d="M234.585 26.0278C234.785 25.099 234.639 24.1295 234.174 23.3007C233.71 22.4719 232.96 21.8409 232.064 21.5257C232.013 20.2414 231.557 19.0062 230.761 17.9971C229.965 16.988 228.87 16.2568 227.632 15.9084C226.748 15.6713 225.816 15.6718 224.932 15.9096C224.048 16.1474 223.241 16.6142 222.595 17.2629C222.028 17.1261 221.439 17.1053 220.864 17.2016C220.289 17.2979 219.739 17.5095 219.247 17.8235C218.756 18.1376 218.333 18.5477 218.003 19.0292C217.674 19.5107 217.446 20.0538 217.331 20.6258C217.123 21.5435 217.19 22.5021 217.523 23.3822C217.778 24.0712 218.195 24.689 218.738 25.1838C219.281 25.6786 219.935 26.0361 220.644 26.2263C223.443 26.9598 226.24 27.6922 229.037 28.4235C230.583 27.6433 232.299 27.2608 234.03 27.3108C234.295 26.9226 234.484 26.4871 234.585 26.0278V26.0278Z" fill="white"/>
<path d="M213.524 28.292C213.947 28.0433 214.256 27.6378 214.382 27.1633C214.387 27.1492 214.389 27.1346 214.39 27.1199C214.404 27.0806 214.413 27.0454 214.423 27.005C214.642 26.1593 214.518 25.2614 214.078 24.5067C213.638 23.7521 212.918 23.2018 212.074 22.9756C211.528 22.8325 210.954 22.8359 210.409 22.9857C209.864 23.1354 209.369 23.4261 208.973 23.8285L207.24 23.3745C207.007 23.3129 206.764 23.2988 206.525 23.333C206.287 23.3673 206.058 23.4491 205.851 23.5738C205.43 23.8247 205.124 24.2308 204.998 24.7049C204.934 24.9377 204.917 25.1808 204.947 25.4203C204.978 25.6598 205.055 25.8909 205.175 26.1003C205.295 26.3098 205.456 26.4935 205.647 26.6408C205.838 26.7881 206.057 26.8962 206.29 26.9588C206.939 27.1294 207.589 27.2995 208.237 27.469L212.129 28.489C212.363 28.5505 212.607 28.5648 212.846 28.531C213.086 28.4972 213.316 28.4159 213.524 28.292Z" fill="white"/>
<path d="M237.071 27.9034C236.789 27.8094 236.496 27.7192 236.181 27.6365C235.477 27.4512 234.755 27.342 234.027 27.3108C232.297 27.2608 230.581 27.6433 229.035 28.4235C224.586 30.5423 220.586 35.1494 214.829 37.7594C214.452 37.9302 214.069 38.0957 213.677 38.2487C208.387 40.3365 199.993 40.7483 196.075 40.823C196.067 40.8402 196.063 40.8586 196.057 40.8765C207.686 43.9181 219.304 46.9548 230.912 49.9866C233.347 42.7376 235.403 35.3666 237.071 27.9034V27.9034Z" fill="url(#paint1_linear_206_48137)"/>
<g filter="url(#filter0_d_206_48137)">
<path d="M206.27 17.7198C206.343 17.0306 205.846 16.2886 205.137 16.089C192.673 12.3808 180.21 8.67257 167.706 4.95774C166.997 4.75807 166.395 5.15371 166.363 5.84959C165.418 18.5632 162.654 31.3063 158.062 43.6239C157.829 44.2866 158.165 45.002 158.834 45.1951C170.849 48.8705 182.831 52.4991 194.766 56.1613C195.435 56.3543 196.197 55.9852 196.471 55.3291C201.584 43.0977 204.83 30.4342 206.27 17.7198Z" fill="white"/>
</g>
<path d="M168.434 8.29555C167.401 19.7983 164.882 31.3033 160.844 42.5161C166.54 44.2405 172.196 45.9583 177.886 47.7229C179.298 48.1624 180.711 48.6019 182.13 49.0012C186.173 50.2463 190.222 51.4513 194.225 52.6899C198.618 41.5769 201.538 30.1382 202.986 18.6215L168.434 8.29555Z" fill="#FFD590"/>
<path d="M184.364 39.4707C185.01 37.5562 185.576 35.6284 186.142 33.7007C184.301 33.108 182.5 32.5219 180.659 31.9291C180.14 33.8233 179.581 35.7109 178.982 37.5919C178.529 38.837 178.248 39.2857 176.73 39.4887C174.83 39.7524 177.377 42.813 179.84 43.6323C182.344 44.4582 186.497 43.2879 185.331 42.3529C184.38 41.6183 183.737 41.0171 184.364 39.4707Z" fill="url(#paint2_radial_206_48137)"/>
<path d="M193.902 28.6707C192.612 33.985 186.922 36.7165 182.464 35.2378C177.611 33.6526 175 27.9828 176.17 22.6486C177.339 17.3145 179.943 13.7846 186.918 16.009C193.893 18.2333 195.232 23.363 193.902 28.6707Z" fill="#594539"/>
<path d="M179.809 31.3347C178.945 31.0683 178.048 30.7552 177.185 30.4889C176.047 30.136 175.383 28.9126 175.655 27.7614C175.928 26.6102 177.058 26.013 178.196 26.3659C179.099 26.6389 179.956 26.9454 180.86 27.2184C180.507 28.6039 180.155 29.9894 179.809 31.3347Z" fill="url(#paint3_radial_206_48137)"/>
<path d="M187.052 33.6858C187.915 33.9521 188.812 34.2652 189.675 34.5316C190.813 34.8845 191.95 34.2472 192.256 33.1428C192.569 31.9982 191.858 30.8083 190.727 30.4153C189.823 30.1423 188.966 29.8358 188.062 29.5628C187.75 30.9549 187.404 32.3003 187.052 33.6858Z" fill="#BF8F68"/>
<path d="M192.359 21.2803C192.33 15.707 186.218 12.7588 182.197 13.1261C178.638 13.4458 176.321 16.2392 175.621 13.4837C175.621 13.4837 172.666 15.3883 172.818 18.7133C172.97 22.0383 175.502 23.9414 178.225 23.6898C180.025 23.5332 182.142 21.2018 185.654 20.4204C188.523 19.7806 192.359 21.2803 192.359 21.2803Z" fill="#594539"/>
<path d="M191.322 30.5546C190.045 35.7886 185.561 38.9666 181.799 37.7679C177.997 36.5625 176.256 31.3665 177.453 26.1192C178.649 20.872 182.325 18.0966 186.207 19.3152C190.09 20.5339 192.599 25.3206 191.322 30.5546Z" fill="#BF8F68"/>
<path d="M186.577 29.5651C186.444 30.1206 186.599 30.6824 186.954 30.7822C187.268 30.8754 187.656 30.5269 187.795 29.9313C187.928 29.3757 187.767 28.8541 187.419 28.7141C187.064 28.6143 186.71 29.0096 186.577 29.5651Z" fill="#33312D"/>
<path d="M185.82 24.16C185.587 25.0703 185.307 26.0141 185.034 26.9177C184.668 28.3835 183.593 29.4021 182.884 29.9451C182.55 30.2199 182.471 30.7017 182.692 31.1095C183.081 31.7513 183.544 32.694 183.385 33.4101C183.211 33.959 182.998 34.5012 182.825 35.0501C181.393 34.7311 180.001 34.4187 178.575 34.0595C179.566 30.3046 180.357 26.5165 181.027 22.7086C182.64 23.1812 184.213 23.6472 185.82 24.16Z" fill="url(#paint4_radial_206_48137)"/>
<path d="M182.007 33.7602C182.321 33.8534 182.556 33.9333 182.75 34.0067C182.991 34.0464 183.192 34.0796 183.392 34.1128C183.593 34.1459 183.801 34.1389 184.048 34.1385C184.296 34.1382 184.51 34.091 184.804 34.0571C184.804 34.0571 184.804 34.0571 184.844 34.0638C184.971 34.0435 185.078 34.1437 185.099 34.2708C185.092 34.311 185.085 34.3511 185.079 34.3913C184.945 34.6992 184.692 34.9873 184.377 35.1417C184.063 35.296 183.682 35.3568 183.314 35.3373C182.946 35.3177 182.598 35.1777 182.303 34.9641C182.008 34.7504 181.807 34.4697 181.7 34.122C181.679 33.9949 181.739 33.881 181.873 33.8206C181.886 33.7403 181.927 33.7469 182.007 33.7602Z" fill="#9B643D"/>
<path d="M180.74 27.6938C180.607 28.2493 180.768 28.7709 181.116 28.9109C181.431 29.0041 181.819 28.6556 181.958 28.0599C182.091 27.5044 181.89 26.9761 181.582 26.8428C181.227 26.743 180.873 27.1382 180.74 27.6938Z" fill="#33312D"/>
<path d="M193.546 23.3324C193.546 23.3324 190.303 19.9918 186.34 18.7599C182.344 17.4813 178.304 18.4641 178.304 18.4641C177.579 20.8604 176.773 23.2435 175.926 25.6199C176.428 25.8266 176.924 26.0734 177.426 26.2801C178.28 24.6061 179.06 22.8788 179.834 21.1916C180.027 20.7698 180.509 20.6018 180.984 20.7216C184.117 21.7339 187.256 22.7061 190.389 23.7184C190.857 23.8783 191.199 24.306 191.24 24.8077C191.29 26.7546 191.299 28.6949 191.309 30.6352C191.824 30.7615 192.34 30.8879 192.855 31.0142C193.112 28.458 193.369 25.9018 193.546 23.3324Z" fill="#594539"/>
<path d="M178.844 39.6725C173.825 38.8437 168.957 40.5971 165.402 43.8875C173.923 46.4909 182.411 49.0475 190.892 51.6443C190.1 45.6975 185.269 40.7335 178.844 39.6725Z" fill="#F7B548"/>
<g filter="url(#filter1_d_206_48137)">
<path d="M79.4854 14.0929L91.1924 44.293C91.5743 45.2782 91.0682 46.4122 90.0748 46.7973L62.293 57.5668C61.2996 57.9519 60.1614 57.4553 59.7795 56.4702L45.1674 18.8776C44.7723 17.8585 45.2784 16.7245 46.2719 16.3394L66.5858 8.46475L79.4854 14.0929Z" fill="white"/>
</g>
<path d="M79.5197 14.0796L71.7093 17.1073C70.8871 17.426 69.986 17.0328 69.67 16.2175L66.6675 8.47217L79.5197 14.0796Z" fill="#C8C6C4"/>
<path d="M76.5412 19.1029L63.147 24.2952L63.6892 25.6938L77.0834 20.5015L76.5412 19.1029Z" fill="#398BC7"/>
<path d="M78.5111 24.0834L55.4909 33.0071L56.0331 34.4057L79.0533 25.4819L78.5111 24.0834Z" fill="#398BC7"/>
<path d="M84.0202 39.0001L61 47.9238L61.5422 49.3224L84.5623 40.3987L84.0202 39.0001Z" fill="#398BC7"/>
<path d="M80.447 29.0775L57.4268 38.0012L57.969 39.3998L80.9891 30.4761L80.447 29.0775Z" fill="#398BC7"/>
<path d="M82.3696 34.0367L59.3495 42.9604L59.8916 44.359L82.9118 35.4353L82.3696 34.0367Z" fill="#398BC7"/>
<path d="M56.7907 21.0539C57.8205 20.6547 58.9791 21.1659 59.3783 22.1958L60.619 25.3963C61.0182 26.4262 60.507 27.5848 59.4771 27.984L56.2184 29.2472C55.1885 29.6465 54.03 29.1352 53.6307 28.1053L52.3901 24.9048C51.9908 23.8749 52.5021 22.7164 53.532 22.3172L56.7907 21.0539Z" fill="#398BC7"/>
<path d="M162.405 57.9937H85.6416V11.31C85.6416 10.0106 86.7004 9 87.9517 9H160.047C161.346 9 162.357 10.0587 162.357 11.31V57.9937H162.405Z" fill="#0078D7"/>
<path d="M160.047 12.019H88.1931V53.6973H160.047V12.019Z" fill="white"/>
<path d="M156.657 49.3425C156.657 48.9277 156.325 48.5959 155.911 48.5959H150.062C149.647 48.5959 149.315 48.9277 149.315 49.3425C149.315 49.7574 149.647 50.0891 150.062 50.0891H155.911C156.325 50.0891 156.657 49.7574 156.657 49.3425Z" fill="#7BDDEF" fill-opacity="0.21"/>
<path d="M156.657 45.9736C156.657 45.5588 156.325 45.2271 155.911 45.2271H150.062C149.647 45.2271 149.315 45.5588 149.315 45.9736C149.315 46.3885 149.647 46.7202 150.062 46.7202H155.911C156.325 46.7202 156.657 46.3885 156.657 45.9736Z" fill="#7BDDEF" fill-opacity="0.21"/>
<path d="M156.657 42.6048C156.657 42.1899 156.325 41.8582 155.911 41.8582H150.062C149.647 41.8582 149.315 42.1899 149.315 42.6048C149.315 43.0196 149.647 43.3514 150.062 43.3514H155.911C156.325 43.3514 156.657 43.0196 156.657 42.6048Z" fill="#7BDDEF" fill-opacity="0.21"/>
<path d="M166.736 61.603H81.262C80.0107 61.603 79 60.5924 79 59.3411V57.5603H168.998V59.3411C169.047 60.5443 167.988 61.603 166.736 61.603Z" fill="#0078D7"/>
<g opacity="0.21">
<g opacity="0.21">
<g opacity="0.21">
<g opacity="0.21">
<g opacity="0.21">
<path opacity="0.21" d="M118.725 38.3635C118.2 37.7727 117.478 37.5103 116.625 37.5103C115.837 37.5103 115.115 37.7727 114.524 38.3635C113.999 38.9544 113.67 39.6109 113.67 40.4643C113.67 41.3178 113.933 41.9743 114.524 42.5652C115.115 43.156 115.837 43.4184 116.625 43.4184C117.478 43.4184 118.134 43.156 118.725 42.5652C119.316 42.04 119.579 41.3178 119.579 40.4643C119.579 39.6109 119.316 38.8887 118.725 38.3635Z" fill="#7BDDEF"/>
</g>
</g>
</g>
</g>
</g>
<path d="M121.625 32C120.844 31.5156 119.922 31.25 118.937 31.25C116.203 31.2813 114 33.5156 114 36.25C114 37.3125 114.328 38.2969 114.891 39.1094L122.016 39.2969L125.828 34.5156L121.625 32Z" fill="#0078D4"/>
<path d="M125.828 34.5156C125.828 34.5156 114.656 39.2188 114.906 39.1094C115.797 40.4063 117.297 41.25 119 41.25H129.938C131.484 41.25 132.828 40.3906 133.516 39.1094C133.359 39.0313 125.828 34.5156 125.828 34.5156Z" fill="#28A8EA"/>
<path d="M130.219 33.1408C129.547 33.0939 128.906 33.2189 128.328 33.4689L125.828 34.5158C125.828 34.5158 133.375 39.0314 133.516 39.1252C133.828 38.5471 134 37.8908 134 37.2033C134 35.0314 132.328 33.2814 130.219 33.1408Z" fill="#1490DF"/>
<path d="M128.328 33.4531C128.906 33.2031 129.547 33.0937 130.219 33.125C129.516 30.4375 127.078 28.4375 124.156 28.4375C121.969 28.4375 120.047 29.5625 118.938 31.25C119.938 31.2344 120.844 31.5156 121.625 32L125.828 34.5156L128.328 33.4531Z" fill="#0364B8"/>
<path opacity="0.21" d="M95.4863 21.23C95.0924 20.8361 94.6329 20.6389 94.0421 20.6389C93.4513 20.6389 92.9917 20.8361 92.5978 21.23C92.2039 21.6239 92.0071 22.0832 92.0071 22.674C92.0071 23.2648 92.2039 23.7245 92.5978 24.1184C92.9917 24.5123 93.5169 24.7091 94.0421 24.7091C94.6329 24.7091 95.0924 24.5123 95.4863 24.1184C95.8802 23.7245 96.0771 23.2648 96.0771 22.674C96.0771 22.1489 95.8802 21.6895 95.4863 21.23Z" fill="#7BDDEF"/>
<path opacity="0.21" d="M156.163 15.4978C155.769 15.1039 155.31 14.9067 154.719 14.9067C154.128 14.9067 153.669 15.1039 153.275 15.4978C152.881 15.8917 152.684 16.351 152.684 16.9418C152.684 17.5327 152.881 17.9923 153.275 18.3862C153.669 18.7801 154.194 18.977 154.719 18.977C155.31 18.977 155.769 18.7801 156.163 18.3862C156.557 17.9923 156.754 17.5327 156.754 16.9418C156.754 16.4167 156.557 15.9573 156.163 15.4978Z" fill="#7BDDEF"/>
<path opacity="0.21" d="M105.589 21.72C105.589 21.3052 105.257 20.9734 104.842 20.9734H98.9935C98.5787 20.9734 98.2468 21.3052 98.2468 21.72C98.2468 22.1348 98.5787 22.467 98.9935 22.467H104.842C105.257 22.467 105.589 22.1348 105.589 21.72Z" fill="#7BDDEF"/>
<path opacity="0.21" d="M95.4863 48.1453C95.0924 47.7514 94.6329 47.5542 94.0421 47.5542C93.4513 47.5542 92.9917 47.7514 92.5978 48.1453C92.2039 48.5392 92.0071 48.9985 92.0071 49.5893C92.0071 50.1801 92.2039 50.6398 92.5978 51.0337C92.9917 51.4275 93.5169 51.6244 94.0421 51.6244C94.6329 51.6244 95.0924 51.4275 95.4863 51.0337C95.8802 50.6398 96.0771 50.1801 96.0771 49.5893C96.0771 48.9985 95.8802 48.5392 95.4863 48.1453Z" fill="#7BDDEF"/>
<path opacity="0.21" d="M105.589 48.6008C105.589 48.1859 105.257 47.8538 104.842 47.8538H98.9935C98.5787 47.8538 98.2468 48.1859 98.2468 48.6008C98.2468 49.0156 98.5787 49.3474 98.9935 49.3474H104.842C105.257 49.3474 105.589 49.0156 105.589 48.6008Z" fill="#7BDDEF"/>
<path opacity="0.21" d="M92.5978 42.0397C92.9917 42.4336 93.5169 42.6304 94.0421 42.6304C94.6329 42.6304 95.0924 42.4336 95.4863 42.0397C95.8802 41.6458 96.0771 41.1865 96.0771 40.5957C96.0771 40.0048 95.8802 39.5452 95.4863 39.1513C95.0924 38.7574 94.6329 38.5605 94.0421 38.5605C93.4513 38.5605 92.9917 38.7574 92.5978 39.1513C92.2039 39.5452 92.0071 40.0048 92.0071 40.5957C92.0071 41.1865 92.2039 41.6458 92.5978 42.0397Z" fill="#7BDDEF"/>
<path d="M105.589 39.6404C105.589 39.2256 105.257 38.8938 104.842 38.8938H98.9935C98.5787 38.8938 98.2468 39.2256 98.2468 39.6404C98.2468 40.0552 98.5787 40.387 98.9935 40.387H104.842C105.257 40.387 105.589 40.0552 105.589 39.6404Z" fill="#7BDDEF" fill-opacity="0.21"/>
<path opacity="0.21" d="M95.4863 30.2233C95.0924 29.8294 94.6329 29.6326 94.0421 29.6326C93.4513 29.6326 92.9917 29.8294 92.5978 30.2233C92.2039 30.6172 92.0071 31.0769 92.0071 31.6677C92.0071 32.2585 92.2039 32.7178 92.5978 33.1117C92.9917 33.5056 93.5169 33.7028 94.0421 33.7028C94.6329 33.7028 95.0924 33.5056 95.4863 33.1117C95.8802 32.7178 96.0771 32.2585 96.0771 31.6677C96.0771 31.0769 95.8802 30.6172 95.4863 30.2233Z" fill="#7BDDEF"/>
<path opacity="0.21" d="M105.589 30.6804C105.589 30.2656 105.257 29.9338 104.842 29.9338H98.9935C98.5787 29.9338 98.2468 30.2656 98.2468 30.6804C98.2468 31.0953 98.5787 31.427 98.9935 31.427H104.842C105.257 31.427 105.589 31.0953 105.589 30.6804Z" fill="#7BDDEF"/>
</g>
<defs>
<filter id="filter0_d_206_48137" x="157.988" y="4.90601" width="48.7074" height="52.1437" filterUnits="userSpaceOnUse" color-interpolation-filters="sRGB">
<feFlood flood-opacity="0" result="BackgroundImageFix"/>
<feColorMatrix in="SourceAlpha" type="matrix" values="0 0 0 0 0 0 0 0 0 0 0 0 0 0 0 0 0 0 127 0" result="hardAlpha"/>
<feOffset dx="0.418652" dy="0.837304"/>
<feComposite in2="hardAlpha" operator="out"/>
<feColorMatrix type="matrix" values="0 0 0 0 0.882353 0 0 0 0 0.87451 0 0 0 0 0.866667 0 0 0 1 0"/>
<feBlend mode="normal" in2="BackgroundImageFix" result="effect1_dropShadow_206_48137"/>
<feBlend mode="normal" in="SourceGraphic" in2="effect1_dropShadow_206_48137" result="shape"/>
</filter>
<filter id="filter1_d_206_48137" x="44.5526" y="8.46484" width="46.7673" height="50.6732" filterUnits="userSpaceOnUse" color-interpolation-filters="sRGB">
<feFlood flood-opacity="0" result="BackgroundImageFix"/>
<feColorMatrix in="SourceAlpha" type="matrix" values="0 0 0 0 0 0 0 0 0 0 0 0 0 0 0 0 0 0 127 0" result="hardAlpha"/>
<feOffset dx="-0.480178" dy="1.44053"/>
<feComposite in2="hardAlpha" operator="out"/>
<feColorMatrix type="matrix" values="0 0 0 0 0 0 0 0 0 0 0 0 0 0 0 0 0 0 0.09 0"/>
<feBlend mode="normal" in2="BackgroundImageFix" result="effect1_dropShadow_206_48137"/>
<feBlend mode="normal" in="SourceGraphic" in2="effect1_dropShadow_206_48137" result="shape"/>
</filter>
<linearGradient id="paint0_linear_206_48137" x1="208.816" y1="30.9741" x2="212.056" y2="44.0278" gradientUnits="userSpaceOnUse">
<stop stop-color="#FCC874"/>
<stop offset="1" stop-color="#FFBC49"/>
</linearGradient>
<linearGradient id="paint1_linear_206_48137" x1="210.462" y1="55.0117" x2="238.444" y2="25.8195" gradientUnits="userSpaceOnUse">
<stop stop-color="#FCC975"/>
<stop offset="1" stop-color="#FFD691"/>
</linearGradient>
<radialGradient id="paint2_radial_206_48137" cx="0" cy="0" r="1" gradientUnits="userSpaceOnUse" gradientTransform="translate(183.309 34.3655) rotate(28.8288) scale(5.40845)">
<stop stop-color="#9B643D"/>
<stop offset="0.8819" stop-color="#BA8A63"/>
<stop offset="0.9997" stop-color="#BF8F68"/>
</radialGradient>
<radialGradient id="paint3_radial_206_48137" cx="0" cy="0" r="1" gradientUnits="userSpaceOnUse" gradientTransform="translate(178.996 28.7246) rotate(28.8288) scale(2.50601)">
<stop stop-color="#9B643D"/>
<stop offset="0.8819" stop-color="#BA8A63"/>
<stop offset="0.9997" stop-color="#BF8F68"/>
</radialGradient>
<radialGradient id="paint4_radial_206_48137" cx="0" cy="0" r="1" gradientUnits="userSpaceOnUse" gradientTransform="translate(184.736 31.2504) rotate(-166.471) scale(4.47375 4.71641)">
<stop stop-color="#9B643D"/>
<stop offset="0.8819" stop-color="#BA8A63"/>
<stop offset="0.9997" stop-color="#BF8F68"/>
</radialGradient>
<clipPath id="clip0_206_48137">
<rect width="248" height="69" fill="white"/>
</clipPath>
<clipPath id="clip1_206_48137">
<rect width="47.4263" height="52.5641" fill="white" transform="translate(16.0352 3.97314) rotate(1.59135)"/>
</clipPath>
</defs>
</svg>
