<svg width="48" height="48" viewBox="-2 7 48 48" fill="none" xmlns="http://www.w3.org/2000/svg">
<path d="M32.6666 34.6667C32.6666 35.0334 32.368 35.3334 32 35.3334H24.357C23.9741 36.068 23.489 36.741 22.9206 37.3334H32C33.472 37.3334 34.6666 36.1387 34.6666 34.6667V21.104C34.6666 20.3974 34.3853 19.7187 33.8853 19.2187L26.1133 11.448C26.0934 11.4281 26.0708 11.4108 26.0484 11.3936C26.0318 11.3809 26.0153 11.3683 26 11.3547C25.9053 11.2694 25.812 11.1854 25.708 11.1147C25.6743 11.0919 25.6374 11.074 25.6007 11.0561C25.5793 11.0457 25.5579 11.0353 25.5373 11.024C25.5151 11.0115 25.4929 10.9986 25.4706 10.9858C25.3984 10.944 25.3258 10.902 25.2493 10.8694C24.9866 10.76 24.704 10.7054 24.4173 10.6854C24.391 10.6837 24.365 10.6801 24.3389 10.6766C24.3028 10.6716 24.2665 10.6667 24.2293 10.6667H16C14.528 10.6667 13.3333 11.8614 13.3333 13.3334V23.3309C13.9655 23.0673 14.6357 22.8763 15.3333 22.7686V13.3334C15.3333 12.9667 15.632 12.6667 16 12.6667H24V18.6667C24 20.1387 25.1946 21.3334 26.6666 21.3334H32.6666V34.6667ZM26 14.1614L31.1706 19.3334H26.6666C26.2986 19.3334 26 19.0334 26 18.6667V14.1614Z" fill="black" fill-opacity="0.4458"/>
<path d="M16.5 24C20.6421 24 24 27.3579 24 31.5C24 35.6421 20.6421 39 16.5 39C12.3579 39 9 35.6421 9 31.5C9 27.3579 12.3579 24 16.5 24ZM16.5 34C15.9822 34 15.5625 34.4197 15.5625 34.9375C15.5625 35.4553 15.9822 35.875 16.5 35.875C17.0178 35.875 17.4375 35.4553 17.4375 34.9375C17.4375 34.4197 17.0178 34 16.5 34ZM16.5 27.125C16.1932 27.125 15.938 27.3461 15.8851 27.6377L15.875 27.75V32.125L15.8851 32.2373C15.938 32.5289 16.1932 32.75 16.5 32.75C16.8068 32.75 17.062 32.5289 17.1149 32.2373L17.125 32.125V27.75L17.1149 27.6377C17.062 27.3461 16.8068 27.125 16.5 27.125Z" fill="#C42B1C"/>
</svg>
