<svg viewBox="0 0 32 32" fill="none" xmlns="http://www.w3.org/2000/svg">
<g clip-path="url(#clip0_2414_516)">
<path d="M2 13.5C2 11.0147 4.01472 9 6.5 9H25.5C27.9853 9 30 11.0147 30 13.5V18.5C30 20.9853 27.9853 23 25.5 23H6.5C4.01472 23 2 20.9853 2 18.5V13.5ZM6.5 11C5.11929 11 4 12.1193 4 13.5V18.5C4 19.8807 5.11929 21 6.5 21H25.5C26.8807 21 28 19.8807 28 18.5V13.5C28 12.1193 26.8807 11 25.5 11H6.5Z" fill="#515C6B"/>
<circle cx="19.5" cy="14.5" r="1.5" fill="#107C10"/>
<circle cx="24.5" cy="14.5" r="1.5" fill="#00CC6A"/>
</g>
<defs>
<clipPath id="clip0_2414_516">
<rect width="32" height="32" fill="white"/>
</clipPath>
</defs>
</svg>
